<?xml version="1.0" encoding="UTF-8"?>
<!DOCTYPE svg PUBLIC "-//W3C//DTD SVG 1.1//EN" "http://www.w3.org/Graphics/SVG/1.1/DTD/svg11.dtd">
<!-- Creator: CorelDRAW 2018 (64 Bit Versión de evaluación) -->
<svg xmlns="http://www.w3.org/2000/svg" xml:space="preserve" width="63.301mm" height="33.5376mm" version="1.1" style="shape-rendering:geometricPrecision; text-rendering:geometricPrecision; image-rendering:optimizeQuality; fill-rule:evenodd; clip-rule:evenodd"
viewBox="0 0 240.02 127.16"
 xmlns:xlink="http://www.w3.org/1999/xlink">
 <defs>
  <style type="text/css">
   <![CDATA[
    .fil0 {fill:white}
   ]]>
  </style>
 </defs>
 <g id="Capa_x0020_1">
  <metadata id="CorelCorpID_0Corel-Layer"/>
  <g id="_1414933005856">
   <path class="fil0" d="M190 70.71l0.19 0.02 0.13 0.03 0.09 0.04 0.06 0.06 0.04 0.15 0.08 0.18 0.12 0.16 0.07 0.09 0.05 0.03 0.05 0.01 0.02 0.03 0.03 0.06 0.04 0.15 0.06 0.27 -0.27 0 -0.27 -0.01 -0.24 0 -0.21 0 -0.16 0.03 -0.11 0.03 -0.09 0.05 -0.06 0.03 -0.07 0.06 -0.02 0.05 -0.01 0.01 -0.02 0.02 -0.03 -0.02 -0.03 -0.01 -0.15 -0.09 -0.27 -0.17 -0.15 -0.08 -0.12 -0.06 -0.11 -0.03 -0.08 -0.03 -0.13 -0.02 -0.08 -0.01 -0.03 0 -0.01 -0.03 -0.02 -0.03 0 -0.03 -0.02 -0.15 -0.03 -0.26 0.09 -0.06 0 -0.02 0.04 0 0.18 -0.03 0.24 -0.03 0.16 -0.03 0.13 -0.03 0.11 -0.03 0.08 -0.05 0.09 -0.08 0.04 -0.08 0.03 -0.03 0.02 -0.03 0.05 -0.01 0.04 -0.03 0.06 -0.02 0.11 0 0.12 -0.02 0.15 0.02zm11.72 -1.76l-0.33 0.09 -0.24 0.06 -0.19 0.05 -0.16 0.01 -0.18 0.02 -0.2 0.01 -0.27 0.02 -0.36 0.03 -0.09 0.29 -0.09 0.25 -0.05 0.11 -0.06 0.08 -0.06 0.09 -0.06 0.06 -0.09 0.04 -0.09 0.05 -0.12 0.03 -0.13 0.02 -0.15 0 -0.18 -0.02 -0.19 -0.02 -0.24 -0.03 -0.04 0.06 -0.09 0.09 -0.04 0.03 -0.05 0.03 -0.15 0.03 -0.11 0.03 -0.11 0.03 -0.1 0 -0.11 0.02 -0.21 -0.02 -0.23 0 -0.21 -0.01 -0.22 0.01 -0.11 0 -0.12 0.03 -0.11 0.03 -0.12 0.05 0.09 0.13 0.11 0.1 0.11 0.08 0.12 0.08 0.13 0.05 0.12 0.03 0.14 0.03 0.13 0.02 0.6 -0.02 0.62 -0.01 0.68 0.18 -0.03 0.32 -0.02 0.08 -0.02 -0.02 -0.04 0.02 -0.08 0.05 -0.11 0.1 -0.11 0.08 -0.18 0.08 -0.21 0.09 -0.25 0.07 -0.29 0.08 -0.3 0.06 -0.32 0.06 -0.33 0.04 -0.3 0.03 -0.3 0 -0.27 0 -0.24 -0.03 -0.11 -0.03 -0.09 -0.03 -0.09 -0.03 -0.06 -0.05 -0.05 -0.04 -0.03 -0.06 -0.02 -0.06 0 -0.08 -0.35 0 -0.33 -0.01 -0.32 -0.05 -0.31 -0.06 -0.18 -0.03 -0.16 -0.03 -0.15 -0.04 -0.15 -0.06 -0.16 -0.17 -0.16 -0.16 -0.08 -0.13 -0.06 -0.13 -0.03 -0.11 -0.02 -0.09 0 -0.08 0.03 -0.08 0.02 -0.06 0.04 -0.05 0.2 -0.15 0.16 -0.13 0.03 -0.06 0.03 -0.08 0.02 -0.07 0.01 -0.08 0 -0.17 -0.01 -0.19 -0.02 -0.19 -0.01 -0.21 0 -0.21 0.01 -0.22 -0.12 0.15 -0.08 0.14 -0.05 0.1 -0.01 0.11 0 0.11 -0.02 0.13 -0.01 0.16 -0.03 0.21 -0.26 0.09 -0.24 0.08 -0.27 0.06 -0.26 0.06 -0.56 0.08 -0.56 0.06 -0.57 0.05 -0.57 0.04 -0.56 0.03 -0.57 0.04 -0.45 0.06 -0.39 0.07 -0.18 0.05 -0.15 0.05 -0.13 0.04 -0.13 0.05 -0.11 0.06 -0.11 0.06 -0.09 0.08 -0.08 0.06 -0.06 0.08 -0.06 0.07 -0.05 0.08 -0.03 0.09 -0.06 0.18 -0.03 0.2 -0.02 0.21 0.02 0.22 0.03 0.5 0.01 0.55 0.33 0.02 0.35 0.01 0.35 0 0.33 0 0.35 0 0.33 0 0.35 0 0.35 -0.01 5.27 0.37 0.37 0.05 0.3 0.01 0.27 0 0.23 -0.03 0.24 -0.03 0.25 -0.05 0.32 -0.03 0.37 -0.03 0 -0.13 -0.01 -0.11 -0.03 -0.09 -0.01 -0.08 -0.06 -0.13 -0.03 -0.08 -0.02 -0.05 0 -0.03 0.02 -0.03 0.04 -0.05 0.12 -0.09 0.22 -0.12 0.11 -0.05 0.12 -0.03 0.12 -0.03 0.13 -0.03 0.3 -0.03 0.33 -0.01 0.3 -0.03 0.24 -0.04 0.2 -0.05 0.16 -0.06 0.12 -0.06 0.11 -0.08 0.08 -0.08 0.05 -0.06 0.11 -0.15 0.11 -0.12 0.06 -0.06 0.09 -0.05 0.12 -0.03 0.15 -0.03 0.08 0.13 0.03 0.1 0.02 0.08 0.01 0.05 0 0.06 0.05 0.05 0.08 0.08 0.12 0.11 0.13 0.07 0.09 0.03 0.08 0.01 0.04 0 0.06 0 0.08 0.05 0.11 0.08 0.15 0.13 -0.05 0.08 -0.01 0.06 -0.03 0.03 -0.05 0.05 -0.11 0.04 -0.13 0.06 -0.21 0.06 -0.22 0.03 -0.24 0.02 -0.26 0 -0.54 -0.02 -0.53 -0.03 -0.25 0 -0.24 0.01 -0.22 0.03 -0.21 0.06 -0.09 0.05 -0.08 0.04 -0.08 0.06 -0.08 0.06 -0.06 0.07 -0.05 0.09 -0.04 0.11 -0.02 0.11 0.56 0.21 0.18 0.01 0.16 0.02 0.15 0 0.16 0 0.19 0 0.15 0.03 0.12 0.03 0.12 0.02 0.09 0.03 0.12 0.03 0.12 0.03 0.15 0.02 0.22 0 0.29 -0.02 0.33 -0.05 0.36 -0.03 0.36 -0.05 0.33 -0.04 0.3 -0.03 0.21 -0.03 0.22 0 0.29 0 0.32 0.02 0.35 0.03 0.35 0.02 0.35 0.01 0.33 0.02 0.3 0 0.3 -0.03 0.3 -0.03 0.3 -0.06 0.3 -0.04 0.3 -0.06 0.3 -0.05 0.3 -0.03 0.29 0 0.37 0 0.35 0 0.32 -0.02 0.28 -0.01 0.29 -0.03 0.3 -0.03 0.29 -0.03 0.32 -0.03 0.33 -0.02 0.39 0 0.45 0 0.49 0.02 1.1 0.02 1.14 0.03 0.59 -0.02 0.56 -0.01 0.53 -0.03 0.48 -0.04 0.24 -0.03 0.21 -0.05 0.19 -0.03 0.18 -0.06 0.16 -0.06 0.15 -0.06 0.12 -0.08 0.11 -0.08 -0.13 -0.11 -0.15 -0.1 -0.15 -0.09 -0.13 -0.08 -0.15 -0.07 -0.13 -0.05 -0.13 -0.05 -0.15 -0.05 -0.27 -0.04 -0.27 -0.03 -0.25 0.01 -0.26 0.02 -0.24 0.04 -0.23 0.05 -0.21 0.05 -0.2 0.05 -0.16 0.04 -0.16 0.05 -0.13 0.02 -0.12 0 0.12 -0.26 0.12 -0.29 0.02 -0.09 0.01 -0.08 0 -0.09 0 -0.11 -0.03 -0.11 -0.03 -0.11 -0.06 -0.12 -0.08 -0.12 -0.11 -0.06 -0.09 -0.05 -0.11 -0.03 -0.09 -0.02 -0.11 -0.01 -0.09 0 -0.09 0.01 -0.09 0.02 -0.18 0.08 -0.17 0.09 -0.16 0.11 -0.15 0.13 -0.23 0.19 -0.13 0.13 -0.09 0.09 -0.08 0.04 -0.11 0.03 -0.18 0 -0.25 0.01 -0.39 0.02 0.05 0.18 0.04 0.15 0.02 0.12 0 0.11 -0.02 0.04 -0.01 0.05 -0.03 0.05 -0.05 0.04 -0.12 0.08 -0.16 0.09 -0.12 0.05 -0.13 0.03 -0.14 0.03 -0.16 0.02 -0.32 0.02 -0.33 0.01 -0.32 0 -0.25 0 -0.2 0 -0.16 -0.01 -0.11 -0.03 -0.07 -0.03 -0.03 -0.03 -0.01 -0.01 0 -0.03 -0.02 -0.03 0.02 -0.06 0.03 -0.09 0.05 -0.09 0.06 -0.09 0.06 -0.12 0.06 -0.13 0.06 -0.13 0.04 -0.16 -0.42 -0.13 -0.34 -0.09 -0.35 -0.08 -0.47 -0.09 -0.06 -0.02 -0.06 -0.02 -0.17 -0.06 -0.18 -0.08 -0.16 -0.11 -0.15 -0.11 -0.13 -0.12 -0.11 -0.11 -0.08 -0.09 -0.04 -0.06 -0.03 -0.05 -0.03 -0.03 -0.49 0.02 -0.37 -0.02 -0.14 -0.01 -0.12 -0.02 -0.09 -0.03 -0.09 -0.04 -0.08 -0.06 -0.07 -0.06 -0.06 -0.09 -0.08 -0.09 -0.16 -0.24 -0.22 -0.33 -0.37 0 -0.42 0.01 -0.24 -0.03 -0.26 -0.06 -0.13 -0.05 -0.15 -0.04 -0.15 -0.08 -0.16 -0.09 0.11 -0.12 0.09 -0.12 0.08 -0.13 0.09 -0.2z"/>
   <polygon class="fil0" points="216.92,91.88 217.04,91.82 217.1,91.81 217.16,91.76 217.28,91.64 217.43,91.69 217.53,91.75 217.61,91.79 217.67,91.84 217.73,91.88 217.82,91.91 217.92,91.94 218.09,91.97 218.36,92.02 218.7,92.03 219.11,92.05 219.57,92.05 220.62,92.05 221.76,92.02 222.9,91.99 223.97,91.97 224.87,91.97 225.51,91.99 225.56,91.48 225.57,91.04 225.56,90.65 225.53,90.29 225.48,89.93 225.42,89.56 225.36,89.17 225.3,88.73 225.3,88.51 225.3,88.3 225.32,88.1 225.35,87.92 225.42,87.53 225.47,87.14 225.47,86.9 225.45,86.71 225.42,86.53 225.39,86.36 225.36,86.2 225.33,86.03 225.3,85.85 225.3,85.64 225.29,85.25 225.29,84.89 225.3,84.52 225.35,84.08 225.36,83.98 225.39,83.86 225.42,83.77 225.45,83.68 225.5,83.59 225.54,83.53 225.6,83.47 225.66,83.42 225.72,83.41 225.78,83.39 225.86,83.39 225.93,83.41 226.01,83.45 226.08,83.51 226.17,83.59 226.26,83.69 226.35,83.83 226.43,83.98 226.49,84.14 226.53,84.32 226.55,84.52 226.58,84.71 226.58,84.91 226.56,85.12 226.53,85.54 226.47,85.94 226.38,86.32 226.29,86.63 226.28,87.05 226.28,87.41 226.31,87.73 226.34,88.03 226.38,88.31 226.41,88.6 226.46,88.91 226.47,89.26 226.47,89.62 226.46,89.93 226.44,90.23 226.43,90.53 226.41,90.83 226.41,91.15 226.43,91.52 226.47,91.94 226.94,92.02 226.86,91.81 226.8,91.6 226.76,91.4 226.73,91.19 226.68,90.76 226.68,90.32 226.7,89.89 226.7,89.44 226.7,88.99 226.65,88.55 226.62,88.27 226.61,88.01 226.59,87.79 226.59,87.56 226.62,87.13 226.65,86.74 226.71,86.35 226.76,85.94 226.79,85.51 226.8,85.03 226.82,84.64 226.82,84.37 226.8,84.17 226.79,84.04 226.76,83.92 226.7,83.78 226.62,83.6 226.53,83.35 226.49,83.21 226.47,83.02 226.44,82.79 226.44,82.52 226.43,81.88 226.43,81.16 226.41,80.78 226.4,80.41 226.37,80.02 226.34,79.66 226.28,79.3 226.22,78.95 226.13,78.65 226.02,78.37 225.29,78.49 225.26,78.67 225.24,79.01 225.21,79.48 225.18,79.99 225.15,80.53 225.14,80.99 225.12,81.37 225.12,81.58 225.14,82.07 225.11,82.37 225.08,82.57 225.03,82.72 224.97,82.9 224.91,83.17 224.85,83.63 224.79,84.35 224.69,84.23 224.63,84.17 224.6,84.13 224.6,84.1 224.6,84.07 224.58,84.02 224.57,83.98 224.51,83.89 224.42,83.72 224.39,83.66 224.33,83.62 224.16,83.57 224.07,83.72 224.01,83.87 223.97,84.02 223.94,84.19 223.92,84.35 223.92,84.53 223.94,84.71 223.95,84.89 224,85.27 224.04,85.66 224.06,85.85 224.07,86.06 224.09,86.27 224.09,86.48 223.79,89.12 223.74,89.26 223.71,89.32 223.68,89.36 223.62,89.44 223.43,89.44 223.28,89.44 223.14,89.44 223.05,89.41 222.99,89.39 222.95,89.36 222.92,89.32 222.9,89.27 222.9,89.15 222.9,88.99 222.89,88.9 222.87,88.78 222.83,88.66 222.77,88.52 222.24,88.54 222.23,88.79 222.23,88.99 222.26,89.15 222.27,89.29 222.32,89.38 222.36,89.45 222.41,89.51 222.44,89.54 222.48,89.57 222.51,89.6 222.53,89.63 222.53,89.68 222.51,89.74 222.48,89.81 222.41,89.92 222.33,90.07 222.3,90.1 222.27,90.14 222.15,90.34 222.08,90.49 222.05,90.62 222.05,90.77 222.08,91.18 222.11,91.87 219.17,91.78 218.79,82.28 218.75,82.1 218.69,82 218.66,81.95 218.63,81.92 218.58,81.89 218.54,81.88 218.3,81.86 217.97,81.86 217.55,80.93 216.9,80.95 216.83,81.07 216.77,81.2 216.71,81.34 216.66,81.46 216.59,81.71 216.54,81.97 216.53,82.22 216.53,82.46 216.54,82.7 216.59,82.94 216.68,83.44 216.77,83.92 216.81,84.16 216.86,84.4 216.87,84.64 216.89,84.89 216.89,85.24 216.89,85.6 216.89,85.76 216.87,85.93 216.84,86.08 216.81,86.23 216.75,86.45 216.71,86.65 216.68,86.81 216.66,86.95 216.65,87.08 216.65,87.2 216.66,87.31 216.68,87.41 216.72,87.65 216.78,87.95 216.84,88.34 216.89,88.87 216.89,89.24 216.89,89.62 216.89,90.01 216.87,90.38 216.87,90.76 216.87,91.13 216.89,91.51 "/>
   <polygon class="fil0" points="178.81,71.04 179.05,70.94 179.19,70.85 179.28,70.8 179.35,70.76 179.43,70.74 179.56,70.71 179.77,70.7 180.09,70.68 180.27,70.65 180.4,70.64 180.48,70.61 180.52,70.6 180.57,70.56 180.61,70.53 180.64,70.49 180.67,70.44 180.69,70.38 180.7,70.32 180.7,70.17 180.69,69.98 180.37,69.92 180.21,69.9 180.15,69.92 180.07,69.95 179.98,70.01 179.85,70.08 179.62,70.2 179.37,70.32 179.1,70.44 178.81,70.56 178.51,70.65 178.2,70.73 177.85,70.77 177.51,70.8 177.51,71.04 177.48,71.22 177.45,71.31 177.42,71.39 177.37,71.46 177.31,71.56 175.8,71.43 175.86,71.16 175.89,71.01 175.92,70.97 175.93,70.95 175.95,70.95 175.96,70.95 175.99,70.97 176.04,70.97 176.05,70.95 176.1,70.92 176.13,70.88 176.17,70.8 176.02,70.61 175.89,70.41 175.59,70.4 175.29,70.38 175,70.38 174.7,70.4 174.42,70.41 174.13,70.44 173.86,70.47 173.61,70.5 173.04,70.56 172.5,70.61 171.96,70.64 171.39,70.68 168.67,70.97 168.58,71.01 168.51,71.06 168.45,71.12 168.39,71.18 168.3,71.3 168.22,71.45 168.13,71.76 168.07,72.08 167.91,72.05 167.79,72 167.68,71.97 167.61,71.93 167.49,71.86 167.38,71.78 167.32,71.75 167.26,71.72 167.2,71.69 167.11,71.67 166.99,71.66 166.86,71.66 166.69,71.67 166.48,71.69 166.35,72.04 166.24,72.27 166.2,72.32 166.15,72.37 166.09,72.41 166.02,72.44 165.82,72.48 165.54,72.53 165.18,72.55 164.79,72.53 164.41,72.53 164.02,72.53 164.01,72.72 163.99,72.87 163.99,73.01 164.01,73.12 164.04,73.19 164.07,73.27 164.13,73.31 164.19,73.36 164.65,73.51 165.49,73.78 165.64,73.84 165.78,73.87 165.93,73.89 166.06,73.91 166.35,73.92 166.65,73.89 166.93,73.87 167.25,73.84 167.56,73.81 167.91,73.79 168.85,73.78 169.66,73.75 170.37,73.69 170.98,73.61 171.54,73.55 172.03,73.49 172.51,73.44 172.99,73.43 173.02,73.04 173.05,72.77 173.08,72.66 173.11,72.59 173.13,72.53 173.16,72.5 173.2,72.47 173.23,72.45 173.26,72.44 173.31,72.44 173.38,72.44 173.47,72.42 173.65,72.55 173.74,72.65 173.77,72.69 173.79,72.72 173.79,72.77 173.79,72.8 173.77,72.89 173.77,73 173.77,73.07 173.79,73.14 173.82,73.24 173.86,73.33 174.18,73.43 174.31,73.48 174.45,73.46 174.76,73.34 174.94,73.3 175.11,73.25 175.27,73.24 175.42,73.22 175.71,73.2 175.98,73.19 176.11,73.17 176.25,73.16 176.37,73.12 176.49,73.07 176.61,73.01 176.74,72.92 176.86,72.8 176.98,72.66 177.15,72.42 177.64,72.42 178.05,72.41 178.38,72.39 178.63,72.38 178.83,72.35 178.96,72.31 179.02,72.27 179.05,72.26 179.08,72.23 179.1,72.18 179.11,72.11 179.1,72.02 179.05,71.9 179.01,71.78 178.95,71.63 178.9,71.46 178.86,71.27 "/>
   <polygon class="fil0" points="162.55,46.68 162.55,46.92 162.54,47.13 162.51,47.24 162.48,47.33 162.43,47.4 162.39,47.49 162.33,47.55 162.27,47.63 162.19,47.67 162.12,47.73 162.03,47.76 161.92,47.81 161.8,47.82 161.68,47.85 161.34,47.88 160.93,47.94 160.71,47.97 160.48,48.03 160.24,48.12 160,48.21 159.96,48.45 159.96,48.63 159.96,48.77 159.99,48.87 160.02,48.96 160.06,49.01 160.11,49.07 160.15,49.1 160.21,49.16 160.24,49.2 160.29,49.29 160.3,49.4 160.32,49.53 160.3,49.71 160.27,49.94 160.21,50.22 160.17,50.48 160.15,50.66 160.17,50.81 160.18,50.93 160.21,51.05 160.24,51.17 160.24,51.32 160.24,51.53 160.21,51.71 160.17,51.83 160.12,51.9 160.06,51.96 159.99,52.04 159.91,52.13 159.84,52.25 159.73,52.44 159.9,52.4 159.94,52.38 160,52.37 160.17,52.26 160.29,52.19 160.32,52.17 160.33,52.14 160.47,52.02 160.6,51.9 160.74,51.78 160.86,51.65 160.98,51.53 160.77,51.3 160.62,51.14 160.56,51.05 160.53,50.91 160.51,50.73 160.5,50.48 160.87,50.3 161.1,50.21 161.22,50.19 161.35,50.21 161.55,50.25 161.8,50.33 161.62,49.01 161.89,49.01 162.01,49.01 162.07,48.96 162.19,48.89 162.22,48.51 162.27,48.23 162.3,48.12 162.34,48.03 162.39,47.96 162.45,47.9 162.52,47.85 162.6,47.82 162.7,47.81 162.82,47.79 163.12,47.78 163.5,47.78 163.53,47.52 163.59,47.31 163.63,47.22 163.68,47.13 163.74,47.07 163.8,47 163.86,46.94 163.93,46.89 164.02,46.85 164.13,46.82 164.22,46.8 164.34,46.77 164.46,46.77 164.61,46.76 164.61,47.13 164.61,47.48 164.62,47.64 164.64,47.81 164.68,47.94 164.73,48.08 164.89,48.02 165,47.99 165.03,47.96 165.06,47.94 165.09,47.91 165.1,47.88 165.12,47.79 165.12,47.67 165.12,47.52 165.12,47.3 165.1,46.92 165.09,46.64 165.09,46.52 165.12,46.38 165.16,46.23 165.22,46.07 165.42,46.11 165.54,46.16 165.6,46.19 165.63,46.23 165.66,46.31 165.72,46.43 165.84,46.61 166.05,46.86 166.21,46.8 166.3,46.76 166.36,46.73 166.39,46.7 166.44,46.67 166.51,46.64 166.63,46.62 166.84,46.59 167.08,46.58 167.32,46.58 167.58,46.58 167.83,46.56 167.88,46.46 167.94,46.34 167.97,46.22 168.01,46.08 168.07,45.78 168.12,45.47 168.18,44.73 168.21,43.95 168.24,43.14 168.3,42.35 168.34,41.96 168.4,41.6 168.48,41.25 168.58,40.94 169.38,40.92 169.38,41.19 169.38,41.4 169.35,41.57 169.32,41.67 169.29,41.73 169.24,41.78 169.18,41.79 169.14,41.79 169.08,41.79 169.02,41.81 168.97,41.82 168.93,41.87 168.88,41.94 168.84,42.06 168.81,42.23 168.79,42.45 168.9,42.38 168.94,42.36 168.96,42.38 168.96,42.41 168.97,42.39 169.09,42.15 169.27,42.24 169.29,42.24 169.27,42.26 169.29,42.29 169.33,42.35 169.44,42.44 169.57,42.59 169.6,42.63 169.66,42.68 169.89,42.81 169.69,41.97 169.87,42.03 170.1,42.15 170.35,42.3 170.65,42.45 170.8,42.54 170.95,42.62 171.13,42.68 171.3,42.74 171.46,42.8 171.64,42.83 171.82,42.86 172,42.86 171.88,42.75 171.78,42.66 171.67,42.59 171.58,42.54 171.4,42.45 171.22,42.36 171.13,42.32 171.04,42.26 170.94,42.2 170.85,42.11 170.74,41.99 170.62,41.85 170.5,41.7 170.38,41.51 170.22,41.24 170.05,41.03 169.92,40.86 169.8,40.73 169.68,40.62 169.59,40.55 169.5,40.49 169.41,40.44 169.27,40.4 169.15,40.37 169.11,40.34 169.06,40.29 169.02,40.23 168.97,40.14 168.96,39.95 168.97,39.77 168.99,39.6 169.02,39.45 169.11,39.18 169.2,38.91 169.24,38.78 169.27,38.63 169.29,38.48 169.29,38.33 169.27,38.15 169.24,37.95 169.18,37.73 169.09,37.49 169.05,37.34 169.02,37.17 168.99,37.01 168.97,36.83 168.97,36.45 168.99,36.08 168.99,35.7 168.99,35.34 168.96,35.18 168.93,35.01 168.9,34.86 168.84,34.71 168.78,34.79 168.75,34.86 168.72,34.94 168.7,35 168.69,35.15 168.67,35.3 168.67,35.45 168.67,35.63 168.66,35.84 168.6,36.08 168.51,36.42 168.45,36.71 168.43,36.86 168.42,37.04 168.42,37.23 168.43,37.49 168.46,37.83 168.48,38.16 168.48,38.45 168.48,38.73 168.45,39.23 168.39,39.68 168.31,40.11 168.22,40.55 168.12,41.01 168.01,41.54 167.98,41.7 167.97,41.87 167.97,42.05 167.97,42.24 167.95,42.63 167.92,43.02 167.89,43.4 167.88,43.79 167.86,44.18 167.88,44.55 167.86,44.94 167.85,45.3 167.85,45.47 167.82,45.65 167.79,45.8 167.76,45.96 167.49,46.04 167.26,46.1 167.07,46.13 166.9,46.13 166.75,46.13 166.63,46.1 166.53,46.05 166.45,46.01 166.38,45.93 166.33,45.87 166.29,45.78 166.26,45.71 166.2,45.53 166.14,45.36 165.85,45.33 165.66,45.29 165.51,45.26 165.39,45.21 165.28,45.17 165.18,45.12 165.04,45.09 164.86,45.08 164.73,45.17 164.64,45.24 164.55,45.32 164.49,45.39 164.44,45.47 164.41,45.53 164.4,45.6 164.38,45.66 164.37,45.8 164.34,45.95 164.31,46.04 164.28,46.13 164.22,46.22 164.16,46.32 164.08,46.4 164.02,46.46 163.93,46.5 163.84,46.55 163.65,46.61 163.44,46.64 162.99,46.65 "/>
   <polygon class="fil0" points="210.89,60.06 211.37,59.99 211.79,59.96 211.97,59.96 212.15,59.96 212.3,59.97 212.43,60 212.57,60.05 212.69,60.11 212.79,60.18 212.88,60.29 212.96,60.39 213.03,60.53 213.11,60.68 213.15,60.86 213.2,61.01 213.21,61.08 213.21,61.14 213.2,61.31 213.17,61.52 213.14,61.61 213.09,61.64 212.97,61.67 212.39,61.76 212.06,61.79 211.82,61.8 211.65,61.83 211.5,61.83 211.35,61.85 211.14,61.85 210.87,61.83 210.48,61.8 210.89,62.48 210.41,62.39 210.03,62.34 209.96,62.36 209.88,62.39 209.81,62.43 209.75,62.51 209.68,62.6 209.61,62.7 209.57,62.85 209.51,63.02 209.64,62.94 209.81,62.84 209.9,62.79 210,62.75 210.11,62.72 210.23,62.72 210.38,62.73 210.47,62.75 210.51,62.78 210.54,62.81 210.6,62.82 210.68,62.84 210.84,62.84 211.08,62.81 211.64,62.78 212.18,62.78 212.72,62.76 213.27,62.75 213.27,62.58 213.27,62.43 213.29,62.33 213.33,62.24 213.36,62.21 213.39,62.19 213.45,62.18 213.51,62.18 213.68,62.19 213.92,62.25 214.02,62.28 214.11,62.34 214.2,62.4 214.29,62.48 214.46,62.64 214.59,62.82 214.68,62.96 214.77,63.09 214.83,63.23 214.89,63.36 214.97,63.6 215.01,63.83 215.04,64.05 215.09,64.28 215.1,64.38 215.13,64.49 215.18,64.59 215.22,64.7 215.31,64.83 215.37,64.91 215.43,64.95 215.49,64.97 215.55,65 215.61,65.06 215.69,65.16 215.78,65.34 215.9,65.66 216.02,66.02 216.15,66.39 216.3,66.75 216.38,66.93 216.47,67.08 216.56,67.23 216.66,67.37 216.77,67.47 216.87,67.56 216.95,67.59 217.01,67.62 217.07,67.64 217.14,67.65 217.23,67.5 217.28,67.38 217.29,67.26 217.29,67.16 217.26,67.04 217.23,66.89 217.22,66.74 217.2,66.54 217.41,66.65 217.62,66.77 217.83,66.9 218.06,67.05 218.51,67.35 218.91,67.64 219,67.68 219.12,67.73 219.26,67.77 219.41,67.82 219.77,67.89 220.16,67.97 220.56,68.03 220.95,68.07 221.31,68.1 221.58,68.1 221.51,68.01 221.49,67.98 221.46,67.97 221.33,67.88 221.21,67.82 221.09,67.77 220.98,67.73 220.86,67.71 220.64,67.67 220.38,67.61 219.74,67.41 219.23,67.23 219,67.14 218.82,67.05 218.64,66.98 218.51,66.89 218.37,66.81 218.27,66.72 218.18,66.65 218.1,66.56 218.03,66.48 217.98,66.41 217.94,66.33 217.91,66.24 217.79,65.93 217.65,65.58 217.61,65.49 217.55,65.4 217.47,65.31 217.38,65.21 217.28,65.12 217.16,65.01 217.01,64.91 216.84,64.8 216.69,64.71 216.59,64.65 216.5,64.61 216.35,64.5 216.15,64.29 215.97,64.08 215.75,63.84 215.57,63.63 215.42,63.44 215.3,63.29 215.22,63.14 215.16,63.02 215.13,62.93 215.12,62.82 215.13,62.75 215.16,62.66 215.21,62.58 215.27,62.51 215.43,62.33 215.64,62.09 214.67,62.24 214.53,62.06 214.44,61.95 214.37,61.85 214.26,61.65 214.17,61.43 214.14,61.28 214.13,61.19 214.13,61.11 214.1,61.04 214.02,60.92 213.89,60.74 213.65,60.45 213.54,60.32 213.45,60.18 213.39,60.06 213.35,59.94 213.33,59.82 213.32,59.7 213.3,59.58 213.32,59.45 213.33,59.13 213.35,58.76 213.35,58.55 213.33,58.31 213.3,58.04 213.27,57.75 213.2,57.09 213.18,56.66 213.15,56.49 213.11,56.34 213.06,56.28 213.02,56.21 212.96,56.15 212.88,56.09 212.93,56.43 212.96,56.79 213,57.18 213.02,57.57 213.05,57.96 213.05,58.34 213.03,58.71 212.99,59.04 212.84,59.13 212.69,59.21 212.54,59.25 212.39,59.3 212.09,59.37 211.8,59.42 211.67,59.45 211.53,59.49 211.41,59.54 211.29,59.6 211.17,59.69 211.08,59.78 210.98,59.91 "/>
   <polygon class="fil0" points="206.85,51.6 207.1,51.63 207.3,51.65 207.48,51.65 207.63,51.63 207.86,51.57 208.03,51.53 208.11,51.51 208.2,51.5 208.28,51.51 208.37,51.54 208.48,51.6 208.61,51.68 208.76,51.8 208.92,51.95 209.16,52.14 209.39,52.31 209.6,52.43 209.79,52.52 209.97,52.58 210.14,52.59 210.27,52.59 210.41,52.55 210.53,52.49 210.65,52.4 210.74,52.29 210.83,52.17 210.9,52.02 210.98,51.86 211.04,51.68 211.08,51.5 211.17,51.11 211.25,50.69 211.31,50.28 211.35,49.88 211.4,49.5 211.46,49.19 211.49,49.05 211.52,48.95 211.56,48.84 211.61,48.78 211.5,48.75 211.37,48.74 211.23,48.74 211.1,48.74 210.96,48.75 210.81,48.75 210.69,48.74 210.57,48.71 210.45,48.65 210.26,48.53 210.14,48.47 210,48.39 209.85,48.33 209.68,48.27 209.52,48.21 209.34,48.18 209.15,48.15 208.95,48.15 208.74,48.18 208.53,48.24 208.42,48.27 208.32,48.32 208.2,48.38 208.1,48.44 207.89,48.6 207.7,48.74 207.55,48.89 207.45,49.04 207.36,49.17 207.3,49.31 207.27,49.44 207.25,49.56 207.28,50.04 207.35,50.46 207.33,50.52 207.32,50.58 207.28,50.66 207.25,50.72 207.18,50.85 207.09,51 207,51.14 206.91,51.29 206.9,51.36 206.87,51.44 206.85,51.51 "/>
   <polygon class="fil0" points="231.44,85.69 231.36,85.24 231.3,84.79 231.29,84.55 231.27,84.31 231.26,84.07 231.27,83.83 231.29,83.54 231.32,83.36 231.36,83.23 231.41,83.11 231.45,83 231.5,82.87 231.53,82.67 231.54,82.39 231.54,81.94 231.53,81.5 231.5,81.08 231.47,80.68 231.45,80.26 231.44,79.84 231.44,79.39 231.47,78.94 231.38,78.98 231.32,79.04 231.26,79.1 231.21,79.15 231.15,79.25 231.12,79.36 231.12,79.46 231.11,79.57 231.08,79.69 231.03,79.82 230.88,79.43 230.82,79.25 230.79,79.22 230.75,79.19 230.7,79.18 230.64,79.16 230.45,79.12 230.16,79.07 230.01,78.98 229.92,78.97 229.89,78.97 229.89,78.98 229.86,78.95 229.71,78.68 229.62,78.77 229.56,78.85 229.5,78.92 229.47,79 229.46,79.06 229.46,79.12 229.46,79.18 229.47,79.24 229.5,79.37 229.52,79.55 229.52,79.66 229.52,79.78 229.49,79.91 229.44,80.06 229.37,80.26 229.29,80.44 229.2,80.59 229.11,80.75 229.04,80.92 228.96,81.11 228.92,81.32 228.89,81.58 229.01,81.68 229.11,81.76 229.19,81.79 229.25,81.83 229.29,81.88 229.34,81.94 229.38,82.06 229.44,82.24 229.26,82.33 229.14,82.36 229.07,82.36 229.02,82.36 228.99,82.36 228.96,82.39 228.9,82.48 228.83,82.64 228.87,82.73 228.9,82.81 228.95,82.85 228.99,82.9 229.08,82.97 229.17,83 229.29,83.03 229.43,83.08 229.59,83.14 229.79,83.24 229.92,83.32 230.03,83.41 230.1,83.48 230.16,83.54 230.19,83.62 230.21,83.68 230.21,83.74 230.19,83.81 230.04,84.1 229.88,84.49 230.16,84.94 230.3,85.1 230.37,85.15 230.51,85.19 230.58,85.1 230.66,85.01 230.7,84.94 230.75,84.85 230.81,84.7 230.84,84.55 230.87,84.38 230.9,84.23 230.96,84.05 231.03,83.87 231.03,84.22 231.02,84.59 231.02,84.79 231.03,84.97 231.08,85.15 231.12,85.3 231.18,85.45 231.2,85.52 231.2,85.57 231.18,85.6 231.23,85.61 "/>
   <path class="fil0" d="M162.7 54.05l0.09 -0.09 0.11 -0.11 0.12 -0.08 0.15 -0.09 0.15 -0.08 0.16 -0.06 0.18 -0.06 0.18 -0.04 0.38 -0.09 0.37 -0.06 0.36 -0.03 0.32 0 0.03 0.15 0.03 0.11 0.03 0.11 -0.01 0.09 -0.05 0.09 -0.09 0.12 -0.16 0.15 -0.23 0.2 -0.11 0.09 -0.09 0.06 -0.06 0.03 -0.08 0 -0.06 0 -0.04 -0.03 -0.08 -0.03 -0.08 -0.04 -0.09 -0.06 -0.11 -0.04 -0.13 -0.06 -0.16 -0.05 -0.2 -0.05 -0.24 -0.03 -0.27 -0.02 -0.33 0zm-0.23 0.26l0.21 0 0.23 -0.02 0.21 -0.01 0.16 0 0.16 0.03 0.12 0.02 0.07 0.03 0.06 0.03 0.03 0.04 0.04 0.08 0.03 0.09 0.05 0.12 -0.08 0.09 -0.01 0.03 -0.03 0.03 -0.13 0.06 -0.11 0.05 -0.09 0.03 -0.09 0.03 -0.09 0.01 -0.18 0.02 -0.17 -0.02 -0.33 -0.09 -0.33 -0.09 -0.16 0.12 -0.15 0.15 -0.16 0.15 -0.13 0.18 -0.06 0.09 -0.06 0.11 -0.05 0.11 -0.04 0.1 -0.03 0.12 -0.03 0.13 0 0.12 0 0.15 4.08 0.19 0 -0.22 -0.03 -0.16 -0.03 -0.13 -0.04 -0.12 -0.06 -0.11 -0.04 -0.13 -0.06 -0.13 -0.05 -0.19 0.7 -0.42 0.24 -0.05 0.24 -0.01 0.26 0.01 0.24 0 0.01 -0.35 -0.01 -0.11 -0.06 -0.04 -0.09 -0.15 -0.12 -0.22 -0.12 -0.23 -0.08 -0.1 -0.07 -0.09 -0.09 -0.11 -0.07 -0.09 -0.11 -0.08 -0.11 -0.08 -0.12 -0.08 -0.12 -0.06 -0.15 -0.05 -0.15 -0.04 -0.16 -0.02 -0.18 -0.02 -0.16 0 -0.19 0.03 -0.2 0.03 -0.19 0.04 -0.4 0.11 -0.39 0.1 -0.22 0.05 -0.21 0.05 -0.09 0.01 -0.08 0.03 -0.08 0.05 -0.06 0.03 -0.06 0.06 -0.05 0.06 -0.05 0.06 -0.03 0.09 -0.02 0.11 -0.01 0.11 -0.02 0.13 0 0.15z"/>
   <polygon class="fil0" points="171.75,39.8 172.09,39.93 172.32,40.04 172.41,40.08 172.47,40.13 172.51,40.17 172.54,40.23 172.59,40.53 172.66,41.13 172.71,41.31 172.78,41.52 172.87,41.72 172.95,41.84 173.04,41.94 173.1,42.02 173.17,42.08 173.23,42.11 173.32,42.14 173.41,42.15 173.55,42.15 173.73,42.14 173.8,42.06 173.86,42 173.91,41.96 173.95,41.93 174.03,41.91 174.12,41.9 174.16,41.87 174.21,41.84 174.27,41.79 174.34,41.73 174.42,41.64 174.52,41.51 174.63,41.36 174.75,41.16 174.84,41.04 174.91,40.94 174.99,40.86 175.05,40.8 175.2,40.71 175.33,40.64 175.47,40.58 175.62,40.49 175.69,40.43 175.78,40.35 175.86,40.26 175.95,40.14 175.89,39.98 175.81,39.86 175.74,39.77 175.63,39.72 175.39,39.63 175.03,39.5 175.05,39.41 175.05,39.33 175.03,39.24 175.02,39.17 174.99,39.08 174.94,39 174.9,38.93 174.84,38.87 174.72,38.73 174.55,38.6 174.39,38.49 174.19,38.4 173.98,38.33 173.77,38.28 173.56,38.25 173.35,38.24 173.14,38.27 172.95,38.31 172.86,38.34 172.77,38.39 172.69,38.43 172.6,38.49 172.57,38.63 172.53,38.76 172.45,38.88 172.38,39 172.32,39.05 172.26,39.11 172.18,39.15 172.09,39.2 171.88,39.29 171.63,39.35 "/>
   <polygon class="fil0" points="186.48,47.24 186.63,47.27 186.79,47.3 187.26,47.36 187.26,46.89 187.62,46.61 187.93,46.32 188.2,46.05 188.43,45.78 188.62,45.53 188.79,45.29 188.91,45.05 189,44.82 189.06,44.6 189.09,44.39 189.1,44.19 189.09,44.01 189.04,43.83 188.97,43.68 188.89,43.53 188.79,43.4 188.67,43.26 188.53,43.16 188.38,43.05 188.22,42.98 188.05,42.9 187.87,42.86 187.69,42.81 187.51,42.78 187.32,42.78 187.14,42.78 186.94,42.81 186.76,42.86 186.58,42.92 186.4,42.99 186.24,43.08 186.09,43.19 186.12,43.34 186.15,43.44 186.16,43.52 186.19,43.58 186.22,43.61 186.25,43.62 186.28,43.64 186.31,43.64 186.33,43.64 186.36,43.64 186.37,43.65 186.39,43.67 186.42,43.77 186.42,43.97 186.42,44.06 186.39,44.15 186.36,44.22 186.31,44.3 186.27,44.37 186.22,44.45 186.18,44.54 186.15,44.66 186.13,44.78 186.13,44.94 186.16,45.14 186.21,45.36 186.28,45.63 186.4,45.96 186.55,46.34 186.75,46.76 186.67,46.94 186.63,47.01 186.58,47.09 "/>
   <path class="fil0" d="M166.05 49.29l0.05 0.27 0 0.01 -0.03 -0.01 -0.02 -0.03 -0.03 0 -0.01 0 -0.02 0.03 -0.01 0.03 -0.21 0.06 -0.09 0.03 -0.03 0 -0.03 -0.03 -0.06 -0.01 -0.13 -0.03 -0.27 0 -0.45 0.03 -0.13 0 -0.15 -0.02 -0.13 -0.03 -0.12 -0.05 -0.25 -0.12 -0.23 -0.15 0.03 -0.06 0.04 -0.06 0.06 -0.05 0.06 -0.05 0.13 -0.09 0.16 -0.09 0.16 -0.06 0.2 -0.04 0.19 -0.03 0.19 -0.02 0.2 0 0.19 0.03 0.18 0.03 0.16 0.06 0.08 0.03 0.06 0.04 0.06 0.05 0.06 0.06 0.05 0.05 0.03 0.08 0.03 0.06 0.03 0.08zm-2.91 -0.29l-0.13 -0.13 -0.06 -0.09 -0.03 -0.08 -0.02 -0.03 -0.02 -0.03 -0.07 -0.02 -0.12 -0.02 -0.24 -0.03 0.4 2.43 0.17 0.06 0.13 0.03 0.13 0.02 0.11 0 0.12 -0.02 0.11 -0.03 0.13 -0.06 0.15 -0.06 0.63 -0.19 0.16 -0.03 0.15 0 0.12 0 0.11 0.02 0.16 0.06 0.13 0.08 0.08 0.03 0.08 0.04 0.09 0.03 0.11 0.03 0.12 0.03 0.17 0.01 0.18 0 0.21 0 0.66 -0.86 -0.15 -0.09 -0.16 -0.08 -0.09 -0.05 -0.08 -0.04 -0.08 -0.06 -0.06 -0.07 -0.13 0.1 0.01 0 0.03 -0.01 0.05 -0.05 0.03 -0.09 0.03 -0.11 0.01 -0.16 0 -0.09 -0.01 -0.1 -0.03 -0.12 -0.03 -0.13 -0.11 -0.26 -0.04 -0.13 -0.03 -0.08 0 -0.11 0 -0.16 0 -0.25 -0.29 0.13 -0.21 0.08 -0.15 0.04 -0.15 0 -0.35 -0.01 -0.62 0 -0.15 0 -0.13 0.01 -0.11 0.02 -0.09 0.03 -0.09 0.03 -0.06 0.03 -0.06 0.05 -0.06 0.04 -0.11 0.11 -0.12 0.12 -0.15 0.13 -0.19 0.13z"/>
   <polygon class="fil0" points="127.19,69.47 127.12,69.32 127.06,69.21 126.98,69.14 126.92,69.08 126.77,68.97 126.55,68.79 126.47,68.72 126.41,68.63 126.35,68.54 126.31,68.45 126.22,68.24 126.14,68.04 126.04,67.77 125.87,67.49 125.68,67.17 125.47,66.86 125.23,66.57 125.02,66.32 124.81,66.11 124.63,65.96 124.42,65.82 124.25,65.67 124.12,65.54 124,65.4 123.82,65.13 123.67,64.89 123.61,64.79 123.53,64.68 123.44,64.58 123.34,64.5 123.2,64.41 123.05,64.35 122.87,64.29 122.65,64.25 122.78,64.44 122.87,64.55 122.98,64.62 123.14,64.77 123.14,64.89 123.11,65 123.08,65.09 123.05,65.15 122.99,65.27 122.93,65.36 122.92,65.4 122.9,65.45 122.89,65.49 122.89,65.55 122.9,65.63 122.93,65.72 122.98,65.82 123.04,65.94 123.28,66.44 123.44,66.77 123.56,66.99 123.65,67.13 123.71,67.17 123.76,67.2 123.82,67.23 123.88,67.25 124.06,67.28 124.31,67.34 124.52,67.38 124.67,67.41 124.73,67.43 124.78,67.44 124.81,67.49 124.84,67.53 124.85,67.61 124.87,67.71 124.88,67.83 124.88,68.01 124.87,68.46 124.87,69.14 126.47,69.96 126.61,69.92 126.68,69.92 126.74,69.93 126.76,69.93 126.76,69.83 126.76,69.42 "/>
   <polygon class="fil0" points="193.14,68.87 193.12,69.09 193.12,69.3 193.14,69.51 193.15,69.71 193.17,69.9 193.17,70.07 193.15,70.14 193.14,70.22 193.11,70.29 193.08,70.35 192.91,70.49 192.72,70.64 192.67,70.68 192.66,70.74 192.63,70.82 192.63,70.89 192.64,70.98 192.67,71.09 192.73,71.22 192.81,71.36 192.97,71.52 193.14,71.69 193.29,71.75 193.44,71.79 193.6,71.83 193.78,71.86 194.1,71.91 194.41,71.96 194.74,71.97 195.09,71.97 195.28,72.04 195.45,72.08 195.58,72.1 195.7,72.1 195.81,72.08 195.9,72.04 195.96,71.99 196,71.91 196.03,71.83 196.06,71.73 196.06,71.62 196.06,71.49 196.03,71.24 195.96,70.97 195.78,70.89 195.63,70.85 195.51,70.83 195.4,70.85 195.3,70.88 195.22,70.91 195.16,70.95 195.12,71 195.07,71.04 195.03,71.08 194.98,71.09 194.94,71.09 194.91,71.04 194.85,70.98 194.79,70.88 194.73,70.73 194.77,70.67 194.82,70.63 194.88,70.58 194.94,70.53 195.1,70.47 195.28,70.43 195.48,70.4 195.7,70.38 195.94,70.37 196.18,70.37 196.69,70.37 197.2,70.37 197.46,70.35 197.7,70.34 197.92,70.31 198.13,70.25 198.18,70.19 197.91,70.17 197.61,70.17 197.28,70.16 196.93,70.16 196.6,70.16 196.29,70.16 195.99,70.17 195.73,70.2 195.15,70.28 194.65,70.34 194.41,70.34 194.16,70.32 193.87,70.29 193.54,70.22 193.47,70.02 193.41,69.84 193.38,69.68 193.35,69.5 193.33,69.33 193.35,69.15 193.36,68.96 193.38,68.73 193.27,68.78 193.23,68.78 193.2,68.79 "/>
   <polygon class="fil0" points="210.48,61.8 210.87,61.83 211.14,61.85 211.35,61.85 211.5,61.83 211.65,61.83 211.82,61.8 212.06,61.79 212.39,61.76 212.97,61.67 213.09,61.64 213.14,61.61 213.17,61.52 213.2,61.31 213.21,61.14 213.21,61.08 213.2,61.01 213.15,60.86 213.11,60.68 213.03,60.53 212.96,60.39 212.88,60.29 212.79,60.18 212.69,60.11 212.57,60.05 212.43,60 212.3,59.97 212.15,59.96 211.97,59.96 211.79,59.96 211.37,59.99 210.89,60.06 210.78,60.09 210.68,60.15 210.57,60.21 210.5,60.3 210.42,60.39 210.35,60.51 210.3,60.65 210.26,60.81 210.24,60.95 210.23,61.07 210.24,61.2 210.26,61.34 210.29,61.46 210.33,61.58 210.41,61.7 "/>
   <polygon class="fil0" points="195.09,71.97 195.09,72.05 195.1,72.11 195.13,72.17 195.18,72.21 195.24,72.26 195.33,72.29 195.42,72.32 195.52,72.35 195.76,72.38 196.03,72.38 196.33,72.38 196.63,72.35 196.96,72.31 197.28,72.24 197.58,72.18 197.86,72.11 198.12,72.04 198.33,71.94 198.51,71.87 198.61,71.79 198.72,71.69 198.79,71.64 198.84,71.63 198.85,71.64 198.87,71.57 198.9,71.25 198.22,71.08 197.61,71.09 197.01,71.11 196.87,71.09 196.74,71.06 196.62,71.03 196.48,70.98 196.36,70.91 196.26,70.83 196.15,70.73 196.06,70.6 196.18,70.55 196.29,70.52 196.41,70.49 196.51,70.49 196.74,70.47 196.95,70.49 197.17,70.49 197.38,70.5 197.49,70.49 197.59,70.49 197.7,70.46 197.8,70.43 197.95,70.4 198,70.37 198.04,70.34 198.13,70.25 197.92,70.31 197.7,70.34 197.46,70.35 197.2,70.37 196.69,70.37 196.18,70.37 195.94,70.37 195.7,70.38 195.48,70.4 195.28,70.43 195.1,70.47 194.94,70.53 194.88,70.58 194.82,70.63 194.77,70.67 194.73,70.73 194.79,70.88 194.85,70.98 194.91,71.04 194.94,71.09 194.98,71.09 195.03,71.08 195.07,71.04 195.12,71 195.16,70.95 195.22,70.91 195.3,70.88 195.4,70.85 195.51,70.83 195.63,70.85 195.78,70.89 195.96,70.97 196.03,71.24 196.06,71.49 196.06,71.62 196.06,71.73 196.03,71.83 196,71.91 195.96,71.99 195.9,72.04 195.81,72.08 195.7,72.1 195.58,72.1 195.45,72.08 195.28,72.04 "/>
   <polygon class="fil0" points="176.74,63.54 176.92,63.35 176.98,63.27 177.01,63.2 177.04,62.91 176.92,62.84 176.82,62.79 176.73,62.76 176.62,62.75 176.46,62.72 176.29,62.67 176.2,62.61 176.11,62.55 176.02,62.45 175.93,62.31 175.84,62.13 175.74,61.91 175.62,61.62 175.5,61.28 175.33,60.77 175.09,60.14 175.03,59.99 174.96,59.84 174.88,59.69 174.79,59.57 174.7,59.45 174.61,59.36 174.51,59.27 174.4,59.22 174.39,59.49 174.4,59.81 174.42,60.14 174.45,60.5 174.51,60.86 174.58,61.23 174.69,61.59 174.81,61.95 174.88,62.13 174.96,62.3 175.03,62.45 175.12,62.6 175.21,62.75 175.32,62.88 175.42,63 175.54,63.12 175.66,63.23 175.8,63.32 175.93,63.39 176.08,63.45 176.23,63.5 176.4,63.53 176.58,63.54 "/>
   <polygon class="fil0" points="222.45,74.59 222.51,74.72 222.57,74.86 222.6,74.88 222.65,74.93 222.71,74.96 222.78,74.99 222.96,75.05 223.23,75.1 223.59,75.13 224.1,75.14 224.69,75.14 225.3,75.11 225.89,75.08 226.41,75.05 226.8,75.01 227.03,74.96 227.04,74.6 227.01,74.5 227,74.5 226.95,74.5 226.89,74.48 226.8,74.45 226.7,74.39 226.59,74.33 226.49,74.29 226.38,74.26 226.16,74.2 225.92,74.17 225.69,74.17 225.45,74.18 225.21,74.2 224.99,74.24 224.55,74.33 224.18,74.44 224.01,74.48 223.88,74.51 223.76,74.54 223.67,74.54 223.34,74.5 223.1,74.44 222.98,74.44 222.84,74.45 222.66,74.5 "/>
   <polygon class="fil0" points="188.26,71.25 188.29,71.51 188.31,71.66 188.31,71.69 188.32,71.72 188.34,71.75 188.37,71.75 188.44,71.76 188.58,71.78 188.65,71.81 188.76,71.84 188.88,71.9 189.03,71.97 189.3,72.14 189.45,72.23 189.48,72.24 189.51,72.26 189.52,72.24 189.54,72.23 189.55,72.18 189.63,72.13 189.69,72.1 189.78,72.05 189.88,72.02 190.05,71.99 190.26,71.99 190.5,71.99 190.77,72 191.04,72 190.98,71.73 190.93,71.59 190.9,71.52 190.89,71.49 190.84,71.48 190.8,71.45 190.72,71.36 190.6,71.19 190.53,71.01 190.48,70.86 190.42,70.8 190.33,70.76 190.2,70.73 190,70.71 189.85,70.7 189.73,70.71 189.63,70.71 189.57,70.73 189.52,70.76 189.48,70.77 189.46,70.8 189.43,70.83 189.39,70.91 189.3,70.98 189.22,71.03 189.12,71.06 188.98,71.09 188.82,71.12 188.58,71.15 188.4,71.18 188.35,71.18 188.35,71.19 "/>
   <polygon class="fil0" points="171.54,54.57 171.46,54.59 171.42,54.62 171.36,54.66 171.3,54.68 171.25,54.69 171.19,54.71 171.15,54.74 171.1,54.75 170.94,54.78 170.74,54.84 170.76,54.92 170.77,54.99 170.8,55.07 170.83,55.13 170.91,55.25 171,55.34 171.12,55.41 171.24,55.47 171.37,55.52 171.51,55.55 171.75,55.53 172.09,55.5 172.5,55.46 172.86,55.43 172.87,55.25 172.86,55.08 172.84,54.92 172.81,54.75 172.77,54.6 172.71,54.45 172.65,54.3 172.57,54.17 172.48,54.03 172.38,53.91 172.27,53.82 172.14,53.73 172,53.66 171.87,53.6 171.7,53.57 171.52,53.55 "/>
   <polygon class="fil0" points="219.38,71.64 219.92,71.56 220.55,72.14 220.73,72.07 220.85,72.04 220.95,71.99 221.1,71.91 221.57,71.52 221.45,71.27 221.34,71.09 221.3,71.01 221.25,70.95 221.21,70.91 221.16,70.86 221.04,70.8 220.86,70.76 220.64,70.71 220.34,70.67 218.75,70.12 218.87,70.37 218.9,70.43 218.93,70.44 219.02,70.47 219.17,70.56 219.41,70.73 219.45,70.77 219.48,70.79 219.51,70.8 219.57,70.86 "/>
   <polygon class="fil0" points="219.38,71.64 219.57,70.86 219.51,70.8 219.48,70.79 219.45,70.77 219.41,70.73 219.17,70.56 219.02,70.47 218.93,70.44 218.9,70.43 218.87,70.37 218.75,70.12 218.48,70.14 218.3,70.19 218.21,70.22 218.16,70.25 218.12,70.29 218.07,70.35 218,70.41 217.85,70.49 217.55,70.6 217.4,70.63 217.37,70.64 217.34,70.67 217.32,70.7 217.31,70.76 217.28,70.91 217.25,71.15 217.43,71.21 217.59,71.25 217.73,71.27 217.85,71.28 218.04,71.28 218.19,71.27 218.25,71.28 218.33,71.3 218.4,71.35 218.48,71.4 218.57,71.49 218.67,71.62 218.79,71.78 218.94,71.97 218.96,72 219,72.05 219.18,71.93 219.24,71.87 219.27,71.83 "/>
   <polygon class="fil0" points="228.59,84.02 228.53,84.17 228.47,84.34 228.41,84.5 228.36,84.68 228.33,84.85 228.3,85.03 228.3,85.19 228.32,85.36 228.35,85.51 228.39,85.64 228.44,85.7 228.47,85.75 228.53,85.81 228.57,85.85 228.65,85.88 228.71,85.91 228.8,85.94 228.89,85.96 228.98,85.96 229.08,85.96 229.2,85.96 229.32,85.94 229.41,85.79 229.47,85.66 229.52,85.52 229.55,85.39 229.56,85.25 229.55,85.09 229.52,84.92 229.47,84.73 229.41,84.53 229.34,84.38 229.26,84.28 229.19,84.19 229.07,84.13 228.95,84.1 228.78,84.05 "/>
   <polygon class="fil0" points="162.7,54.05 163.03,54.05 163.3,54.06 163.54,54.09 163.74,54.14 163.9,54.18 164.04,54.24 164.14,54.29 164.23,54.35 164.31,54.39 164.38,54.42 164.43,54.45 164.49,54.45 164.56,54.45 164.62,54.42 164.71,54.36 164.82,54.27 165.04,54.08 165.21,53.93 165.3,53.81 165.34,53.72 165.36,53.63 165.33,53.52 165.3,53.42 165.27,53.27 164.95,53.27 164.59,53.3 164.22,53.36 163.84,53.45 163.66,53.49 163.48,53.55 163.32,53.61 163.17,53.69 163.02,53.78 162.9,53.85 162.79,53.96 "/>
   <polygon class="fil0" points="163.68,49.28 163.9,49.43 164.16,49.55 164.28,49.59 164.41,49.62 164.56,49.64 164.7,49.64 165.15,49.61 165.42,49.61 165.55,49.64 165.61,49.65 165.64,49.68 165.67,49.68 165.76,49.65 165.97,49.59 165.99,49.56 166,49.53 166.02,49.53 166.05,49.53 166.06,49.56 166.09,49.58 166.09,49.56 166.05,49.29 166.02,49.22 165.99,49.16 165.96,49.08 165.91,49.04 165.85,48.98 165.79,48.93 165.73,48.89 165.66,48.86 165.49,48.8 165.31,48.77 165.12,48.74 164.92,48.74 164.73,48.75 164.53,48.78 164.34,48.83 164.17,48.89 164.01,48.98 163.87,49.07 163.81,49.11 163.75,49.16 163.71,49.22 "/>
   <polygon class="fil0" points="227.21,75.91 227.12,76.03 227.09,76.07 227.09,76.16 227.07,76.4 227.04,76.88 227.04,77.29 227.06,77.47 227.1,77.65 227.16,77.81 227.24,77.99 227.85,77.99 227.87,77.84 227.87,77.69 227.84,77.54 227.82,77.38 227.75,77.05 227.67,76.72 227.61,76.42 227.54,76.19 227.48,76.06 227.42,75.98 227.36,75.94 227.3,75.92 227.25,75.92 "/>
   <polygon class="fil0" points="187.81,51.84 187.92,51.12 187.23,51.12 187.24,51.35 187.27,51.51 187.29,51.63 187.33,51.71 187.39,51.75 187.5,51.78 187.63,51.81 "/>
   <polygon class="fil0" points="167.8,45.78 168.42,45.78 172.21,0.07 171.64,0.07 "/>
   <polygon class="fil0" points="165.18,48.24 165.4,48.26 165.63,48.29 165.84,48.32 166.05,48.38 166.27,48.45 166.47,48.54 166.68,48.63 166.87,48.75 166.72,48.69 166.57,48.65 166.42,48.6 166.26,48.56 166.11,48.53 165.94,48.51 165.79,48.5 165.63,48.5 165.37,48.51 165.12,48.54 164.86,48.59 164.62,48.66 164.38,48.75 164.14,48.86 163.92,48.98 163.69,49.13 163.47,49.29 163.26,49.47 163.05,49.67 162.84,49.88 162.64,50.09 162.46,50.33 162.27,50.58 162.1,50.85 161.94,51.14 161.79,51.42 161.64,51.72 161.49,52.04 161.37,52.37 161.25,52.71 161.13,53.06 161.04,53.42 160.95,53.78 160.87,54.15 160.8,54.53 160.74,54.92 160.69,55.32 160.66,55.71 160.65,56.13 160.65,56.54 160.65,57.06 160.68,57.59 160.74,58.08 160.8,58.58 160.89,59.06 160.99,59.54 161.13,59.99 161.26,60.42 161.07,59.94 160.89,59.43 160.74,58.91 160.62,58.35 160.51,57.78 160.45,57.2 160.41,56.6 160.39,55.98 160.39,55.58 160.41,55.19 160.44,54.8 160.48,54.42 160.54,54.05 160.6,53.67 160.68,53.33 160.77,52.97 160.86,52.62 160.96,52.29 161.08,51.98 161.2,51.66 161.34,51.35 161.49,51.06 161.64,50.78 161.79,50.51 161.95,50.25 162.13,50.01 162.31,49.79 162.49,49.56 162.69,49.37 162.9,49.19 163.11,49.01 163.32,48.86 163.53,48.72 163.75,48.6 163.98,48.5 164.22,48.41 164.44,48.33 164.68,48.29 164.94,48.26 "/>
   <path class="fil0" d="M106.39 81.43l0.9 0 0.09 -0.5 0.05 -0.42 0 -0.21 -0.02 -0.24 -0.06 -0.26 -0.08 -0.33 -0.16 0.19 -0.15 0.21 -0.12 0.23 -0.11 0.22 -0.11 0.26 -0.08 0.25 -0.09 0.29 -0.08 0.3zm125.15 0l0 -2.13 0 -2.12 0.12 -0.12 0.12 -0.12 0.15 -0.14 0.14 -0.15 0.91 -2.25 0 -0.12 -0.03 -0.12 -0.06 -0.12 -0.07 -0.12 -0.09 -0.12 -0.1 -0.11 -0.12 -0.12 -0.13 -0.11 -0.29 -0.2 -0.27 -0.16 -0.24 -0.12 -0.19 -0.08 -0.15 -0.03 -0.16 -0.03 -0.16 0 -0.17 0 -0.35 0.05 -0.36 0.05 -0.36 0.03 -0.38 0 -0.18 -0.02 -0.2 -0.03 -0.18 -0.05 -0.18 -0.06 0.01 -0.19 0.03 -0.16 0.06 -0.13 0.06 -0.12 0.09 -0.11 0.09 -0.09 0.09 -0.09 0.11 -0.09 0.09 -0.08 0.1 -0.09 0.09 -0.09 0.07 -0.12 0.06 -0.12 0.05 -0.13 0.03 -0.17 0 -0.19 -0.12 -0.15 -0.13 -0.15 -0.15 -0.13 -0.17 -0.12 -0.15 -0.13 -0.16 -0.13 -0.15 -0.18 -0.13 -0.19 -0.3 -0.49 -0.36 -0.54 -0.39 -0.59 -0.4 -0.59 -0.42 -0.57 -0.4 -0.53 -0.19 -0.24 -0.19 -0.22 -0.18 -0.2 -0.18 -0.18 -0.35 -0.3 -0.26 -0.24 -0.13 -0.13 -0.14 -0.13 -0.13 -0.18 -0.16 -0.21 -0.16 -0.17 -0.23 -0.19 -0.28 -0.24 -0.3 -0.27 -0.15 -0.16 -0.16 -0.16 -0.15 -0.2 -0.15 -0.21 -0.15 -0.22 -0.13 -0.26 -0.12 -0.27 -0.11 -0.28 -0.09 -0.32 -0.05 -0.18 -0.02 -0.08 -0.03 -0.08 -0.06 -0.11 -0.09 -0.15 -0.13 -0.21 -0.11 -0.15 -0.02 -0.09 -0.01 -0.11 0 -0.12 0.03 -0.16 0.12 -0.56 0.05 -0.33 0 -0.08 -0.03 -0.08 -0.02 -0.08 -0.04 -0.1 -0.12 -0.21 -0.18 -0.31 -0.19 -0.33 -0.22 -0.37 -0.12 -0.18 -0.12 -0.2 -0.14 -0.18 -0.15 -0.16 -0.27 -0.35 -0.29 -0.32 -0.29 -0.33 -0.28 -0.32 -0.27 -0.3 -0.28 -0.3 -0.29 -0.32 -0.29 -0.3 -0.86 -0.92 -0.69 -0.78 -0.31 -0.33 -0.29 -0.3 -0.29 -0.27 -0.29 -0.24 -0.15 -0.09 -0.15 -0.11 -0.15 -0.09 -0.16 -0.08 -0.17 -0.06 -0.16 -0.06 -0.18 -0.06 -0.19 -0.05 -0.19 -0.03 -0.23 -0.03 -0.22 -0.03 -0.23 -0.02 -0.52 0 -0.59 0.03 -0.12 0.25 -0.12 0.35 -0.12 0.42 -0.11 0.46 -0.05 0.23 -0.04 0.24 -0.03 0.22 -0.02 0.21 -0.02 0.19 0.02 0.18 0.02 0.15 0.04 0.12 0.09 0.19 0.15 0.29 0.18 0.36 0.21 0.37 0.21 0.37 0.19 0.32 0.17 0.25 0.1 0.15 0.08 0.06 0.06 0.06 0.05 0.07 0.05 0.06 0.04 0.15 0.03 0.16 0.01 0.44 0.08 0.66 0.03 0.28 0.03 0.27 0.02 0.24 0 0.21 -0.02 0.37 -0.01 0.32 -0.02 0.13 0.02 0.12 0.01 0.12 0.02 0.12 0.05 0.12 0.06 0.12 0.09 0.13 0.11 0.13 0.24 0.29 0.13 0.18 0.08 0.12 0.03 0.08 0 0.08 0.02 0.09 0.03 0.15 0.09 0.23 0.11 0.19 0.08 0.11 0.09 0.11 0.13 0.18 0.98 -0.15 0.12 0 0.1 0 0.11 -0.01 0.11 -0.02 0.18 -0.06 0.16 -0.09 0.3 -0.18 0.27 -0.18 0.15 -0.06 0.13 -0.03 0.08 0 0.08 0 0.09 0.02 0.08 0.03 0.09 0.03 0.11 0.06 0.09 0.06 0.11 0.09 0.24 0.21 0.25 0.29 0.47 0.51 0.64 0.69 0.77 0.8 0.83 0.86 0.84 0.83 0.8 0.77 0.36 0.33 0.31 0.29 0.27 0.24 0.22 0.18 0.32 0.21 0.36 0.21 0.18 0.11 0.15 0.12 0.06 0.06 0.06 0.06 0.05 0.06 0.05 0.06 -0.11 0.12 -0.11 0.09 -0.12 0.06 -0.11 0.06 -0.1 0.05 -0.11 0.03 -0.11 0.01 -0.1 0.02 -0.11 -0.02 -0.12 -0.01 -0.11 -0.03 -0.12 -0.05 -0.24 -0.09 -0.26 -0.13 -1.82 -0.6 -0.27 0 -0.36 -0.03 -0.39 -0.05 -0.4 -0.06 -0.39 -0.08 -0.36 -0.08 -0.15 -0.04 -0.13 -0.05 -0.12 -0.05 -0.09 -0.04 -0.41 -0.29 -0.45 -0.3 -0.23 -0.15 -0.21 -0.13 -0.21 -0.12 -0.21 -0.11 0.01 0.2 0.02 0.15 0.03 0.15 0.03 0.12 0 0.1 -0.02 0.12 -0.04 0.12 -0.09 0.15 -0.08 -0.01 -0.06 -0.02 -0.06 -0.03 -0.08 -0.03 -0.11 -0.09 -0.11 -0.11 -0.11 -0.13 -0.09 -0.15 -0.09 -0.15 -0.08 -0.18 -0.15 -0.36 -0.13 -0.37 -0.12 -0.36 -0.12 -0.32 -0.09 -0.18 -0.08 -0.11 -0.06 -0.06 -0.06 -0.03 -0.06 -0.01 -0.06 -0.05 -0.06 -0.08 -0.09 -0.13 -0.04 -0.11 -0.05 -0.11 -0.03 -0.11 -0.02 -0.11 -0.05 -0.22 -0.03 -0.23 -0.04 -0.22 -0.08 -0.24 -0.06 -0.13 -0.06 -0.13 -0.09 -0.13 -0.09 -0.13 -0.13 -0.18 -0.16 -0.16 -0.09 -0.08 -0.09 -0.06 -0.09 -0.06 -0.11 -0.03 -0.24 -0.06 -0.16 -0.01 -0.06 0 -0.06 0.01 -0.03 0.02 -0.03 0.03 -0.04 0.09 -0.02 0.11 0 0.15 0 0.16 -0.56 0.02 -0.54 0.01 -0.54 0 -0.56 0.03 -0.24 0.03 -0.16 0 -0.08 -0.01 -0.06 -0.02 -0.03 -0.03 -0.04 -0.03 -0.09 -0.02 -0.15 -0.01 -0.12 0 -0.11 0.03 -0.11 0.05 -0.09 0.04 -0.16 0.11 -0.13 0.08 -0.09 0.08 -0.06 0.09 -0.06 0.09 -0.06 0.07 -0.08 0.2 -0.08 0.18 -0.05 0.19 -0.06 0.19 -0.08 0.21 -0.09 0.19 -0.15 0.29 -0.11 0.18 -0.08 0.12 -0.03 0.09 -0.01 0.11 -0.02 0.18 -0.03 0.27 -0.05 0.43 -0.63 0.37 -0.5 0.3 -0.42 0.26 -0.4 0.21 -0.19 0.09 -0.21 0.08 -0.22 0.08 -0.26 0.08 -0.29 0.07 -0.32 0.08 -0.36 0.06 -0.4 0.08 -0.21 0.02 -0.3 0 -0.18 0 -0.18 0.01 -0.19 0.02 -0.18 0.01 -0.19 0.05 -0.18 0.06 -0.18 0.07 -0.16 0.11 -0.08 0.06 -0.08 0.08 -0.08 0.06 -0.06 0.09 -0.04 0.09 -0.06 0.11 -0.04 0.11 -0.03 0.11 -0.09 0.2 -0.08 0.13 -0.09 0.12 -0.11 0.12 0.16 0.09 0.15 0.08 0.15 0.04 0.13 0.05 0.26 0.06 0.24 0.03 0.42 -0.01 0.37 0 0.22 0.33 0.16 0.24 0.08 0.09 0.06 0.09 0.07 0.06 0.08 0.06 0.09 0.04 0.09 0.03 0.12 0.02 0.14 0.01 0.37 0.02 0.49 -0.02 0.03 0.03 0.03 0.05 0.04 0.06 0.08 0.09 0.11 0.11 0.13 0.12 0.15 0.11 0.16 0.11 0.18 0.08 0.17 0.06 0.06 0.02 0.06 0.02 0.47 0.09 0.35 0.08 0.34 0.09 0.42 0.13 -0.04 0.16 -0.06 0.13 -0.06 0.13 -0.06 0.12 -0.06 0.09 -0.05 0.09 -0.03 0.09 -0.02 0.06 0.02 0.03 0 0.03 0.01 0.01 0.03 0.03 0.07 0.03 0.11 0.03 0.16 0.01 0.2 0 0.25 0 0.32 0 0.33 -0.01 0.32 -0.02 0.16 -0.02 0.14 -0.03 0.13 -0.03 0.12 -0.05 0.16 -0.09 0.12 -0.08 0.05 -0.04 0.03 -0.05 0.01 -0.05 0.02 -0.04 0 -0.11 -0.02 -0.12 -0.04 -0.15 -0.05 -0.18 0.39 -0.02 0.25 -0.01 0.18 0 0.11 -0.03 0.08 -0.04 0.09 -0.09 0.13 -0.13 0.23 -0.19 0.15 -0.13 0.16 -0.11 0.17 -0.09 0.18 -0.08 0.09 -0.02 0.09 -0.01 0.09 0 0.11 0.01 0.09 0.02 0.11 0.03 0.09 0.05 0.11 0.06 0.08 0.12 0.06 0.12 0.03 0.11 0.03 0.11 0 0.11 0 0.09 -0.01 0.08 -0.02 0.09 -0.12 0.29 -0.12 0.26 0.12 0 0.13 -0.02 0.16 -0.05 0.16 -0.04 0.2 -0.05 0.21 -0.05 0.23 -0.05 0.24 -0.04 0.26 -0.02 0.25 -0.01 0.27 0.03 0.27 0.04 0.15 0.05 0.13 0.05 0.13 0.05 0.15 0.07 0.13 0.08 0.15 0.09 0.15 0.1 0.13 0.11 -0.11 0.08 -0.12 0.08 -0.15 0.06 -0.16 0.06 -0.18 0.06 -0.19 0.03 -0.21 0.05 -0.24 0.03 -0.48 0.04 -0.53 0.03 -0.56 0.01 -0.59 0.02 -1.14 -0.03 -1.1 -0.02 -0.49 -0.02 -0.45 0 -0.39 0 -0.33 0.02 -0.32 0.03 -0.29 0.03 -0.3 0.03 -0.29 0.03 -0.28 0.01 -0.32 0.02 -0.35 0 -0.37 0 -0.29 0 -0.3 0.03 -0.3 0.05 -0.3 0.06 -0.3 0.04 -0.3 0.06 -0.3 0.03 -0.3 0.03 -0.3 0 -0.33 -0.02 -0.35 -0.01 -0.35 -0.02 -0.35 -0.03 -0.32 -0.02 -0.29 0 -0.22 0 -0.21 0.03 -0.3 0.03 -0.33 0.04 -0.36 0.05 -0.36 0.03 -0.33 0.05 -0.29 0.02 -0.22 0 -0.15 -0.02 -0.12 -0.03 -0.12 -0.03 -0.09 -0.03 -0.12 -0.02 -0.12 -0.03 -0.15 -0.03 -0.19 0 -0.16 0 -0.15 0 -0.16 -0.02 -0.18 -0.01 -0.56 -0.21 0.02 -0.11 0.04 -0.11 0.05 -0.09 0.06 -0.07 0.08 -0.06 0.08 -0.06 0.08 -0.04 0.09 -0.05 0.21 -0.06 0.22 -0.03 0.24 -0.01 0.25 0 0.53 0.03 0.54 0.02 0.26 0 0.24 -0.02 0.22 -0.03 0.21 -0.06 0.13 -0.06 0.11 -0.04 0.05 -0.05 0.03 -0.03 0.01 -0.06 0.05 -0.08 -0.15 -0.13 -0.11 -0.08 -0.08 -0.05 -0.06 0 -0.04 0 -0.08 -0.01 -0.09 -0.03 -0.13 -0.07 -0.12 -0.11 -0.08 -0.08 -0.05 -0.05 0 -0.06 -0.01 -0.05 -0.02 -0.08 -0.03 -0.1 -0.08 -0.13 -0.15 0.03 -0.12 0.03 -0.09 0.05 -0.06 0.06 -0.11 0.12 -0.11 0.15 -0.05 0.06 -0.08 0.08 -0.11 0.08 -0.12 0.06 -0.16 0.06 -0.2 0.05 -0.24 0.04 -0.3 0.03 -0.33 0.01 -0.3 0.03 -0.13 0.03 -0.12 0.03 -0.12 0.03 -0.11 0.05 -0.22 0.12 -0.12 0.09 -0.04 0.05 -0.02 0.03 0 0.03 0.02 0.05 0.03 0.08 0.06 0.13 0.01 0.08 0.03 0.09 0.01 0.11 0 0.13 -0.37 0.03 -0.32 0.03 -0.25 0.05 -0.24 0.03 -0.23 0.03 -0.27 0 -0.3 -0.01 -0.37 -0.05 -5.27 -0.37 -0.35 0.01 -0.35 0 -0.33 0 -0.35 0 -0.33 0 -0.35 0 -0.35 -0.01 -0.33 -0.02 -0.01 -0.55 -0.03 -0.5 -0.02 -0.22 0.02 -0.21 0.03 -0.2 0.06 -0.18 0.03 -0.09 0.05 -0.08 0.06 -0.07 0.06 -0.08 0.08 -0.06 0.09 -0.08 0.11 -0.06 0.11 -0.06 0.13 -0.05 0.13 -0.04 0.15 -0.05 0.18 -0.05 0.39 -0.07 0.45 -0.06 0.57 -0.04 0.56 -0.03 0.57 -0.04 0.57 -0.05 0.56 -0.06 0.56 -0.08 0.26 -0.06 0.27 -0.06 0.24 -0.08 0.26 -0.09 0.03 -0.21 0.01 -0.16 0.02 -0.13 0 -0.11 0.01 -0.11 0.05 -0.1 0.08 -0.14 0.12 -0.15 0.06 -0.08 0.03 -0.02 0.04 0 0.11 -0.04 -0.04 -0.53 -0.05 -0.53 -0.05 -0.51 -0.06 -0.51 -0.05 -0.5 -0.06 -0.51 -0.08 -0.49 -0.11 -0.5 -0.11 -0.48 -0.11 -0.45 -0.09 -0.43 -0.09 -0.44 -0.11 -0.43 -0.08 -0.43 -0.09 -0.45 -0.09 -0.5 -0.08 -0.52 -0.06 -0.51 -0.05 -0.46 -0.03 -0.48 -0.01 -0.46 0.01 -0.48 0.03 -0.51 0.05 -0.54 0.03 -0.29 0 -0.27 0 -0.27 -0.01 -0.26 -0.05 -0.49 -0.06 -0.48 -0.08 -0.47 -0.05 -0.49 -0.01 -0.24 -0.02 -0.26 0 -0.27 0.02 -0.27 0.39 -0.36 0.32 -0.3 0.05 -0.07 0.04 -0.11 0.03 -0.11 0.03 -0.14 0 -0.15 0 -0.16 -0.03 -0.2 -0.05 -0.22 -0.13 -0.77 -0.11 -0.64 -0.05 -0.3 -0.06 -0.27 -0.06 -0.26 -0.06 -0.24 -0.07 -0.23 -0.09 -0.21 -0.11 -0.18 -0.13 -0.18 -0.15 -0.16 -0.18 -0.16 -0.23 -0.15 -0.25 -0.13 -0.45 -0.26 -0.46 -0.27 -0.26 -0.12 -0.26 -0.11 -0.13 -0.03 -0.13 -0.03 -0.13 -0.02 -0.13 -0.02 -1.17 1.22 -0.21 -0.11 -0.09 -0.08 -0.08 -0.06 -0.12 -0.11 -0.46 -0.06 -0.16 -0.03 -0.15 -0.03 -0.39 -0.03 -0.47 -0.05 -0.49 -0.05 -0.53 -0.08 -0.26 -0.03 -0.25 -0.04 -0.26 -0.06 -0.22 -0.06 -0.23 -0.08 -0.21 -0.08 -0.18 -0.07 -0.17 -0.09 -0.42 -0.27 -0.24 -0.16 -0.13 -0.08 -0.06 -0.02 -0.04 0 -0.08 -0.01 -0.15 -0.06 -0.28 -0.12 -0.18 -0.09 -0.19 -0.08 -0.2 -0.06 -0.18 -0.06 -0.16 -0.03 -0.16 -0.03 -0.15 -0.01 -0.13 0.01 -0.12 0.02 -0.11 0.04 -0.08 0.06 -0.06 0.08 -0.03 0.09 0 0.12 0.01 0.13 0.06 0.15 0.05 0.06 0.12 0.09 0.16 0.12 0.21 0.13 0.51 0.3 0.6 0.35 0.6 0.33 0.54 0.29 0.42 0.22 0.22 0.12 0.27 0.12 0.3 0.11 0.3 0.11 0.32 0.09 0.32 0.09 0.3 0.09 0.29 0.11 0.27 0.12 0.15 0.07 0.12 0.08 0.09 0.08 0.06 0.08 0.04 0.06 0.02 0.08 0.03 0.08 0.02 0.09 0.01 0.09 0.02 0.11 0.04 0.13 0.05 0.13 0.08 0.17 0.11 0.19 0.13 0.21 0.18 0.24 -0.09 0.09 -0.11 0.09 -0.22 0.21 0.06 0.15 0.05 0.13 0.03 0.13 0.02 0.14 0 0.13 0 0.14 -0.02 0.13 -0.02 0.13 -0.08 0.27 -0.09 0.27 -0.11 0.29 -0.12 0.3 -0.09 0.27 -0.09 0.32 -0.09 0.32 -0.09 0.33 -0.06 0.16 -0.05 0.15 -0.07 0.15 -0.06 0.15 -0.09 0.13 -0.09 0.13 -0.09 0.11 -0.12 0.11 -0.35 0.87 -0.21 0.54 -0.12 0.36 -0.08 0.31 -0.09 0.41 -0.12 0.62 -0.24 0.97 -0.37 1.46 0.14 0.19 0.12 0.21 0.12 0.23 0.09 0.24 0.19 0.45 0.15 0.43 0.13 0.36 0.12 0.27 0.06 0.09 0.06 0.06 0.03 0.02 0.03 0 0.02 -0.02 0.03 -0.01 0.04 0.03 0.02 0.03 0.02 0.04 0 0.06 -0.02 0.15 -0.05 0.18 -0.07 0.23 -0.09 0.22 -0.11 0.26 -0.11 0.25 -0.24 0.5 -0.19 0.45 -0.08 0.18 -0.06 0.14 -0.02 0.04 0 0.05 0 0.03 0.02 0.02 0.03 0.01 0.06 0 0.06 0 0.06 -0.01 0.15 -0.06 0.17 -0.09 0.19 -0.12 0.19 -0.15 0.23 -0.18 0.21 -0.19 0.24 -0.21 0.22 -0.23 0.22 -0.24 0.23 -0.25 0.21 -0.26 0.19 -0.25 0.18 -0.27 0.16 -0.27 -0.05 -0.18 -0.06 -0.18 -0.09 -0.19 -0.09 -0.2 -0.24 -0.39 -0.22 -0.39 -0.11 -0.19 -0.11 -0.21 -0.08 -0.2 -0.06 -0.19 -0.03 -0.21 -0.02 -0.19 0.02 -0.11 0.01 -0.11 0.03 -0.09 0.03 -0.11 0.07 -0.09 0.03 -0.09 0.04 -0.06 0.02 -0.08 0.02 -0.11 0 -0.12 0 -0.12 0.03 -0.13 0.04 -0.08 0.05 -0.09 0.06 -0.11 0.09 -0.12 0.27 -0.36 0.13 -0.21 0.11 -0.19 0.15 -0.29 0.12 -0.16 0.09 -0.12 0.09 -0.13 0.12 -0.21 0.24 -0.01 0.16 0 0.06 0.01 0.06 0.03 0.05 0.03 0.03 0.03 0.06 0.11 0.03 0.12 0.05 0.18 0.04 0.19 0.11 0.32 0.09 0.3 0.12 0.29 0.11 0.3 0.72 2.3 -0.25 0.23 -0.17 0.13 -0.06 0.04 -0.03 0.05 -0.03 0.05 0 0.05 0 0.11 0.01 0.16 0.03 0.27 0 0.37 -0.01 0.27 -0.05 0.24 -0.07 0.23 -0.09 0.21 -0.11 0.2 -0.13 0.19 -0.13 0.19 -0.13 0.18 -0.32 0.37 -0.28 0.36 -0.14 0.18 -0.13 0.19 -0.1 0.21 -0.09 0.21 -0.08 0.18 -0.09 0.15 -0.11 0.13 -0.11 0.12 -0.12 0.09 -0.14 0.08 -0.13 0.06 -0.13 0.05 -0.13 0.03 -0.15 0.01 -0.13 0.02 -0.13 -0.02 -0.14 -0.01 -0.13 -0.03 -0.12 -0.03 -0.12 -0.05 -0.12 -0.05 -0.13 -0.11 -0.16 -0.13 -0.17 -0.16 -0.4 -0.39 -0.42 -0.46 -0.42 -0.5 -0.38 -0.48 -0.16 -0.24 -0.15 -0.21 -0.11 -0.19 -0.09 -0.16 -0.54 -0.02 -0.42 -0.01 -0.35 -0.02 -0.25 -0.03 -0.18 -0.05 -0.13 -0.03 -0.09 -0.04 -0.06 -0.05 -0.04 -0.03 -0.05 -0.03 -0.06 -0.03 -0.08 -0.02 -0.11 -0.02 -0.16 0.02 -0.21 0.02 -0.3 0.04 -0.11 -0.94 -0.03 -0.05 -0.05 -0.08 -0.03 -0.08 -0.03 -0.11 -0.08 -0.27 -0.08 -0.33 -0.15 -0.8 -0.18 -0.93 -0.2 -0.97 -0.21 -0.96 -0.1 -0.44 -0.14 -0.4 -0.12 -0.36 -0.15 -0.3 -0.12 -0.26 -0.08 -0.25 -0.08 -0.26 -0.03 -0.24 -0.02 -0.26 0 -0.24 0.02 -0.26 0.01 -0.24 0.06 -0.51 0.06 -0.51 0.02 -0.26 0 -0.25 -0.02 -0.27 -0.03 -0.27 -0.05 -0.33 -0.06 -0.32 -0.05 -0.31 -0.04 -0.32 -0.05 -0.33 -0.03 -0.35 -0.03 -0.36 -0.02 -0.37 -0.01 -0.16 -0.02 -0.17 -0.03 -0.16 -0.03 -0.15 -0.08 -0.32 -0.09 -0.29 -0.21 -0.57 -0.18 -0.54 -0.06 -0.27 -0.03 -0.27 -0.01 -0.13 0.01 -0.15 0.02 -0.14 0.02 -0.15 0.04 -0.15 0.05 -0.15 0.08 -0.15 0.08 -0.15 0.09 -0.16 0.11 -0.16 0.13 -0.16 0.15 -0.18 0.13 -0.18 0.12 -0.13 0.09 -0.13 0.08 -0.12 0.04 -0.11 0.03 -0.1 0.02 -0.09 0 -0.09 -0.05 -0.21 -0.04 -0.26 -0.08 -0.33 -0.05 -0.43 -0.35 -0.16 -0.24 -0.09 -0.25 -0.09 -0.41 -0.12 -0.19 -0.08 -0.13 -0.07 -0.11 -0.08 -0.09 -0.08 -0.15 -0.15 -0.26 -0.19 -0.15 0.02 -0.15 0.04 -0.13 0.05 -0.12 0.04 -0.19 0.14 -0.19 0.13 -0.16 0.15 -0.18 0.13 -0.09 0.06 -0.1 0.06 -0.11 0.05 -0.12 0.04 -0.13 -0.06 -0.06 -0.01 -0.03 -0.06 -0.03 -0.15 -0.03 -0.13 0 -0.09 0.02 -0.04 0 -0.03 -0.02 -0.03 -0.13 -0.13 -1.05 0.27 -0.18 0 -0.18 -0.03 -0.18 -0.03 -0.17 -0.06 -0.16 -0.06 -0.18 -0.06 -0.15 -0.08 -0.15 -0.09 -0.3 -0.15 -0.26 -0.15 -0.22 -0.12 -0.18 -0.06 0.19 0.84 0.02 0.11 0.03 0.09 0.05 0.09 0.08 0.09 0.16 0.18 0.19 0.16 0.43 0.32 0.38 0.25 0 0.18 0 0.33 -0.03 0.4 -0.03 0.45 -0.04 0.44 -0.05 0.4 -0.05 0.32 -0.03 0.18 -0.05 0.11 -0.04 0.08 -0.03 0.08 -0.05 0.05 -0.09 0.09 -0.09 0.06 -0.09 0.06 -0.08 0.06 -0.05 0.04 -0.03 0.06 -0.03 0.06 -0.03 0.08 -0.03 0.11 -0.02 0.15 0 0.15 0 0.18 0.02 0.36 -0.02 0.35 -0.15 -0.04 -0.12 -0.05 -0.09 -0.05 -0.09 -0.04 -0.06 -0.06 -0.06 -0.06 -0.03 -0.06 -0.03 -0.08 -0.05 -0.16 0 -0.21 -0.02 -0.26 0 -0.29 -0.97 -0.39 0.15 -4.71 0.02 -0.22 0.03 -0.17 0.05 -0.12 0.04 -0.08 0.05 -0.04 0.05 -0.02 0.06 -0.02 0.06 0 0.05 0 0.06 -0.01 0.05 -0.05 0.03 -0.06 0.03 -0.11 0.03 -0.16 0 -0.21 0 -0.27 -0.79 0.01 -0.11 0.32 -0.08 0.35 -0.06 0.36 -0.04 0.39 -0.06 0.8 -0.03 0.81 -0.03 0.78 -0.06 0.73 -0.04 0.32 -0.06 0.3 -0.05 0.13 -0.03 0.12 -0.06 0.12 -0.05 0.11 -0.25 0.02 -0.26 0 -0.24 0 -0.24 0.01 -0.21 0.03 -0.12 0.01 -0.08 0.03 -0.05 0.03 -0.03 0.03 -0.06 0.03 -0.09 0.04 -0.17 0.06 -0.21 -0.26 -0.12 -0.18 -0.06 -0.12 -0.03 -0.08 -0.03 -0.05 -0.06 -0.03 -0.12 -0.05 -0.2 -0.04 -0.06 0.16 -0.04 0.15 -0.03 0.13 0 0.12 0.02 0.29 0.02 0.37 0 0.22 0 0.15 0 0.12 -0.02 0.09 -0.02 0.03 -0.03 0.03 -0.03 0.02 -0.03 0.03 -0.11 0.03 -0.16 0.06 -0.05 -0.13 -0.04 -0.13 -0.02 -0.16 -0.02 -0.16 0 -0.35 0 -0.37 -0.15 0.01 -0.12 0 -0.12 0.03 -0.09 0.02 -0.11 0.03 -0.09 0.05 -0.08 0.04 -0.06 0.06 -0.06 0.07 -0.06 0.06 -0.04 0.09 -0.05 0.09 -0.06 0.21 -0.03 0.26 -0.37 0 -0.3 0.02 -0.12 0.01 -0.11 0.02 -0.08 0.03 -0.08 0.05 -0.06 0.06 -0.05 0.07 -0.04 0.09 -0.03 0.11 -0.04 0.28 -0.03 0.38 -0.12 0.07 -0.06 0.05 -0.12 0 -0.27 0 0.18 1.32 -0.26 -0.08 -0.19 -0.05 -0.13 -0.01 -0.12 0.01 -0.23 0.09 -0.37 0.18 0.02 0.26 0.01 0.18 0.03 0.13 0.06 0.09 0.15 0.16 0.21 0.23 -0.12 0.12 -0.12 0.13 -0.13 0.12 -0.13 0.12 -0.13 0.12 -0.02 0.03 -0.03 0.02 -0.12 0.07 -0.17 0.11 -0.06 0.02 -0.05 0.01 -0.16 0.05 -0.27 0.84 -0.3 -0.02 -0.18 -0.01 -0.09 -0.05 -0.06 -0.05 -0.06 -0.06 -0.09 -0.05 -0.08 -0.03 -0.09 -0.02 -0.12 -0.01 -0.15 -0.02 -0.05 0.17 -0.02 0.15 0 0.15 0.03 0.13 0.06 0.26 0.09 0.22 0.03 0.12 0.03 0.1 0.02 0.12 0 0.12 -0.02 0.12 -0.05 0.12 -0.07 0.15 -0.11 0.13 -0.13 0.15 -0.12 0.11 -0.12 0.07 -0.11 0.05 -0.2 0.05 -0.19 0.03 -0.09 0.01 -0.08 0.03 -0.09 0.06 -0.09 0.08 -0.08 0.12 -0.09 0.15 -0.08 0.21 -0.09 0.25 -0.9 0.15 0.02 0.26 0.03 0.18 0.04 0.12 0.05 0.09 0.06 0.08 0.08 0.09 0.06 0.13 0.08 0.18 0.08 0.27 0.06 0.35 0.06 0.35 0.06 0.27 0.01 0.12 0.02 0.12 0.01 0.12 0 0.11 -0.03 0.19 -0.04 0.18 -0.06 0.15 -0.09 0.14 -0.11 0.12 -0.11 0.09 -0.11 0.09 -0.11 0.06 -0.11 0.06 -0.11 0.05 -0.15 0.06 -0.06 0.02 -0.01 0.12 0.01 0.13 0.02 0.12 0.02 0.13 0.04 0.26 0.06 0.27 0.04 0.25 0 0.26 0 0.12 -0.03 0.13 -0.03 0.11 -0.06 0.12 -0.06 0.11 -0.04 0.08 -0.05 0.04 -0.03 0.05 -0.08 0.03 -0.07 0.02 -0.09 0 -0.12 0.04 -0.06 0.05 -0.08 0.06 -0.07 0.08 -0.09 0.11 -0.11 0.13 -0.06 0.11 -0.05 0.11 -0.03 0.08 -0.04 0.08 -0.06 0.09 -0.1 0.11 -0.15 0.13 -0.23 -0.08 -0.15 -0.09 -0.14 -0.11 -0.18 -0.09 -0.24 -0.09 -0.18 -0.04 -0.19 -0.05 -0.23 -0.06 -0.18 -0.06 -0.17 -0.08 -0.18 -0.1 -0.18 -0.12 -0.33 -0.23 -0.25 -0.21 -0.18 -0.15 -0.18 -0.12 -0.16 -0.1 -0.15 -0.08 -0.31 -0.12 -0.29 -0.08 -0.15 -0.04 -0.16 -0.06 -0.15 -0.06 -0.16 -0.08 -0.16 -0.1 -0.18 -0.12 -0.18 -0.15 -0.21 -0.18 0.03 -0.18 0.01 -0.13 0.03 -0.12 0.04 -0.09 0.08 -0.13 0.09 -0.09 0.08 -0.07 0.05 -0.08 0.01 -0.06 0 -0.06 -0.01 -0.09 -0.02 -0.09 -0.04 -0.08 -0.06 -0.11 -0.1 -0.11 -0.11 -0.11 -0.23 -0.21 -0.16 -0.16 -0.19 -0.19 -0.24 -0.18 -0.12 -0.08 -0.13 -0.08 -0.13 -0.08 -0.13 -0.06 -0.15 -0.06 -0.15 -0.03 -0.17 -0.03 -0.15 -0.01 -0.17 0 -0.16 0.03 -0.16 0.03 -0.16 0.06 -0.09 0.07 -0.11 0.08 -0.08 0.09 -0.08 0.09 -0.06 0.11 -0.05 0.11 -0.05 0.11 -0.03 0.12 -0.03 0.24 -0.01 0.27 0 0.27 0.01 0.27 0.08 0.52 0.06 0.48 0.02 0.21 0 0.2 0 0.07 -0.02 0.08 -0.01 0.06 -0.03 0.06 -0.06 0.06 -0.06 0.06 -0.06 0.05 -0.08 0.03 -0.15 0.06 -0.16 0.05 -0.18 0.06 -0.2 0.06 -0.09 0.05 -0.11 0.06 -0.11 0.06 -0.09 0.08 -0.21 0.18 -0.18 0.18 -0.18 0.21 -0.16 0.19 -0.33 0.43 -0.3 0.44 -0.29 0.42 -0.28 0.39 -0.15 0.18 -0.13 0.16 -0.15 0.13 -0.15 0.13 -0.56 0.44 -0.54 0.42 -0.54 0.4 -0.52 0.42 -0.26 0.21 -0.25 0.21 -0.24 0.23 -0.24 0.22 -0.22 0.23 -0.22 0.24 -0.21 0.25 -0.19 0.26 -0.15 0.19 -0.13 0.15 -0.13 0.11 -0.12 0.09 -0.12 0.09 -0.12 0.09 -0.12 0.11 -0.12 0.13 -0.35 0.43 -0.29 0.32 -0.13 0.13 -0.12 0.11 -0.11 0.11 -0.12 0.08 -0.12 0.06 -0.12 0.05 -0.14 0.03 -0.13 0.03 -0.33 0.03 -0.42 0 -0.91 0 -0.75 0 -0.59 -0.03 -0.47 -0.03 -0.36 -0.03 -0.26 -0.06 -0.18 -0.06 -0.12 -0.06 -0.15 -0.15 -0.12 -0.18 -0.11 -0.09 -0.16 -0.11 -0.23 -0.11 -0.32 -0.11 -0.28 -0.07 -0.26 -0.05 -0.19 -0.03 -0.15 -0.02 -0.22 0 -0.16 -0.02 -0.06 -0.01 -0.08 -0.05 -0.09 -0.06 -0.11 -0.09 -0.32 -0.32 -0.46 -0.5 -0.43 -0.05 0 0.41 0 0.11 -0.02 0 -0.06 -0.02 -0.08 0 -0.13 0.05 -1.61 -0.83 0 -0.68 0.01 -0.45 0 -0.18 -0.01 -0.12 -0.02 -0.1 -0.01 -0.08 -0.03 -0.05 -0.03 -0.05 -0.04 -0.01 -0.06 -0.02 -0.15 -0.03 -0.21 -0.05 -0.26 -0.06 -0.18 -0.03 -0.06 -0.02 -0.06 -0.03 -0.05 -0.03 -0.06 -0.04 -0.09 -0.14 -0.12 -0.22 -0.16 -0.33 -0.24 -0.49 -0.06 -0.12 -0.05 -0.1 -0.03 -0.09 -0.02 -0.08 0 -0.06 0.02 -0.05 0.02 -0.04 0.01 -0.05 0.06 -0.09 0.06 -0.12 0.03 -0.06 0.03 -0.09 0.03 -0.11 0 -0.12 -0.16 -0.15 -0.11 -0.07 -0.09 -0.11 -0.13 -0.19 -0.37 -0.16 -0.37 -0.16 -0.37 -0.16 -0.37 -0.13 -0.19 -0.05 -0.2 -0.05 -0.19 -0.01 -0.21 -0.02 -0.21 0.02 -0.22 0.04 -0.23 0.05 -0.24 0.09 -0.04 0.18 -0.02 0.15 -0.01 0.15 0 0.12 0.04 0.22 0.05 0.2 0.02 0.09 0.01 0.09 0 0.11 -0.01 0.09 -0.03 0.12 -0.04 0.11 -0.08 0.13 -0.11 0.15 -0.27 0.37 -0.21 0.3 -0.16 0.33 -0.2 0.4 -0.13 0.27 -0.09 0.15 -0.09 0.12 -0.13 0.2 -0.11 0.19 -0.08 0.15 -0.05 0.13 -0.03 0.1 -0.02 0.18 -0.01 0.13 -0.03 0.06 -0.05 0.07 -0.08 0.09 -0.11 0.09 -0.15 0.12 -0.21 0.13 -0.26 0.16 -0.33 0.19 -0.18 0.11 -0.18 0.11 -0.21 0.09 -0.21 0.08 -0.1 0.03 -0.12 0 -0.11 0 -0.12 0 -0.12 -0.03 -0.12 -0.05 -0.12 -0.06 -0.13 -0.08 -0.13 -0.12 -0.15 -0.13 -0.16 -0.15 -0.19 -0.13 -0.15 -0.12 -0.13 -0.12 -0.13 -0.12 -0.15 -0.13 -0.16 -0.16 -0.15 -0.14 -0.13 -0.13 -0.09 -0.15 -0.03 -0.08 -0.03 -0.09 -0.02 -0.09 -0.01 -0.11 0 -0.12 0.01 -0.12 0.02 -0.15 0.03 -0.15 0.11 -0.39 0.11 -0.3 0.11 -0.23 0.09 -0.16 0.09 -0.12 0.09 -0.08 0.06 -0.05 0.06 -0.04 0.03 -0.03 0.02 -0.03 -0.02 -0.06 -0.03 -0.09 -0.16 -0.3 -0.3 -0.54 -0.08 -0.12 -0.08 -0.11 -0.07 -0.11 -0.09 -0.08 -0.09 -0.06 -0.11 -0.06 -0.11 -0.05 -0.11 -0.05 -0.12 -0.01 -0.12 -0.02 -0.12 -0.01 -0.12 0.01 -0.27 0.03 -0.27 0.06 -0.15 0.06 -0.12 0.04 -0.09 0.05 -0.11 0.06 -0.13 0.06 -0.05 0.03 -0.03 0.01 -0.09 0 -0.09 0.27 -0.09 0.24 -0.12 0.21 -0.09 0.21 -0.09 0.23 -0.08 0.21 -0.01 0.12 -0.02 0.13 0 0.13 0 0.13 0.11 0.11 0.09 0.09 0.09 0.06 0.08 0.06 0.13 0.08 0.09 0.09 0.05 0.05 0.03 0.06 0.01 0.06 0.02 0.1 0 0.24 -0.03 0.37 -0.27 0.09 -0.27 0.08 -0.25 0.04 -0.24 0.03 -0.48 0.03 -0.47 0.03 -0.21 0.04 -0.2 0.05 -0.11 0.05 -0.11 0.04 -0.09 0.05 -0.09 0.06 -0.09 0.06 -0.09 0.09 -0.09 0.08 -0.07 0.11 -0.09 0.12 -0.07 0.12 -0.08 0.13 -0.08 0.16 -0.15 0.32 -0.15 0.28 -0.15 0.27 -0.13 0.24 -0.27 0.4 -0.26 0.36 -0.22 0.32 -0.21 0.3 -0.11 0.15 -0.09 0.15 -0.08 0.16 -0.08 0.18 -0.05 0.15 -0.03 0.17 -0.03 0.15 0 0.13 0 0.29 0.01 0.26 0.02 0.13 0 0.12 -0.02 0.13 -0.01 0.12 -0.03 0.13 -0.05 0.12 -0.06 0.13 -0.09 0.15 -0.24 0.33 -0.19 0.29 -0.15 0.24 -0.11 0.21 -0.09 0.16 -0.06 0.13 -0.03 0.12 -0.02 0.11 0.02 0.19 0.06 0.22 0.01 0.13 0.03 0.15 0.01 0.2 0 0.22 -0.01 0.13 -0.02 0.13 -0.03 0.11 -0.03 0.12 -0.06 0.24 -0.05 0.33 -0.03 0.27 -0.02 0.3 -0.01 0.3 -0.02 0.32 -0.03 0.3 -0.01 0.3 -0.05 0.3 -0.05 0.27 -0.19 0.02 -0.18 0 -0.06 -0.02 -0.08 -0.01 -0.05 -0.03 -0.06 -0.03 -0.09 -0.07 -0.08 -0.11 -0.06 -0.12 -0.05 -0.12 -0.12 -0.32 -0.15 -0.35 -0.11 -0.18 -0.13 -0.18 -0.17 -0.19 -0.19 -0.19 -0.04 -0.05 -0.06 -0.05 0 2.66 0 3.86 3.54 0 -0.97 5.82 -2.57 0 0 0.99 0 16.77 7.26 0 3.84 -23.45 8.03 0 -3.84 23.45 7.65 0 -0.21 -0.45 -0.19 -0.43 -0.16 -0.47 -0.15 -0.45 -0.13 -0.48 -0.12 -0.46 -0.11 -0.5 -0.08 -0.48 -0.06 -0.49 -0.05 -0.51 -0.03 -0.49 0 -0.53 0.01 -0.51 0.05 -0.53 0.06 -0.52 0.08 -0.54 0.15 -0.81 0.21 -0.8 0.24 -0.8 0.28 -0.78 0.33 -0.78 0.37 -0.75 0.4 -0.74 0.45 -0.72 0.5 -0.71 0.52 -0.69 0.56 -0.68 0.59 -0.64 0.62 -0.63 0.66 -0.6 0.67 -0.59 0.71 -0.56 0.73 -0.53 0.75 -0.51 0.78 -0.48 0.8 -0.43 0.82 -0.42 0.84 -0.39 0.86 -0.36 0.87 -0.32 0.9 -0.28 0.9 -0.26 0.9 -0.22 0.93 -0.18 0.93 -0.13 0.94 -0.11 0.95 -0.06 0.94 -0.03 0.66 0.02 0.64 0.03 0.63 0.05 0.63 0.07 0.62 0.08 0.6 0.11 0.59 0.12 0.57 0.13 0.57 0.16 0.54 0.16 0.54 0.18 0.52 0.21 0.53 0.21 0.5 0.24 0.48 0.25 0.48 0.26 0.46 0.29 0.45 0.28 0.42 0.3 0.42 0.32 0.41 0.33 0.39 0.35 0.37 0.36 0.37 0.36 0.35 0.37 0.33 0.39 0.32 0.41 0.3 0.4 0.29 0.42 0.27 0.42 0.25 0.44 0.24 0.45 -1.14 0.48 -0.92 0.37 -0.78 0.33 -0.72 0.3 -0.74 0.3 -0.82 0.33 -1.01 0.39 -1.25 0.49 -0.12 -0.25 -0.13 -0.24 -0.15 -0.24 -0.16 -0.23 -0.17 -0.24 -0.18 -0.22 -0.19 -0.21 -0.19 -0.21 -0.21 -0.21 -0.21 -0.19 -0.22 -0.18 -0.24 -0.19 -0.24 -0.16 -0.26 -0.18 -0.27 -0.15 -0.27 -0.16 -0.27 -0.13 -0.29 -0.15 -0.3 -0.12 -0.29 -0.12 -0.32 -0.12 -0.32 -0.11 -0.31 -0.09 -0.33 -0.09 -0.33 -0.08 -0.33 -0.06 -0.34 -0.06 -0.35 -0.05 -0.36 -0.05 -0.36 -0.01 -0.36 -0.02 -0.36 -0.01 -0.55 0.01 -0.57 0.03 -0.54 0.06 -0.56 0.09 -0.54 0.11 -0.54 0.13 -0.53 0.13 -0.53 0.18 -0.51 0.18 -0.5 0.21 -0.49 0.23 -0.48 0.25 -0.47 0.26 -0.46 0.29 -0.43 0.28 -0.44 0.32 -0.4 0.33 -0.4 0.33 -0.37 0.36 -0.36 0.36 -0.35 0.39 -0.33 0.39 -0.3 0.41 -0.29 0.4 -0.27 0.42 -0.24 0.44 -0.21 0.45 -0.2 0.45 -0.16 0.45 -0.15 0.47 -0.12 0.48 -0.09 0.46 -0.05 0.32 -0.03 0.3 -0.02 0.3 -0.01 0.3 0.01 0.3 0 0.29 0.03 0.29 0.03 0.3 0.04 0.27 0.06 0.29 0.08 0.27 0.07 0.27 0.08 0.27 0.11 0.27 0.11 0.26 0.12 0.25 0.12 0.24 0.13 0.25 0.13 0.23 0.16 0.24 0.15 0.22 0.18 0.22 0.18 0.23 0.18 0.21 0.2 0.19 0.19 0.21 0.21 0.19 0.22 0.18 0.23 0.18 0.24 0.18 0.24 0.16 0.24 0.16 11.84 0 0.3 -0.16 0.3 -0.16 0.28 -0.18 0.29 -0.18 0.29 -0.19 0.27 -0.2 0.27 -0.19 0.27 -0.21 0.26 -0.22 0.25 -0.21 0.24 -0.24 0.24 -0.23 0.24 -0.24 0.23 -0.25 0.22 -0.26 0.21 -0.25 1.05 0.52 0.86 0.42 0.69 0.35 0.63 0.32 0.62 0.3 0.68 0.3 0.81 0.36 1.01 0.43 -0.15 0.2 -0.15 0.19 4.62 0 3.86 -23.63 7.83 0 -1.85 11.42 16.92 0 1.85 -11.33 7.86 0 -3.86 23.54 37.05 0 0 -8.51 0 -0.8 0 -7.55 0 -2.04 0 -8.55zm-61.83 27.44l16.91 0 0.9 -5.46 -16.92 0 -0.88 5.46zm58.01 -31.97l-0.67 0 0 -0.12 0.01 -0.12 0 -0.12 0.02 -0.14 0.02 -0.24 0 -0.09 0.03 -0.05 0.09 -0.12 0.05 0.01 0.04 0 0.06 0.02 0.06 0.05 0.06 0.08 0.06 0.13 0.08 0.22 0.06 0.3 0.04 0.18zm-5.27 -2.31l0.21 -0.09 0.18 -0.05 0.13 -0.01 0.12 0 0.24 0.06 0.33 0.05 0.09 0 0.12 -0.03 0.13 -0.03 0.17 -0.04 0.37 -0.11 0.44 -0.09 0.22 -0.04 0.24 -0.02 0.24 -0.01 0.23 0 0.24 0.03 0.22 0.06 0.11 0.03 0.11 0.05 0.11 0.06 0.11 0.06 0.09 0.03 0.06 0.02 0.05 0 0.02 0 0.03 0.11 -0.02 0.36 -0.22 0.05 -0.39 0.05 -0.53 0.03 -0.58 0.03 -0.62 0.03 -0.59 0 -0.51 -0.01 -0.36 -0.03 -0.27 -0.05 -0.18 -0.06 -0.08 -0.03 -0.06 -0.03 -0.05 -0.05 -0.03 -0.03 -0.06 -0.13 -0.06 -0.13zm-3.7 -4.47l1.59 0.55 0.3 0.05 0.22 0.05 0.18 0.04 0.12 0.06 0.05 0.05 0.05 0.05 0.04 0.06 0.05 0.08 0.11 0.18 0.12 0.25 -0.46 0.39 -0.15 0.08 -0.11 0.05 -0.12 0.03 -0.18 0.08 -0.63 -0.59 -0.54 0.09 -0.11 0.18 -0.03 0.04 -0.06 0.06 -0.18 0.12 -0.05 -0.05 -0.01 -0.03 -0.15 -0.19 -0.12 -0.16 -0.11 -0.12 -0.09 -0.09 -0.07 -0.06 -0.08 -0.05 -0.08 -0.02 -0.06 -0.01 -0.15 0.01 -0.19 0 -0.12 -0.01 -0.13 -0.02 -0.16 -0.04 -0.18 -0.06 0.03 -0.24 0.03 -0.15 0.01 -0.06 0.02 -0.03 0.03 -0.03 0.03 -0.01 0.15 -0.03 0.3 -0.11 0.15 -0.07 0.08 -0.06 0.05 -0.06 0.05 -0.04 0.04 -0.03 0.09 -0.03 0.18 -0.04 0.27 -0.03zm-39.93 0.93l0.05 0.23 0.05 0.19 0.05 0.16 0.06 0.15 0.05 0.12 0.04 0.12 0.02 0.09 -0.02 0.08 -0.01 0.05 -0.03 0.03 -0.03 0.01 -0.06 0.03 -0.13 0.04 -0.19 0.03 -0.26 0.02 -0.33 0.01 -0.4 0.02 -0.5 0 -0.16 0.24 -0.12 0.13 -0.12 0.12 -0.13 0.09 -0.12 0.06 -0.12 0.05 -0.12 0.05 -0.13 0.01 -0.13 0.02 -0.27 0.01 -0.29 0.02 -0.15 0.02 -0.16 0.01 -0.17 0.05 -0.18 0.04 -0.31 0.12 -0.14 0.02 -0.13 -0.05 -0.32 -0.11 -0.05 -0.09 -0.03 -0.09 -0.02 -0.08 0 -0.07 0 -0.11 0.02 -0.09 0 -0.03 0 -0.05 -0.02 -0.03 -0.03 -0.04 -0.09 -0.11 -0.18 -0.12 -0.09 0.02 -0.08 0 -0.05 0 -0.03 0.01 -0.03 0.02 -0.05 0.03 -0.03 0.03 -0.01 0.06 -0.03 0.08 -0.03 0.11 -0.03 0.27 -0.03 0.39 -0.48 0.01 -0.48 0.05 -0.49 0.06 -0.56 0.06 -0.62 0.08 -0.7 0.06 -0.81 0.03 -0.94 0.01 -0.35 0.02 -0.32 0.03 -0.32 0.03 -0.28 0.03 -0.3 0.03 -0.28 -0.01 -0.13 -0.02 -0.15 -0.03 -0.13 -0.03 -0.15 -0.06 -0.84 -0.27 -0.46 -0.15 -0.06 -0.05 -0.06 -0.04 -0.03 -0.08 -0.03 -0.08 -0.02 -0.11 0 -0.13 0.02 -0.15 0.01 -0.19 0.39 0 0.37 0 0.39 0.02 0.36 -0.02 0.29 -0.05 0.19 -0.04 0.08 -0.03 0.06 -0.04 0.05 -0.05 0.05 -0.05 0.1 -0.24 0.14 -0.35 0.21 -0.02 0.16 -0.01 0.13 0 0.12 0.01 0.09 0.02 0.06 0.03 0.06 0.03 0.06 0.03 0.11 0.08 0.12 0.07 0.08 0.05 0.11 0.03 0.12 0.05 0.17 0.03 0.06 -0.32 0.09 -0.32 0.08 -0.15 0.09 -0.12 0.06 -0.06 0.06 -0.06 0.08 -0.05 0.09 -0.05 2.72 -0.28 0.57 -0.05 0.54 -0.03 0.54 -0.05 0.57 -0.06 0.26 -0.03 0.27 -0.03 0.29 -0.03 0.28 -0.02 0.3 -0.02 0.28 0 0.3 0.02 0.3 0.02 0.13 0.19 0.15 0.19 -0.04 0.08 -0.03 0.05 -0.05 0.03 -0.02 0.01 -0.04 0 -0.03 -0.01 -0.02 0 -0.02 0 -0.01 0.01 -0.03 0.05 -0.03 0.15 -0.06 0.27 1.52 0.12 0.06 -0.09 0.05 -0.08 0.03 -0.08 0.03 -0.09 0.03 -0.18 0 -0.24 0.34 -0.03 0.35 -0.04 0.32 -0.08 0.3 -0.09 0.29 -0.12 0.27 -0.12 0.26 -0.12 0.22 -0.12 0.14 -0.08 0.09 -0.06 0.08 -0.03 0.06 -0.02 0.16 0.02 0.32 0.06 0.01 0.2 0 0.15 -0.01 0.06 -0.02 0.06 -0.03 0.04 -0.03 0.05 -0.05 0.03 -0.04 0.03 -0.05 0.01 -0.08 0.03 -0.13 0.02 -0.18 0.03 -0.32 0.01 -0.21 0.02 -0.13 0.03 -0.08 0.02 -0.08 0.04 -0.09 0.05 -0.13 0.09 -0.24 0.11zm-4.41 -11.82l0.11 0.04 0.11 0.09 0.09 0.09 0.09 0.12 0.09 0.12 0.08 0.15 0.08 0.15 0.06 0.15 0.24 0.63 0.16 0.51 0.12 0.35 0.12 0.28 0.11 0.23 0.09 0.18 0.09 0.13 0.09 0.11 0.09 0.06 0.09 0.06 0.16 0.05 0.16 0.03 0.11 0.02 0.09 0.03 0.11 0.04 0.12 0.08 -0.03 0.29 -0.03 0.08 -0.06 0.07 -0.18 0.2 -0.16 0 -0.18 -0.02 -0.16 -0.03 -0.15 -0.05 -0.15 -0.06 -0.13 -0.08 -0.13 -0.09 -0.12 -0.11 -0.12 -0.12 -0.11 -0.12 -0.11 -0.13 -0.09 -0.15 -0.09 -0.15 -0.08 -0.15 -0.08 -0.16 -0.08 -0.18 -0.12 -0.36 -0.11 -0.36 -0.08 -0.37 -0.06 -0.36 -0.03 -0.36 -0.02 -0.33 -0.02 -0.32 0.02 -0.27zm-2.9 -3.68l-0.13 -0.03 -0.13 -0.04 -0.12 -0.06 -0.12 -0.08 -0.09 -0.09 -0.08 -0.12 -0.03 -0.06 -0.03 -0.08 -0.02 -0.08 -0.01 -0.08 0.19 -0.06 0.16 -0.03 0.05 -0.02 0.04 -0.03 0.06 -0.01 0.04 -0.02 0.06 -0.01 0.06 -0.05 0.05 -0.03 0.08 -0.02 -0.02 -1.02 0.18 0.01 0.16 0.03 0.13 0.06 0.13 0.08 0.13 0.09 0.11 0.09 0.11 0.12 0.09 0.13 0.08 0.13 0.06 0.15 0.06 0.15 0.04 0.15 0.03 0.16 0.02 0.16 0.01 0.17 -0.01 0.18 -0.36 0.03 -0.41 0.05 -0.35 0.03 -0.24 0.02zm-4.73 -0.65l-0.24 0 -0.26 -0.01 -0.24 0.01 -0.24 0.05 -0.7 0.42 0.05 0.19 0.06 0.13 0.04 0.13 0.06 0.11 0.04 0.12 0.03 0.13 0.03 0.16 0 0.22 -4.08 -0.19 0 -0.15 0 -0.12 0.03 -0.13 0.03 -0.12 0.04 -0.1 0.05 -0.11 0.06 -0.11 0.06 -0.09 0.13 -0.18 0.16 -0.15 0.15 -0.15 0.16 -0.12 0.33 0.09 0.33 0.09 0.17 0.02 0.18 -0.02 0.09 -0.01 0.09 -0.03 0.09 -0.03 0.11 -0.05 0.13 -0.06 0.03 -0.03 0.01 -0.03 0.08 -0.09 -0.05 -0.12 -0.03 -0.09 -0.04 -0.08 -0.03 -0.04 -0.06 -0.03 -0.07 -0.03 -0.12 -0.02 -0.16 -0.03 -0.16 0 -0.21 0.01 -0.23 0.02 -0.21 0 0 -0.15 0.02 -0.13 0.01 -0.11 0.02 -0.11 0.03 -0.09 0.05 -0.06 0.05 -0.06 0.06 -0.06 0.06 -0.03 0.08 -0.05 0.08 -0.03 0.09 -0.01 0.21 -0.05 0.22 -0.05 0.39 -0.1 0.4 -0.11 0.19 -0.04 0.2 -0.03 0.19 -0.03 0.16 0 0.18 0.02 0.16 0.02 0.15 0.04 0.15 0.05 0.12 0.06 0.12 0.08 0.11 0.08 0.11 0.08 0.07 0.09 0.09 0.11 0.07 0.09 0.08 0.1 0.12 0.23 0.12 0.22 0.09 0.15 0.06 0.04 0.01 0.11 -0.01 0.35zm21.14 -3.78l-0.11 0.72 -0.18 -0.03 -0.13 -0.03 -0.11 -0.03 -0.06 -0.04 -0.04 -0.08 -0.02 -0.12 -0.03 -0.16 -0.02 -0.22 0.69 0zm-24.78 -2.12l0.19 -0.13 0.15 -0.13 0.12 -0.12 0.11 -0.11 0.06 -0.04 0.06 -0.05 0.06 -0.03 0.09 -0.03 0.09 -0.03 0.11 -0.02 0.13 -0.01 0.15 0 0.62 0 0.35 0.01 0.15 0 0.15 -0.04 0.21 -0.08 0.29 -0.13 0 0.25 0 0.16 0 0.11 0.03 0.08 0.04 0.13 0.11 0.26 0.03 0.13 0.03 0.12 0.01 0.1 0 0.09 -0.01 0.16 -0.03 0.11 -0.03 0.09 -0.05 0.05 -0.03 0.01 -0.01 0 0.13 -0.1 0.06 0.07 0.08 0.06 0.08 0.04 0.09 0.05 0.16 0.08 0.15 0.09 -0.66 0.86 -0.21 0 -0.18 0 -0.17 -0.01 -0.12 -0.03 -0.11 -0.03 -0.09 -0.03 -0.08 -0.04 -0.08 -0.03 -0.13 -0.08 -0.16 -0.06 -0.11 -0.02 -0.12 0 -0.15 0 -0.16 0.03 -0.63 0.19 -0.15 0.06 -0.13 0.06 -0.11 0.03 -0.12 0.02 -0.11 0 -0.13 -0.02 -0.13 -0.03 -0.17 -0.06 -0.4 -2.43 0.24 0.03 0.12 0.02 0.07 0.02 0.02 0.03 0.02 0.03 0.03 0.08 0.06 0.09 0.13 0.13z"/>
   <polygon class="fil0" points="171.64,0.07 171.96,0.13 172.26,0.19 172.57,0.28 172.87,0.37 173.49,0.57 174.1,0.81 175.33,1.32 176.56,1.85 177.18,2.09 177.79,2.31 178.11,2.4 178.41,2.49 178.72,2.58 179.02,2.65 179.34,2.71 179.64,2.76 179.94,2.79 180.25,2.81 180.55,2.81 180.87,2.79 181.17,2.76 181.47,2.71 182.16,2.58 182.8,2.43 183.42,2.3 184,2.16 185.11,1.87 186.18,1.58 187.29,1.26 188.47,0.93 189.81,0.59 191.35,0.22 191.76,0.13 192.15,0.07 192.54,0.03 192.91,0 193.27,0 193.63,0.01 193.98,0.04 194.32,0.09 194.65,0.13 194.98,0.21 195.3,0.28 195.61,0.37 196.21,0.57 196.81,0.79 197.97,1.29 199.12,1.75 199.41,1.86 199.71,1.95 199.99,2.04 200.29,2.12 200.59,2.19 200.91,2.25 201.21,2.3 201.54,2.31 201.49,3.4 201.45,4.43 201.4,5.4 201.37,6.33 201.33,7.22 201.3,8.09 201.25,8.94 201.22,9.78 201.19,10.64 201.15,11.49 201.12,12.35 201.09,13.25 201.04,14.18 201,15.15 200.97,16.17 200.92,17.25 200.65,17.27 200.41,17.27 200.16,17.24 199.9,17.21 199.66,17.15 199.41,17.09 199.17,17 198.91,16.92 197.92,16.52 196.87,16.13 196.6,16.04 196.32,15.96 196.03,15.9 195.73,15.84 195.43,15.8 195.12,15.78 194.8,15.77 194.47,15.78 194.13,15.81 193.78,15.86 193.42,15.93 193.05,16.04 192.66,16.17 192.27,16.34 191.85,16.53 191.43,16.76 190.99,16.98 190.56,17.22 190.14,17.43 189.7,17.64 189.28,17.84 188.86,18.02 188.44,18.2 188.04,18.36 187.62,18.51 187.21,18.66 186.82,18.8 186.42,18.92 185.64,19.14 184.87,19.34 184.14,19.49 183.42,19.61 182.74,19.7 182.07,19.76 181.44,19.79 180.84,19.77 180.55,19.76 180.27,19.74 180,19.71 179.74,19.68 170.11,18.23 "/>
   <path class="fil0" d="M233.97 73.44l-222.15 0 -0.32 0 -0.3 0.03 -0.29 0.03 -0.28 0.06 -0.29 0.06 -0.27 0.09 -0.27 0.09 -0.26 0.12 -0.25 0.12 -0.26 0.13 -0.23 0.13 -0.24 0.16 -0.22 0.17 -0.21 0.18 -0.21 0.2 -0.19 0.19 -0.18 0.21 -0.18 0.22 -0.18 0.23 -0.17 0.22 -0.15 0.26 -0.15 0.24 -0.13 0.27 -0.12 0.26 -0.12 0.28 -0.11 0.27 -0.11 0.29 -0.09 0.29 -0.08 0.3 -0.08 0.3 -0.04 0.3 -0.06 0.3 -5.76 41.72 -0.03 0.3 -0.02 0.3 0.02 0.3 0.01 0.29 0.06 0.3 0.06 0.29 0.08 0.27 0.11 0.27 0.11 0.27 0.13 0.25 0.15 0.26 0.15 0.24 0.18 0.24 0.18 0.22 0.19 0.23 0.21 0.21 0.22 0.2 0.23 0.19 0.24 0.18 0.25 0.16 0.26 0.15 0.27 0.15 0.27 0.13 0.29 0.12 0.28 0.11 0.29 0.11 0.3 0.07 0.3 0.08 0.3 0.05 0.3 0.05 0.32 0.01 0.3 0.02 222.15 0 0.32 -0.02 0.3 -0.01 0.29 -0.05 0.29 -0.05 0.29 -0.08 0.27 -0.07 0.27 -0.11 0.25 -0.11 0.26 -0.12 0.25 -0.13 0.23 -0.15 0.24 -0.15 0.22 -0.16 0.21 -0.18 0.21 -0.19 0.19 -0.2 0.18 -0.21 0.18 -0.23 0.18 -0.22 0.16 -0.24 0.15 -0.24 0.15 -0.26 0.13 -0.25 0.12 -0.27 0.12 -0.27 0.11 -0.27 0.11 -0.29 0.09 -0.3 0.08 -0.29 0.08 -0.3 0.05 -0.3 0.06 -0.3 5.76 -41.72 0.03 -0.3 0.02 -0.3 -0.02 -0.3 -0.01 -0.3 -0.06 -0.29 -0.06 -0.29 -0.08 -0.27 -0.1 -0.28 -0.11 -0.26 -0.13 -0.27 -0.15 -0.24 -0.15 -0.26 -0.18 -0.22 -0.18 -0.23 -0.19 -0.22 -0.21 -0.21 -0.22 -0.19 -0.22 -0.2 -0.24 -0.18 -0.26 -0.17 -0.25 -0.16 -0.27 -0.13 -0.27 -0.13 -0.29 -0.13 -0.28 -0.11 -0.29 -0.09 -0.3 -0.09 -0.3 -0.06 -0.3 -0.06 -0.3 -0.03 -0.32 -0.03 -0.3 0zm-162.96 35.03l-1.01 -0.43 -0.81 -0.36 -0.68 -0.3 -0.61 -0.3 -0.63 -0.32 -0.71 -0.35 -0.84 -0.42 -1.05 -0.52 -0.24 0.28 -0.24 0.27 -0.24 0.27 -0.25 0.25 -0.26 0.24 -0.27 0.26 -0.27 0.22 -0.29 0.24 -0.28 0.21 -0.3 0.23 -0.3 0.19 -0.32 0.19 -0.32 0.2 -0.31 0.18 -0.32 0.17 -0.33 0.16 -0.34 0.16 -0.33 0.13 -0.35 0.15 -0.35 0.12 -0.36 0.12 -0.36 0.11 -0.36 0.11 -0.36 0.09 -0.36 0.08 -0.38 0.07 -0.37 0.06 -0.36 0.05 -0.39 0.03 -0.37 0.03 -0.37 0.01 -0.39 0.02 -0.56 -0.02 -0.54 -0.04 -0.52 -0.06 -0.53 -0.08 -0.51 -0.11 -0.5 -0.12 -0.48 -0.15 -0.46 -0.17 -0.44 -0.19 -0.43 -0.21 -0.42 -0.22 -0.4 -0.24 -0.37 -0.26 -0.36 -0.29 -0.35 -0.28 -0.33 -0.32 -0.3 -0.33 -0.29 -0.33 -0.27 -0.36 -0.24 -0.36 -0.21 -0.39 -0.21 -0.39 -0.16 -0.41 -0.15 -0.4 -0.12 -0.42 -0.11 -0.43 -0.08 -0.45 -0.04 -0.45 -0.03 -0.47 0.01 -0.46 0.03 -0.48 0.06 -0.48 0.09 -0.46 0.12 -0.48 0.15 -0.47 0.16 -0.45 0.19 -0.45 0.21 -0.45 0.24 -0.44 0.27 -0.42 0.29 -0.4 0.3 -0.41 0.33 -0.39 0.35 -0.39 0.36 -0.36 0.37 -0.36 0.41 -0.33 0.4 -0.33 0.43 -0.32 0.43 -0.28 0.47 -0.29 0.46 -0.26 0.48 -0.25 0.5 -0.23 0.49 -0.21 0.51 -0.18 0.52 -0.18 0.53 -0.13 0.54 -0.13 0.54 -0.11 0.55 -0.09 0.54 -0.06 0.56 -0.03 0.57 -0.01 0.36 0.01 0.36 0.02 0.36 0.01 0.36 0.05 0.35 0.05 0.35 0.06 0.33 0.06 0.33 0.08 0.33 0.09 0.32 0.09 0.32 0.11 0.3 0.12 0.3 0.12 0.3 0.12 0.29 0.15 0.27 0.13 0.27 0.16 0.27 0.15 0.24 0.18 0.25 0.16 0.24 0.19 0.23 0.18 0.21 0.19 0.21 0.21 0.2 0.21 0.19 0.21 0.18 0.22 0.16 0.24 0.16 0.23 0.13 0.24 0.15 0.24 0.12 0.25 1.25 -0.49 1.01 -0.39 0.83 -0.33 0.73 -0.3 0.72 -0.3 0.78 -0.33 0.91 -0.37 1.14 -0.48 -0.24 -0.45 -0.26 -0.44 -0.27 -0.42 -0.29 -0.42 -0.3 -0.4 -0.32 -0.41 -0.34 -0.39 -0.35 -0.37 -0.36 -0.36 -0.37 -0.36 -0.39 -0.35 -0.4 -0.33 -0.42 -0.32 -0.43 -0.3 -0.44 -0.28 -0.46 -0.29 -0.48 -0.26 -0.48 -0.25 -0.51 -0.24 -0.51 -0.21 -0.53 -0.21 -0.54 -0.18 -0.54 -0.16 -0.57 -0.16 -0.57 -0.13 -0.6 -0.12 -0.6 -0.11 -0.6 -0.08 -0.63 -0.07 -0.63 -0.05 -0.64 -0.03 -0.66 -0.02 -0.95 0.03 -0.94 0.06 -0.95 0.11 -0.93 0.13 -0.93 0.18 -0.92 0.22 -0.9 0.26 -0.89 0.28 -0.87 0.32 -0.86 0.36 -0.84 0.39 -0.83 0.42 -0.8 0.43 -0.78 0.48 -0.75 0.51 -0.74 0.53 -0.7 0.56 -0.68 0.59 -0.66 0.6 -0.62 0.63 -0.59 0.64 -0.56 0.68 -0.53 0.69 -0.5 0.71 -0.45 0.72 -0.41 0.74 -0.37 0.75 -0.33 0.78 -0.29 0.78 -0.26 0.8 -0.19 0.8 -0.15 0.81 -0.12 0.83 -0.06 0.81 -0.02 0.81 0.03 0.78 0.09 0.77 0.12 0.77 0.17 0.74 0.21 0.73 0.27 0.71 0.28 0.69 0.35 0.66 0.37 0.65 0.42 0.63 0.45 0.6 0.5 0.59 0.51 0.56 0.57 0.52 0.59 0.51 0.63 0.47 0.65 0.45 0.69 0.4 0.72 0.39 0.73 0.36 0.77 0.32 0.8 0.28 0.83 0.26 0.84 0.21 0.86 0.18 0.9 0.13 0.9 0.11 0.93 0.06 0.95 0.02 0.67 0 0.66 -0.03 0.67 -0.04 0.66 -0.08 0.64 -0.09 0.66 -0.11 0.64 -0.12 0.63 -0.15 0.63 -0.15 0.63 -0.18 0.62 -0.19 0.62 -0.21 0.6 -0.23 0.59 -0.24 0.59 -0.25 0.59 -0.27 0.55 -0.3 0.56 -0.3 0.56 -0.32 0.53 -0.33 0.52 -0.35 0.51 -0.35 0.51 -0.37 0.48 -0.39 0.48 -0.39 0.46 -0.41 0.45 -0.42 0.43 -0.42 0.42 -0.45 0.41 -0.45 0.39 -0.45 0.37 -0.48zm29.3 -4.14l1.02 -6.14 -16.67 0 1.12 -7.1 18.86 0 0.97 -5.82 -26.63 0 -5.16 31.62 28.37 0 0.96 -5.82 -20.6 0 1.08 -6.75 16.67 0zm7.71 12.57l8.03 0 5.16 -31.49 -8.03 0 -5.16 31.49zm49.53 -8.43l-1.01 -0.43 -0.81 -0.36 -0.68 -0.3 -0.62 -0.3 -0.63 -0.32 -0.69 -0.35 -0.86 -0.42 -1.05 -0.52 -0.24 0.28 -0.22 0.27 -0.26 0.27 -0.26 0.25 -0.25 0.24 -0.27 0.26 -0.27 0.22 -0.28 0.24 -0.29 0.21 -0.3 0.23 -0.3 0.19 -0.32 0.19 -0.3 0.2 -0.33 0.18 -0.32 0.17 -0.33 0.16 -0.35 0.16 -0.33 0.13 -0.34 0.15 -0.35 0.12 -0.36 0.12 -0.35 0.11 -0.36 0.11 -0.37 0.09 -0.36 0.08 -0.37 0.07 -0.36 0.06 -0.38 0.05 -0.37 0.03 -0.39 0.03 -0.37 0.01 -0.39 0.02 -0.56 -0.02 -0.54 -0.04 -0.53 -0.06 -0.52 -0.08 -0.51 -0.11 -0.49 -0.12 -0.47 -0.15 -0.46 -0.17 -0.45 -0.19 -0.43 -0.21 -0.42 -0.22 -0.39 -0.24 -0.39 -0.26 -0.36 -0.29 -0.35 -0.28 -0.33 -0.32 -0.3 -0.33 -0.29 -0.33 -0.27 -0.36 -0.24 -0.36 -0.21 -0.39 -0.2 -0.39 -0.18 -0.41 -0.15 -0.4 -0.12 -0.42 -0.11 -0.43 -0.07 -0.45 -0.05 -0.45 -0.03 -0.47 0.01 -0.46 0.03 -0.48 0.06 -0.48 0.09 -0.46 0.12 -0.48 0.15 -0.47 0.16 -0.45 0.2 -0.45 0.21 -0.45 0.24 -0.44 0.27 -0.42 0.29 -0.4 0.3 -0.41 0.33 -0.39 0.35 -0.39 0.36 -0.36 0.37 -0.36 0.4 -0.33 0.4 -0.33 0.44 -0.32 0.43 -0.28 0.46 -0.29 0.47 -0.26 0.48 -0.25 0.49 -0.23 0.5 -0.21 0.51 -0.18 0.53 -0.18 0.53 -0.13 0.54 -0.13 0.54 -0.11 0.56 -0.09 0.54 -0.06 0.57 -0.03 0.55 -0.01 0.36 0.01 0.36 0.02 0.36 0.01 0.36 0.05 0.35 0.05 0.34 0.06 0.33 0.06 0.33 0.08 0.33 0.09 0.31 0.09 0.32 0.11 0.32 0.12 0.29 0.12 0.3 0.12 0.29 0.15 0.27 0.13 0.27 0.16 0.27 0.15 0.26 0.18 0.24 0.16 0.24 0.19 0.22 0.18 0.21 0.19 0.21 0.21 0.19 0.21 0.19 0.21 0.18 0.22 0.17 0.24 0.16 0.23 0.15 0.24 0.13 0.24 0.12 0.25 1.25 -0.49 1.01 -0.39 0.82 -0.33 0.74 -0.3 0.72 -0.3 0.78 -0.33 0.92 -0.37 1.14 -0.48 -0.24 -0.45 -0.25 -0.44 -0.27 -0.42 -0.29 -0.42 -0.3 -0.4 -0.32 -0.41 -0.33 -0.39 -0.35 -0.37 -0.37 -0.36 -0.37 -0.36 -0.39 -0.35 -0.41 -0.33 -0.42 -0.32 -0.42 -0.3 -0.45 -0.28 -0.46 -0.29 -0.48 -0.26 -0.48 -0.25 -0.5 -0.24 -0.53 -0.21 -0.52 -0.21 -0.54 -0.18 -0.54 -0.16 -0.57 -0.16 -0.57 -0.13 -0.59 -0.12 -0.6 -0.11 -0.62 -0.08 -0.63 -0.07 -0.63 -0.05 -0.64 -0.03 -0.66 -0.02 -0.94 0.03 -0.95 0.06 -0.94 0.11 -0.93 0.13 -0.93 0.18 -0.9 0.22 -0.9 0.26 -0.9 0.28 -0.87 0.32 -0.86 0.36 -0.84 0.39 -0.82 0.42 -0.8 0.43 -0.78 0.48 -0.75 0.51 -0.73 0.53 -0.71 0.56 -0.67 0.59 -0.66 0.6 -0.62 0.63 -0.59 0.64 -0.56 0.68 -0.52 0.69 -0.5 0.71 -0.45 0.72 -0.4 0.74 -0.37 0.75 -0.33 0.78 -0.28 0.78 -0.24 0.8 -0.21 0.8 -0.15 0.81 -0.12 0.83 -0.06 0.81 -0.01 0.81 0.03 0.78 0.09 0.77 0.12 0.77 0.16 0.74 0.23 0.73 0.25 0.71 0.29 0.69 0.35 0.66 0.37 0.65 0.42 0.63 0.45 0.6 0.5 0.59 0.53 0.56 0.55 0.52 0.59 0.51 0.63 0.47 0.64 0.45 0.69 0.4 0.72 0.39 0.74 0.36 0.77 0.32 0.79 0.28 0.83 0.26 0.84 0.21 0.87 0.18 0.88 0.13 0.9 0.11 0.93 0.06 0.94 0.02 0.67 0 0.66 -0.03 0.68 -0.04 0.66 -0.08 0.64 -0.09 0.66 -0.11 0.64 -0.12 0.63 -0.15 0.63 -0.15 0.63 -0.18 0.62 -0.19 0.62 -0.21 0.6 -0.23 0.59 -0.24 0.59 -0.25 0.59 -0.27 0.56 -0.3 0.56 -0.3 0.56 -0.32 0.52 -0.33 0.53 -0.35 0.51 -0.35 0.51 -0.37 0.48 -0.39 0.48 -0.39 0.47 -0.41 0.45 -0.42 0.43 -0.42 0.42 -0.45 0.4 -0.45 0.39 -0.45 0.37 -0.48zm27.77 8.34l7.86 0 5.16 -31.49 -7.86 0 -1.85 11.33 -16.92 0 1.85 -11.42 -7.83 0 -5.16 31.58 7.83 0 2.19 -13.41 16.92 0 -2.19 13.41z"/>
  </g>
 </g>
</svg>
