<?xml version="1.0" encoding="UTF-8"?>
<!DOCTYPE svg PUBLIC "-//W3C//DTD SVG 1.1//EN" "http://www.w3.org/Graphics/SVG/1.1/DTD/svg11.dtd">
<!-- Creator: CorelDRAW 2018 (64 Bit Versión de evaluación) -->
<svg xmlns="http://www.w3.org/2000/svg" xml:space="preserve" width="234.132mm" height="107.071mm" version="1.1" style="shape-rendering:geometricPrecision; text-rendering:geometricPrecision; image-rendering:optimizeQuality; fill-rule:evenodd; clip-rule:evenodd"
viewBox="0 0 3585.03 1639.48"
 xmlns:xlink="http://www.w3.org/1999/xlink">
 <defs>
  <style type="text/css">
   <![CDATA[
    .fil0 {fill:#78B441}
    .fil2 {fill:white}
    .fil1 {fill:white;fill-rule:nonzero}
   ]]>
  </style>
 </defs>
 <g id="Capa_x0020_1">
  <metadata id="CorelCorpID_0Corel-Layer"/>
  <rect class="fil0" x="-0" width="3585.03" height="1639.48"/>
  <polygon class="fil1" points="1629.73,593.94 1674.79,593.94 1674.79,753.27 1629.73,753.27 "/>
  <path id="1" class="fil1" d="M1785.19 627.86c15.33,0 27.66,4.55 36.99,13.66 9.33,9.1 14,22.84 14,41.2l0 70.56 -43.25 0 0 -63.51c0,-16.84 -6.75,-25.27 -20.26,-25.27 -7.44,0 -13.39,2.43 -17.87,7.28 -4.48,4.86 -6.71,12.14 -6.71,21.85l0 59.64 -43.25 0 0 -123.37 41.2 0 0 13.43c4.86,-5.01 10.62,-8.84 17.3,-11.49 6.68,-2.66 13.96,-3.98 21.85,-3.98z"/>
  <path id="2" class="fil1" d="M1997.79 629.9l0 100.83c0,22.91 -6.22,40.1 -18.66,51.56 -12.44,11.46 -30.35,17.19 -53.72,17.19 -12.14,0 -23.52,-1.37 -34.14,-4.1 -10.62,-2.73 -19.65,-6.75 -27.09,-12.06l15.71 -30.27c5.01,4.1 11.34,7.32 19.01,9.67 7.66,2.35 15.21,3.53 22.65,3.53 11.38,0 19.73,-2.5 25.04,-7.51 5.31,-5.01 7.97,-12.44 7.97,-22.31l0 -4.1c-8.35,9.71 -20.56,14.57 -36.65,14.57 -10.93,0 -21.02,-2.47 -30.27,-7.4 -9.26,-4.93 -16.62,-11.91 -22.08,-20.94 -5.46,-9.03 -8.19,-19.46 -8.19,-31.3 0,-11.68 2.73,-22.04 8.19,-31.07 5.46,-9.03 12.82,-16.01 22.08,-20.94 9.26,-4.93 19.35,-7.4 30.27,-7.4 17.6,0 30.5,5.69 38.7,17.07l0 -15.02 41.2 0zm-69.65 82.63c7.74,0 14.15,-2.35 19.23,-7.06 5.08,-4.71 7.63,-10.78 7.63,-18.21 0,-7.44 -2.5,-13.47 -7.51,-18.1 -5.01,-4.63 -11.46,-6.94 -19.35,-6.94 -7.89,0 -14.38,2.32 -19.46,6.94 -5.08,4.63 -7.63,10.66 -7.63,18.1 0,7.44 2.58,13.51 7.74,18.21 5.16,4.7 11.61,7.06 19.35,7.06z"/>
  <path id="3" class="fil1" d="M2151.66 691.82c0,0.3 -0.23,3.87 -0.68,10.7l-89.68 0c1.82,6.37 5.35,11.27 10.58,14.68 5.24,3.41 11.8,5.12 19.69,5.12 5.92,0 11.04,-0.83 15.36,-2.5 4.32,-1.67 8.69,-4.4 13.09,-8.2l22.76 23.67c-11.99,13.35 -29.52,20.03 -52.58,20.03 -14.42,0 -27.09,-2.73 -38.01,-8.2 -10.93,-5.46 -19.39,-13.05 -25.38,-22.76 -5.99,-9.71 -8.99,-20.71 -8.99,-33.01 0,-12.14 2.92,-23.03 8.76,-32.66 5.84,-9.64 13.92,-17.18 24.24,-22.65 10.32,-5.46 21.93,-8.19 34.83,-8.19 12.29,0 23.44,2.54 33.46,7.63 10.01,5.08 17.94,12.44 23.79,22.08 5.84,9.64 8.76,21.05 8.76,34.26zm-65.78 -33.23c-6.68,0 -12.25,1.9 -16.73,5.69 -4.48,3.79 -7.32,8.95 -8.53,15.48l50.53 0c-1.21,-6.53 -4.06,-11.68 -8.54,-15.48 -4.48,-3.79 -10.05,-5.69 -16.73,-5.69z"/>
  <path id="4" class="fil1" d="M2252.04 627.86c15.33,0 27.66,4.55 36.99,13.66 9.33,9.1 14,22.84 14,41.2l0 70.56 -43.25 0 0 -63.51c0,-16.84 -6.75,-25.27 -20.26,-25.27 -7.44,0 -13.39,2.43 -17.87,7.28 -4.48,4.86 -6.71,12.14 -6.71,21.85l0 59.64 -43.25 0 0 -123.37 41.2 0 0 13.43c4.86,-5.01 10.62,-8.84 17.3,-11.49 6.68,-2.66 13.96,-3.98 21.85,-3.98z"/>
  <path id="5" class="fil1" d="M2330.11 629.9l43.25 0 0 123.37 -43.25 0 0 -123.37zm21.62 -13.66c-7.89,0 -14.26,-2.2 -19.12,-6.6 -4.86,-4.4 -7.28,-9.86 -7.28,-16.39 0,-6.52 2.43,-11.99 7.28,-16.39 4.86,-4.4 11.23,-6.6 19.12,-6.6 7.89,0 14.26,2.09 19.12,6.26 4.86,4.17 7.28,9.52 7.28,16.05 0,6.83 -2.43,12.48 -7.28,16.96 -4.86,4.48 -11.23,6.71 -19.12,6.71z"/>
  <path id="6" class="fil1" d="M2527.46 691.82c0,0.3 -0.23,3.87 -0.68,10.7l-89.68 0c1.82,6.37 5.35,11.27 10.58,14.68 5.24,3.41 11.8,5.12 19.69,5.12 5.92,0 11.04,-0.83 15.36,-2.5 4.32,-1.67 8.69,-4.4 13.09,-8.2l22.76 23.67c-11.99,13.35 -29.52,20.03 -52.58,20.03 -14.42,0 -27.09,-2.73 -38.01,-8.2 -10.93,-5.46 -19.39,-13.05 -25.38,-22.76 -5.99,-9.71 -8.99,-20.71 -8.99,-33.01 0,-12.14 2.92,-23.03 8.76,-32.66 5.84,-9.64 13.92,-17.18 24.24,-22.65 10.32,-5.46 21.93,-8.19 34.83,-8.19 12.29,0 23.44,2.54 33.46,7.63 10.01,5.08 17.94,12.44 23.79,22.08 5.84,9.64 8.76,21.05 8.76,34.26zm-65.78 -33.23c-6.68,0 -12.25,1.9 -16.73,5.69 -4.48,3.79 -7.32,8.95 -8.53,15.48l50.53 0c-1.21,-6.53 -4.06,-11.68 -8.54,-15.48 -4.48,-3.79 -10.05,-5.69 -16.73,-5.69z"/>
  <path id="7" class="fil1" d="M2588.69 644.7c4.4,-5.61 10.13,-9.83 17.19,-12.63 7.06,-2.81 15.14,-4.21 24.24,-4.21l0 38.92c-3.94,-0.45 -7.21,-0.68 -9.79,-0.68 -9.26,0 -16.5,2.5 -21.74,7.51 -5.24,5.01 -7.85,12.67 -7.85,22.99l0 56.68 -43.25 0 0 -123.37 41.2 0 0 14.79z"/>
  <path id="8" class="fil1" d="M2647.87 629.9l43.25 0 0 123.37 -43.25 0 0 -123.37zm29.82 -49.39l43.25 0 -42.79 34.6 -30.96 0 30.5 -34.6z"/>
  <path id="9" class="fil1" d="M2771.69 627.86c20.49,0 36.11,4.67 46.89,14 10.77,9.33 16.16,23.63 16.16,42.91l0 68.51 -40.29 0 0 -15.93c-6.22,11.99 -18.36,17.98 -36.42,17.98 -9.56,0 -17.83,-1.67 -24.81,-5.01 -6.98,-3.34 -12.25,-7.85 -15.82,-13.54 -3.57,-5.69 -5.35,-12.18 -5.35,-19.46 0,-11.68 4.48,-20.75 13.43,-27.2 8.95,-6.45 22.76,-9.67 41.43,-9.67l24.58 0c-0.76,-13.05 -9.48,-19.58 -26.18,-19.58 -5.92,0 -11.91,0.95 -17.98,2.85 -6.07,1.9 -11.23,4.51 -15.48,7.85l-14.57 -29.36c6.83,-4.55 15.14,-8.08 24.92,-10.59 9.79,-2.5 19.61,-3.75 29.48,-3.75zm-1.59 100.15c5.01,0 9.41,-1.21 13.2,-3.64 3.79,-2.43 6.53,-5.99 8.2,-10.7l0 -10.7 -18.67 0c-12.59,0 -18.89,4.17 -18.89,12.52 0,3.79 1.44,6.83 4.32,9.11 2.88,2.28 6.83,3.41 11.84,3.41z"/>
  <path id="10" class="fil1" d="M1736.48 1036.2l-67.38 0 -12.52 30.96 -45.98 0 70.33 -159.33 44.39 0 70.56 159.33 -46.89 0 -12.52 -30.96zm-13.2 -33.23l-20.49 -50.99 -20.49 50.99 40.97 0z"/>
  <path id="11" class="fil1" d="M1967.29 941.74c15.17,0 27.28,4.55 36.3,13.66 9.03,9.1 13.54,22.84 13.54,41.2l0 70.56 -43.25 0 0 -63.51c0,-8.65 -1.63,-15.02 -4.89,-19.12 -3.26,-4.1 -7.85,-6.15 -13.77,-6.15 -6.52,0 -11.76,2.28 -15.71,6.83 -3.95,4.55 -5.92,11.46 -5.92,20.71l0 61.23 -43.25 0 0 -63.51c0,-16.84 -6.22,-25.27 -18.67,-25.27 -6.68,0 -11.99,2.28 -15.93,6.83 -3.95,4.55 -5.92,11.46 -5.92,20.71l0 61.23 -43.25 0 0 -123.37 41.2 0 0 12.97c4.55,-5.01 9.98,-8.76 16.28,-11.27 6.3,-2.5 13.16,-3.75 20.6,-3.75 8.65,0 16.39,1.59 23.22,4.78 6.83,3.19 12.37,8.04 16.62,14.57 4.86,-6.22 11,-11 18.44,-14.34 7.44,-3.34 15.55,-5.01 24.36,-5.01z"/>
  <path id="12" class="fil1" d="M2122.07 941.74c11.23,0 21.43,2.58 30.61,7.74 9.18,5.16 16.47,12.56 21.85,22.19 5.39,9.64 8.08,20.83 8.08,33.57 0,12.75 -2.69,23.98 -8.08,33.69 -5.39,9.71 -12.67,17.18 -21.85,22.42 -9.18,5.24 -19.39,7.85 -30.61,7.85 -16.24,0 -28.38,-4.78 -36.42,-14.34l0 12.29 -41.2 0 0 -168.89 43.25 0 0 56.22c8.35,-8.5 19.8,-12.75 34.37,-12.75zm-9.1 93.1c7.59,0 13.81,-2.62 18.66,-7.85 4.86,-5.24 7.28,-12.48 7.28,-21.74 0,-9.1 -2.43,-16.24 -7.28,-21.4 -4.86,-5.16 -11.08,-7.74 -18.66,-7.74 -7.59,0 -13.81,2.58 -18.67,7.74 -4.86,5.16 -7.28,12.29 -7.28,21.4 0,9.26 2.43,16.5 7.28,21.74 4.86,5.24 11.08,7.85 18.67,7.85z"/>
  <path id="13" class="fil1" d="M2202.64 943.79l43.25 0 0 123.37 -43.25 0 0 -123.37zm21.62 -13.66c-7.89,0 -14.26,-2.2 -19.12,-6.6 -4.86,-4.4 -7.28,-9.86 -7.28,-16.39 0,-6.52 2.43,-11.99 7.28,-16.39 4.86,-4.4 11.23,-6.6 19.12,-6.6 7.89,0 14.26,2.09 19.12,6.26 4.86,4.17 7.28,9.52 7.28,16.05 0,6.83 -2.43,12.48 -7.28,16.96 -4.86,4.48 -11.23,6.71 -19.12,6.71z"/>
  <path id="14" class="fil1" d="M2399.99 1005.7c0,0.3 -0.23,3.87 -0.68,10.7l-89.68 0c1.82,6.37 5.35,11.27 10.58,14.68 5.24,3.41 11.8,5.12 19.69,5.12 5.92,0 11.04,-0.83 15.36,-2.5 4.32,-1.67 8.69,-4.4 13.09,-8.2l22.76 23.67c-11.99,13.35 -29.52,20.03 -52.58,20.03 -14.42,0 -27.09,-2.73 -38.01,-8.2 -10.93,-5.46 -19.39,-13.05 -25.38,-22.76 -5.99,-9.71 -8.99,-20.71 -8.99,-33.01 0,-12.14 2.92,-23.03 8.76,-32.66 5.84,-9.64 13.92,-17.18 24.24,-22.65 10.32,-5.46 21.93,-8.19 34.83,-8.19 12.29,0 23.44,2.54 33.46,7.63 10.01,5.08 17.94,12.44 23.79,22.08 5.84,9.64 8.76,21.05 8.76,34.26zm-65.78 -33.23c-6.68,0 -12.25,1.9 -16.73,5.69 -4.48,3.79 -7.32,8.95 -8.53,15.48l50.53 0c-1.21,-6.53 -4.06,-11.68 -8.54,-15.48 -4.48,-3.79 -10.05,-5.69 -16.73,-5.69z"/>
  <path id="15" class="fil1" d="M2500.37 941.74c15.33,0 27.66,4.55 36.99,13.66 9.33,9.1 14,22.84 14,41.2l0 70.56 -43.25 0 0 -63.51c0,-16.84 -6.75,-25.27 -20.26,-25.27 -7.44,0 -13.39,2.43 -17.87,7.28 -4.48,4.86 -6.71,12.14 -6.71,21.85l0 59.64 -43.25 0 0 -123.37 41.2 0 0 13.43c4.86,-5.01 10.62,-8.84 17.3,-11.49 6.68,-2.66 13.96,-3.98 21.85,-3.98z"/>
  <path id="16" class="fil1" d="M2663.57 1062.15c-3.64,2.28 -8.08,4.02 -13.32,5.24 -5.24,1.21 -10.81,1.82 -16.73,1.82 -16.09,0 -28.45,-3.95 -37.1,-11.84 -8.65,-7.89 -12.98,-19.65 -12.98,-35.28l0 -41.43 -17.98 0 0 -32.32 17.98 0 0 -32.1 43.25 0 0 32.1 28.22 0 0 32.32 -28.22 0 0 40.97c0,4.4 1.18,7.85 3.53,10.36 2.35,2.5 5.5,3.76 9.45,3.76 5.01,0 9.41,-1.29 13.2,-3.87l10.7 30.27z"/>
  <path id="17" class="fil1" d="M2732.77 941.74c20.49,0 36.11,4.67 46.89,14 10.77,9.33 16.16,23.63 16.16,42.91l0 68.51 -40.29 0 0 -15.93c-6.22,11.99 -18.36,17.98 -36.42,17.98 -9.56,0 -17.83,-1.67 -24.81,-5.01 -6.98,-3.34 -12.25,-7.85 -15.82,-13.54 -3.57,-5.69 -5.35,-12.18 -5.35,-19.46 0,-11.68 4.48,-20.75 13.43,-27.2 8.95,-6.45 22.76,-9.67 41.43,-9.67l24.58 0c-0.76,-13.05 -9.48,-19.58 -26.18,-19.58 -5.92,0 -11.91,0.95 -17.98,2.85 -6.07,1.9 -11.23,4.51 -15.48,7.85l-14.57 -29.36c6.83,-4.55 15.14,-8.08 24.92,-10.59 9.79,-2.5 19.61,-3.75 29.48,-3.75zm-1.59 100.15c5.01,0 9.41,-1.21 13.2,-3.64 3.79,-2.43 6.53,-5.99 8.2,-10.7l0 -10.7 -18.67 0c-12.59,0 -18.89,4.17 -18.89,12.52 0,3.79 1.44,6.83 4.32,9.11 2.88,2.28 6.83,3.41 11.84,3.41z"/>
  <polygon id="18" class="fil1" points="2823.14,898.27 2866.38,898.27 2866.38,1067.16 2823.14,1067.16 "/>
  <g id="_1380381937792">
   <path class="fil2" d="M829.82 964.39c2.63,-7.3 10.49,-16.16 16.29,-24.08 3,-4.1 5.76,-7.57 9.32,-11.55 3.65,-4.08 5.36,-8.35 11.18,-11.03l-0.11 -83.81 64.54 -0.44 -0.01 28.87c2.81,-1.31 5.62,-3.19 8.53,-4.89 2.21,-1.29 0.57,-0.64 3.69,-2.11 3.12,-1.47 -0.38,-0.66 4.36,-1.5l0.01 -74.07 64.39 -0.29 0.09 46.59 16.61 -3.93 0 -101.28 64.02 -0 0.41 91.12c18.27,-0.81 34.6,-1.07 52.89,0.04l0.27 2.06c5.19,-3.14 3.74,-6.27 14.54,-12.47 7.21,-4.14 12.48,-4.81 19.31,-8.29 -0.18,-11.45 -6.05,-25.37 -9.09,-35.81 -19.35,3.07 -42.23,4.67 -50.69,-11.98 -11.14,-21.94 13.62,-43.04 15.28,-48.45 -5.47,-7.88 -17.81,-18.65 -24.87,-25.32 -5.43,2.62 -11.31,9.63 -19.66,13.68 -7.43,3.61 -17.98,6.54 -27.05,2.68 -7.97,-3.4 -12.25,-8.66 -14.98,-18.52 -3.91,-14.16 1.1,-21.85 0.35,-32.82 -7.47,-3.38 -26.1,-8.57 -34.86,-9.08 -4.83,9.25 -5.32,15.98 -11.68,24.08 -18.33,23.34 -41.3,13.4 -52.7,-10.93 -1.72,-3.66 -3,-9.44 -5.19,-13.13 -12.46,0.58 -24.6,6.54 -35.33,8.64 2.34,21.91 5.81,42.08 -12.56,51.16 -8.77,4.33 -19.57,2.29 -27.8,-1.71 -8.81,-4.28 -14.88,-11.41 -20.52,-14.09 -3.22,3.49 -8.76,8.21 -12.47,11.77 -3.6,3.45 -9.42,9.4 -12.3,13.59 2.26,6.08 25.37,25.96 15.61,47.72 -8.08,18.03 -29.28,15.46 -50.91,12.82 -3.17,8.41 -8.94,25.74 -9.17,35.7 4.08,2.1 8.4,2.73 12.44,4.6 10.99,5.11 25,14.95 24.87,30.19 -0.21,23.75 -30.57,30.53 -37.57,34.78 1.34,13.13 6.53,23.96 8.74,35.31 21.31,-2.73 42.3,-5.49 51.37,12.34 4.4,8.64 2.09,20.29 -1.76,28.2 -4.11,8.43 -12.04,15.6 -14.1,20.26 2.61,2.7 1.93,3.47 6.25,5.36z"/>
   <path class="fil2" d="M868.11 1019.61c2.9,0.39 1.47,-0.21 2.87,0.94 -11.26,6.8 -19.4,15.34 -37.29,15.58 -20.44,0.26 -31.15,-12.67 -37.24,-15.99 3.29,8.78 21.41,25.85 29.92,32.12 12.56,9.25 31.44,12.41 49.07,12.41 61.01,-0.02 127.4,-39.09 177.08,-71.01 12.26,-7.88 24.41,-15.98 36.99,-24.44 11.25,-7.56 24.69,-18.95 36.11,-25.85 -0.93,5.95 -8.58,12.48 -11.48,19.88l3.18 -2.23c-7.2,19.46 -49.18,61.79 -66.35,75.09 -12.65,9.8 -26.45,19.42 -42.35,27.18 -15.04,7.34 -27.2,13.12 -43.41,18.11 -0.21,0.06 -2.9,1.04 -3.28,1.22 -2.96,1.41 2.43,-1.38 -1.6,0.87l-1.65 1.03c68.27,1.03 133.45,8.46 184.68,-40.68 21.81,-20.91 30.88,-39.83 46.32,-66.14 4.91,-8.36 39.72,-66.39 40.99,-73.34 -42.05,-11.44 -60.8,-18.86 -109.42,-19.85 -75.86,-1.53 -136.74,20.41 -190.43,67.43 -31.47,27.56 -43.73,55.57 -57.66,63.89l-5.08 3.79z"/>
   <path class="fil2" d="M1123.52 653.08l57.95 97.45c17.38,28.46 30.37,51.36 27.16,87.71 -1.18,13.4 -5.16,21.12 -7.5,32.17 1.97,-1.5 14.71,-22.98 15.83,-25.16 11.77,-23 17.77,-36.22 16.85,-64.68 -0.5,-15.55 -6.86,-32.32 -4.86,-32.74 -1.5,-5.37 -5.67,-11.2 -8.2,-15.6 -3.22,-5.6 -5.96,-10.06 -8.99,-15.42 -12.4,-21.98 -39.83,-71.03 -53.76,-88.87 -12.17,-15.59 -31.65,-31.13 -53.46,-41.61 -26.15,-12.57 -48.21,-14.65 -80.3,-14.65 2.67,1.58 14.35,2.46 19.13,3.86 5.98,1.76 11.52,3.65 17.17,6.02l7.26 4.39c2.76,1.86 4.66,2.28 7.45,3.99 18.93,11.61 31.8,29.73 42.23,49.56 4.4,8.37 8.82,11.06 6.06,13.58z"/>
   <path class="fil2" d="M783.85 655.81c-4.02,4.16 -13.28,21.79 -16.86,27.99 -11.28,19.51 -41.21,69.47 -48.39,87.12 -14.35,35.3 -14.73,77.48 -0.28,113.58 3.4,8.49 9.98,23.65 15.57,29.59 -1.11,-5.8 -3.62,-10.15 -4.92,-16.33 -7.01,-33.36 -2.66,-58.19 14.28,-86.94 2.09,-3.55 13.67,-24.68 16.22,-26.96l28.14 -49.46c5.39,-9.08 9.24,-16.63 14.29,-25.01 4.9,-8.12 10.02,-16.45 14.59,-24.89 19.29,-35.6 45.63,-64.41 89.25,-68.68 -6.78,-3.62 -31.21,-1.4 -40.77,-1.12 -11.44,0.34 -24.33,3.76 -33.47,7.18 -30.05,11.25 -40.51,29.11 -47.65,33.94z"/>
   <path class="fil2" d="M783.85 655.81c7.14,-4.83 17.6,-22.69 47.65,-33.94 9.14,-3.42 22.03,-6.84 33.47,-7.18 9.56,-0.28 33.98,-2.5 40.77,1.12 15.56,-2.43 104.65,-1.12 127.41,-1.12 33.69,0 58.66,8.89 82.25,30.3 3.16,2.87 5.02,5.81 8.12,8.09 2.76,-2.53 -1.66,-5.21 -6.06,-13.58 -10.43,-19.83 -23.3,-37.95 -42.23,-49.56 -2.79,-1.71 -4.69,-2.13 -7.45,-3.99l-7.26 -4.39c-5.65,-2.37 -11.19,-4.26 -17.17,-6.02 -4.78,-1.41 -16.46,-2.28 -19.13,-3.86 -68.54,0.13 -128.09,-9.04 -181.18,21.17 -21.23,12.08 -51.93,40.93 -59.21,62.97z"/>
   <path class="fil2" d="M733.89 914.08l45.98 80.41c4.01,6.89 10.14,20.83 16.59,25.65 6.09,3.32 16.8,16.25 37.24,15.99 17.89,-0.23 26.03,-8.77 37.29,-15.58 -1.41,-1.15 0.02,-0.55 -2.87,-0.94 -16.99,0.67 -21.53,-5.32 -29.54,-14.33 -13,-14.61 -24.3,-37.73 -34.87,-55.49 -5.47,-9.19 -11.78,-19.72 -16.67,-28.64 -26.81,-48.95 -49.4,-69.69 -27.56,-137.3 -2.54,2.28 -14.12,23.41 -16.22,26.96 -16.93,28.75 -21.29,53.58 -14.28,86.94 1.3,6.18 3.8,10.53 4.92,16.33z"/>
   <path class="fil2" d="M1146.31 814.1l-0.27 -2.06c-18.29,-1.12 -34.61,-0.85 -52.89,-0.04l0.01 56.01c15.01,0.4 29.39,-0.61 44.46,0.48 14.4,1.04 27.2,3.44 40.87,4.94l2.04 -10.47c-5.18,-3.2 -32.39,-9.42 -36.99,-29.3 -1.82,-7.87 1.72,-14 2.77,-19.56z"/>
   <path class="fil2" d="M1201.12 870.41l-2.88 6.34c1.98,1.15 37.61,12.38 41.28,13.12 8.56,-25.49 14.93,-44.7 11.93,-75.85 -1.28,-13.34 -3.84,-24.39 -7.83,-36.36 -2.41,-7.24 -10.52,-26.66 -14.7,-29.82 -2,0.42 4.36,17.18 4.86,32.74 0.91,28.46 -5.08,41.68 -16.85,64.68 -1.12,2.18 -13.85,23.65 -15.83,25.16z"/>
   <path class="fil2" d="M1114.15 963.24c-3.03,2.16 -6.05,7.04 -8.65,10.25 -3.03,3.74 -6.03,6.97 -9.27,10.56 -41.99,46.59 -101.55,78.96 -162.72,95.82 -4.91,1.35 -12.08,2.23 -16.5,4.32l41.67 0.33 1.65 -1.03c4.03,-2.25 -1.35,0.54 1.6,-0.87 0.37,-0.18 3.07,-1.16 3.28,-1.22 16.21,-4.99 28.37,-10.77 43.41,-18.11 15.9,-7.76 29.69,-17.38 42.35,-27.18 17.17,-13.3 59.16,-55.63 66.35,-75.09l-3.18 2.23z"/>
   <path class="fil2" d="M829.82 964.39c1.72,4.77 16.13,18.2 20.11,19.56 5.76,-3.87 8.55,-8.59 16.24,-11.91l0.44 -54.31c-5.82,2.68 -7.53,6.95 -11.18,11.03 -3.57,3.99 -6.32,7.46 -9.32,11.55 -5.8,7.92 -13.66,16.77 -16.29,24.08z"/>
   <path class="fil2" d="M931.03 862.36l-0.03 66.81c3.92,-1.98 12.22,-8.54 16.15,-11.76l0.45 -63.55c-4.74,0.84 -1.23,0.03 -4.36,1.5 -3.12,1.47 -1.48,0.82 -3.69,2.11 -2.91,1.7 -5.72,3.58 -8.53,4.89z"/>
   <polygon class="fil2" points="1012.1,826.09 1012.08,883.94 1028.54,879.12 1028.71,822.16 "/>
  </g>
 </g>
</svg>
