<?xml version="1.0" encoding="UTF-8"?>
<!DOCTYPE svg PUBLIC "-//W3C//DTD SVG 1.1//EN" "http://www.w3.org/Graphics/SVG/1.1/DTD/svg11.dtd">
<!-- Creator: CorelDRAW 2018 (64 Bit Versión de evaluación) -->
<svg xmlns="http://www.w3.org/2000/svg" xml:space="preserve" width="234.132mm" height="107.071mm" version="1.1" style="shape-rendering:geometricPrecision; text-rendering:geometricPrecision; image-rendering:optimizeQuality; fill-rule:evenodd; clip-rule:evenodd"
viewBox="0 0 3540.57 1619.14"
 xmlns:xlink="http://www.w3.org/1999/xlink">
 <defs>
  <style type="text/css">
   <![CDATA[
    .fil0 {fill:#FCB72E}
    .fil2 {fill:white}
    .fil1 {fill:white;fill-rule:nonzero}
   ]]>
  </style>
 </defs>
 <g id="Capa_x0020_1">
  <metadata id="CorelCorpID_0Corel-Layer"/>
  <rect class="fil0" x="-0" width="3540.56" height="1619.14"/>
  <polygon class="fil1" points="1609.51,586.57 1654.02,586.57 1654.02,743.93 1609.51,743.93 "/>
  <path id="1" class="fil1" d="M1763.05 620.07c15.14,0 27.31,4.5 36.53,13.49 9.22,8.99 13.82,22.55 13.82,40.69l0 69.69 -42.71 0 0 -62.72c0,-16.64 -6.67,-24.95 -20.01,-24.95 -7.34,0 -13.23,2.4 -17.65,7.19 -4.42,4.8 -6.63,11.99 -6.63,21.58l0 58.9 -42.71 0 0 -121.84 40.69 0 0 13.26c4.8,-4.94 10.49,-8.73 17.08,-11.35 6.59,-2.62 13.79,-3.93 21.58,-3.93z"/>
  <path id="2" class="fil1" d="M1973.01 622.09l0 99.58c0,22.63 -6.14,39.6 -18.43,50.92 -12.29,11.32 -29.97,16.97 -53.05,16.97 -11.99,0 -23.23,-1.35 -33.72,-4.05 -10.49,-2.7 -19.41,-6.67 -26.75,-11.91l15.51 -29.9c4.95,4.05 11.2,7.23 18.77,9.55 7.57,2.32 15.02,3.48 22.37,3.48 11.24,0 19.48,-2.47 24.73,-7.42 5.25,-4.95 7.87,-12.29 7.87,-22.03l0 -4.05c-8.24,9.59 -20.31,14.39 -36.19,14.39 -10.79,0 -20.76,-2.44 -29.9,-7.31 -9.14,-4.87 -16.41,-11.76 -21.81,-20.68 -5.39,-8.92 -8.09,-19.22 -8.09,-30.91 0,-11.54 2.7,-21.77 8.09,-30.68 5.4,-8.92 12.66,-15.81 21.81,-20.68 9.14,-4.87 19.11,-7.31 29.9,-7.31 17.38,0 30.12,5.62 38.22,16.86l0 -14.84 40.69 0zm-68.79 81.6c7.64,0 13.97,-2.32 18.99,-6.97 5.02,-4.65 7.53,-10.64 7.53,-17.98 0,-7.34 -2.47,-13.3 -7.42,-17.87 -4.95,-4.57 -11.32,-6.86 -19.11,-6.86 -7.79,0 -14.2,2.29 -19.22,6.86 -5.02,4.57 -7.53,10.53 -7.53,17.87 0,7.34 2.55,13.34 7.64,17.98 5.1,4.65 11.47,6.97 19.11,6.97z"/>
  <path id="3" class="fil1" d="M2124.97 683.23c0,0.3 -0.22,3.82 -0.67,10.57l-88.57 0c1.8,6.29 5.28,11.13 10.45,14.5 5.17,3.37 11.65,5.06 19.45,5.06 5.84,0 10.9,-0.82 15.17,-2.47 4.27,-1.65 8.58,-4.35 12.92,-8.09l22.48 23.38c-11.84,13.19 -29.15,19.78 -51.93,19.78 -14.24,0 -26.75,-2.7 -37.54,-8.09 -10.79,-5.39 -19.14,-12.89 -25.06,-22.48 -5.92,-9.59 -8.88,-20.46 -8.88,-32.6 0,-11.99 2.88,-22.74 8.65,-32.26 5.77,-9.52 13.75,-16.97 23.94,-22.37 10.19,-5.4 21.66,-8.09 34.4,-8.09 12.14,0 23.15,2.51 33.04,7.53 9.89,5.02 17.72,12.29 23.49,21.8 5.77,9.52 8.65,20.79 8.65,33.83zm-64.97 -32.82c-6.59,0 -12.1,1.87 -16.52,5.62 -4.42,3.75 -7.23,8.84 -8.43,15.29l49.9 0c-1.2,-6.45 -4.01,-11.54 -8.43,-15.29 -4.42,-3.75 -9.93,-5.62 -16.52,-5.62z"/>
  <path id="4" class="fil1" d="M2224.1 620.07c15.14,0 27.31,4.5 36.53,13.49 9.22,8.99 13.82,22.55 13.82,40.69l0 69.69 -42.71 0 0 -62.72c0,-16.64 -6.67,-24.95 -20.01,-24.95 -7.34,0 -13.23,2.4 -17.65,7.19 -4.42,4.8 -6.63,11.99 -6.63,21.58l0 58.9 -42.71 0 0 -121.84 40.69 0 0 13.26c4.8,-4.94 10.49,-8.73 17.08,-11.35 6.59,-2.62 13.79,-3.93 21.58,-3.93z"/>
  <path id="5" class="fil1" d="M2301.21 622.09l42.71 0 0 121.84 -42.71 0 0 -121.84zm21.36 -13.49c-7.79,0 -14.09,-2.17 -18.88,-6.52 -4.8,-4.35 -7.19,-9.74 -7.19,-16.19 0,-6.44 2.4,-11.84 7.19,-16.19 4.8,-4.35 11.09,-6.52 18.88,-6.52 7.79,0 14.09,2.06 18.88,6.18 4.8,4.12 7.19,9.4 7.19,15.85 0,6.74 -2.4,12.33 -7.19,16.75 -4.8,4.42 -11.09,6.63 -18.88,6.63z"/>
  <path id="6" class="fil1" d="M2496.11 683.23c0,0.3 -0.22,3.82 -0.67,10.57l-88.57 0c1.8,6.29 5.28,11.13 10.45,14.5 5.17,3.37 11.65,5.06 19.45,5.06 5.84,0 10.9,-0.82 15.17,-2.47 4.27,-1.65 8.58,-4.35 12.92,-8.09l22.48 23.38c-11.84,13.19 -29.15,19.78 -51.93,19.78 -14.24,0 -26.75,-2.7 -37.54,-8.09 -10.79,-5.39 -19.14,-12.89 -25.06,-22.48 -5.92,-9.59 -8.88,-20.46 -8.88,-32.6 0,-11.99 2.88,-22.74 8.65,-32.26 5.77,-9.52 13.75,-16.97 23.94,-22.37 10.19,-5.4 21.66,-8.09 34.4,-8.09 12.14,0 23.15,2.51 33.04,7.53 9.89,5.02 17.72,12.29 23.49,21.8 5.77,9.52 8.65,20.79 8.65,33.83zm-64.97 -32.82c-6.59,0 -12.1,1.87 -16.52,5.62 -4.42,3.75 -7.23,8.84 -8.43,15.29l49.9 0c-1.2,-6.45 -4.01,-11.54 -8.43,-15.29 -4.42,-3.75 -9.93,-5.62 -16.52,-5.62z"/>
  <path id="7" class="fil1" d="M2556.58 636.7c4.35,-5.55 10,-9.7 16.97,-12.48 6.97,-2.77 14.95,-4.16 23.94,-4.16l0 38.44c-3.9,-0.45 -7.12,-0.67 -9.67,-0.67 -9.14,0 -16.3,2.47 -21.47,7.42 -5.17,4.94 -7.76,12.51 -7.76,22.7l0 55.97 -42.71 0 0 -121.84 40.69 0 0 14.61z"/>
  <path id="8" class="fil1" d="M2615.02 622.09l42.71 0 0 121.84 -42.71 0 0 -121.84zm29.45 -48.78l42.71 0 -42.26 34.17 -30.57 0 30.12 -34.17z"/>
  <path id="9" class="fil1" d="M2737.31 620.07c20.23,0 35.67,4.61 46.31,13.82 10.64,9.22 15.96,23.34 15.96,42.37l0 67.66 -39.79 0 0 -15.74c-6.14,11.84 -18.13,17.76 -35.97,17.76 -9.44,0 -17.61,-1.65 -24.5,-4.95 -6.89,-3.3 -12.1,-7.75 -15.62,-13.37 -3.52,-5.62 -5.28,-12.03 -5.28,-19.22 0,-11.54 4.42,-20.5 13.26,-26.86 8.84,-6.37 22.48,-9.55 40.91,-9.55l24.28 0c-0.75,-12.89 -9.37,-19.33 -25.85,-19.33 -5.84,0 -11.77,0.94 -17.76,2.81 -5.99,1.87 -11.09,4.46 -15.29,7.75l-14.39 -29c6.74,-4.5 14.95,-7.98 24.61,-10.45 9.67,-2.47 19.37,-3.71 29.11,-3.71zm-1.57 98.91c4.95,0 9.29,-1.2 13.04,-3.6 3.75,-2.4 6.45,-5.92 8.09,-10.57l0 -10.57 -18.43 0c-12.44,0 -18.66,4.12 -18.66,12.36 0,3.75 1.42,6.74 4.27,8.99 2.85,2.25 6.74,3.37 11.69,3.37z"/>
  <path id="10" class="fil1" d="M3016.51 683.23c0,0.3 -0.22,3.82 -0.67,10.57l-88.57 0c1.8,6.29 5.28,11.13 10.45,14.5 5.17,3.37 11.65,5.06 19.45,5.06 5.84,0 10.9,-0.82 15.17,-2.47 4.27,-1.65 8.58,-4.35 12.92,-8.09l22.48 23.38c-11.84,13.19 -29.15,19.78 -51.93,19.78 -14.24,0 -26.75,-2.7 -37.54,-8.09 -10.79,-5.39 -19.14,-12.89 -25.06,-22.48 -5.92,-9.59 -8.88,-20.46 -8.88,-32.6 0,-11.99 2.88,-22.74 8.65,-32.26 5.77,-9.52 13.75,-16.97 23.94,-22.37 10.19,-5.4 21.66,-8.09 34.4,-8.09 12.14,0 23.15,2.51 33.04,7.53 9.89,5.02 17.72,12.29 23.49,21.8 5.77,9.52 8.65,20.79 8.65,33.83zm-64.97 -32.82c-6.59,0 -12.1,1.87 -16.52,5.62 -4.42,3.75 -7.23,8.84 -8.43,15.29l49.9 0c-1.2,-6.45 -4.01,-11.54 -8.43,-15.29 -4.42,-3.75 -9.93,-5.62 -16.52,-5.62z"/>
  <path id="11" class="fil1" d="M3115.65 620.07c15.14,0 27.31,4.5 36.53,13.49 9.22,8.99 13.82,22.55 13.82,40.69l0 69.69 -42.71 0 0 -62.72c0,-16.64 -6.67,-24.95 -20.01,-24.95 -7.34,0 -13.23,2.4 -17.65,7.19 -4.42,4.8 -6.63,11.99 -6.63,21.58l0 58.9 -42.71 0 0 -121.84 40.69 0 0 13.26c4.8,-4.94 10.49,-8.73 17.08,-11.35 6.59,-2.62 13.79,-3.93 21.58,-3.93z"/>
  <path id="12" class="fil1" d="M1714.94 1023.35l-66.54 0 -12.36 30.57 -45.41 0 69.46 -157.36 43.83 0 69.69 157.36 -46.31 0 -12.36 -30.57zm-13.04 -32.82l-20.23 -50.36 -20.23 50.36 40.46 0z"/>
  <path id="13" class="fil1" d="M1914.11 932.08l0 99.58c0,22.63 -6.14,39.6 -18.43,50.92 -12.29,11.32 -29.97,16.97 -53.05,16.97 -11.99,0 -23.23,-1.35 -33.72,-4.05 -10.49,-2.7 -19.41,-6.67 -26.75,-11.91l15.51 -29.9c4.95,4.05 11.2,7.23 18.77,9.55 7.57,2.32 15.02,3.48 22.37,3.48 11.24,0 19.48,-2.47 24.73,-7.42 5.25,-4.95 7.87,-12.29 7.87,-22.03l0 -4.05c-8.24,9.59 -20.31,14.39 -36.19,14.39 -10.79,0 -20.76,-2.44 -29.9,-7.31 -9.14,-4.87 -16.41,-11.76 -21.81,-20.68 -5.39,-8.92 -8.09,-19.22 -8.09,-30.91 0,-11.54 2.7,-21.77 8.09,-30.68 5.4,-8.92 12.66,-15.81 21.81,-20.68 9.14,-4.87 19.11,-7.31 29.9,-7.31 17.38,0 30.12,5.62 38.22,16.86l0 -14.84 40.69 0zm-68.79 81.6c7.64,0 13.97,-2.32 18.99,-6.97 5.02,-4.65 7.53,-10.64 7.53,-17.98 0,-7.34 -2.47,-13.3 -7.42,-17.87 -4.95,-4.57 -11.32,-6.86 -19.11,-6.86 -7.79,0 -14.2,2.29 -19.22,6.86 -5.02,4.57 -7.53,10.53 -7.53,17.87 0,7.34 2.55,13.34 7.64,17.98 5.1,4.65 11.47,6.97 19.11,6.97z"/>
  <path id="14" class="fil1" d="M1982.22 946.7c4.35,-5.55 10,-9.7 16.97,-12.48 6.97,-2.77 14.95,-4.16 23.94,-4.16l0 38.44c-3.9,-0.45 -7.12,-0.67 -9.67,-0.67 -9.14,0 -16.3,2.47 -21.47,7.42 -5.17,4.94 -7.76,12.51 -7.76,22.7l0 55.97 -42.71 0 0 -121.84 40.69 0 0 14.61z"/>
  <path id="15" class="fil1" d="M2040.67 932.08l42.71 0 0 121.84 -42.71 0 0 -121.84zm21.36 -13.49c-7.79,0 -14.09,-2.17 -18.88,-6.52 -4.8,-4.35 -7.19,-9.74 -7.19,-16.19 0,-6.44 2.4,-11.84 7.19,-16.19 4.8,-4.35 11.09,-6.52 18.88,-6.52 7.79,0 14.09,2.06 18.88,6.18 4.8,4.12 7.19,9.4 7.19,15.85 0,6.74 -2.4,12.33 -7.19,16.75 -4.8,4.42 -11.09,6.63 -18.88,6.63z"/>
  <path id="16" class="fil1" d="M2269.74 930.06c14.99,0 26.94,4.5 35.85,13.49 8.92,8.99 13.38,22.55 13.38,40.69l0 69.69 -42.71 0 0 -62.72c0,-8.54 -1.61,-14.84 -4.83,-18.88 -3.22,-4.05 -7.76,-6.07 -13.6,-6.07 -6.44,0 -11.61,2.25 -15.51,6.74 -3.9,4.5 -5.84,11.31 -5.84,20.46l0 60.47 -42.71 0 0 -62.72c0,-16.64 -6.15,-24.95 -18.43,-24.95 -6.59,0 -11.84,2.25 -15.74,6.74 -3.9,4.5 -5.84,11.31 -5.84,20.46l0 60.47 -42.71 0 0 -121.84 40.69 0 0 12.81c4.5,-4.95 9.85,-8.65 16.07,-11.13 6.22,-2.47 13,-3.71 20.34,-3.71 8.54,0 16.19,1.57 22.93,4.72 6.74,3.15 12.21,7.94 16.41,14.39 4.8,-6.14 10.87,-10.87 18.21,-14.16 7.34,-3.3 15.36,-4.94 24.05,-4.94z"/>
  <path id="17" class="fil1" d="M2472.28 993.23c0,0.3 -0.22,3.82 -0.67,10.57l-88.57 0c1.8,6.29 5.28,11.13 10.45,14.5 5.17,3.37 11.65,5.06 19.45,5.06 5.84,0 10.9,-0.82 15.17,-2.47 4.27,-1.65 8.58,-4.35 12.92,-8.09l22.48 23.38c-11.84,13.19 -29.15,19.78 -51.93,19.78 -14.24,0 -26.75,-2.7 -37.54,-8.09 -10.79,-5.39 -19.14,-12.89 -25.06,-22.48 -5.92,-9.59 -8.88,-20.46 -8.88,-32.6 0,-11.99 2.88,-22.74 8.65,-32.26 5.77,-9.52 13.75,-16.97 23.94,-22.37 10.19,-5.4 21.66,-8.09 34.4,-8.09 12.14,0 23.15,2.51 33.04,7.53 9.89,5.02 17.72,12.29 23.49,21.8 5.77,9.52 8.65,20.79 8.65,33.83zm-64.97 -32.82c-6.59,0 -12.1,1.87 -16.52,5.62 -4.42,3.75 -7.23,8.84 -8.43,15.29l49.9 0c-1.2,-6.45 -4.01,-11.54 -8.43,-15.29 -4.42,-3.75 -9.93,-5.62 -16.52,-5.62z"/>
  <path id="18" class="fil1" d="M2571.41 930.06c15.14,0 27.31,4.5 36.53,13.49 9.22,8.99 13.82,22.55 13.82,40.69l0 69.69 -42.71 0 0 -62.72c0,-16.64 -6.67,-24.95 -20.01,-24.95 -7.34,0 -13.23,2.4 -17.65,7.19 -4.42,4.8 -6.63,11.99 -6.63,21.58l0 58.9 -42.71 0 0 -121.84 40.69 0 0 13.26c4.8,-4.94 10.49,-8.73 17.08,-11.35 6.59,-2.62 13.79,-3.93 21.58,-3.93z"/>
  <path id="19" class="fil1" d="M2692.8 1055.95c-10.19,0 -20.23,-1.16 -30.12,-3.48 -9.89,-2.32 -17.83,-5.36 -23.83,-9.11l12.81 -29.22c5.55,3.45 12.14,6.18 19.78,8.21 7.64,2.02 15.21,3.04 22.7,3.04 6.89,0 11.8,-0.71 14.72,-2.14 2.92,-1.42 4.38,-3.48 4.38,-6.18 0,-2.7 -1.76,-4.61 -5.28,-5.73 -3.52,-1.12 -9.11,-2.21 -16.75,-3.26 -9.74,-1.2 -18.02,-2.77 -24.84,-4.72 -6.82,-1.95 -12.7,-5.55 -17.65,-10.79 -4.95,-5.24 -7.42,-12.59 -7.42,-22.03 0,-7.79 2.32,-14.72 6.97,-20.79 4.65,-6.07 11.43,-10.87 20.34,-14.39 8.92,-3.52 19.6,-5.28 32.03,-5.28 8.84,0 17.61,0.9 26.3,2.7 8.69,1.8 15.96,4.35 21.81,7.64l-12.81 29c-10.79,-5.99 -22.48,-8.99 -35.07,-8.99 -6.74,0 -11.69,0.79 -14.84,2.36 -3.15,1.57 -4.72,3.63 -4.72,6.18 0,2.85 1.72,4.83 5.17,5.96 3.45,1.12 9.14,2.28 17.08,3.48 10.04,1.5 18.36,3.22 24.95,5.17 6.59,1.95 12.33,5.51 17.2,10.68 4.87,5.17 7.31,12.4 7.31,21.69 0,7.64 -2.32,14.5 -6.97,20.57 -4.65,6.07 -11.5,10.83 -20.57,14.28 -9.07,3.45 -19.97,5.17 -32.71,5.17z"/>
  <path id="20" class="fil1" d="M2899.62 932.08l0 121.84 -40.69 0 0 -13.04c-4.5,4.94 -9.89,8.69 -16.19,11.24 -6.29,2.55 -12.96,3.82 -20.01,3.82 -15.74,0 -28.29,-4.65 -37.65,-13.94 -9.37,-9.29 -14.05,-23.23 -14.05,-41.81l0 -68.11 42.71 0 0 61.14c0,9.14 1.72,15.81 5.17,20.01 3.45,4.2 8.47,6.29 15.06,6.29 6.74,0 12.25,-2.36 16.52,-7.08 4.27,-4.72 6.41,-11.95 6.41,-21.69l0 -58.67 42.71 0z"/>
  <path id="21" class="fil1" d="M2967.73 946.7c4.35,-5.55 10,-9.7 16.97,-12.48 6.97,-2.77 14.95,-4.16 23.94,-4.16l0 38.44c-3.9,-0.45 -7.12,-0.67 -9.67,-0.67 -9.14,0 -16.3,2.47 -21.47,7.42 -5.17,4.94 -7.76,12.51 -7.76,22.7l0 55.97 -42.71 0 0 -121.84 40.69 0 0 14.61z"/>
  <path id="22" class="fil1" d="M3077.21 930.06c20.23,0 35.67,4.61 46.31,13.82 10.64,9.22 15.96,23.34 15.96,42.37l0 67.66 -39.79 0 0 -15.74c-6.14,11.84 -18.13,17.76 -35.97,17.76 -9.44,0 -17.61,-1.65 -24.5,-4.95 -6.89,-3.3 -12.1,-7.75 -15.62,-13.37 -3.52,-5.62 -5.28,-12.03 -5.28,-19.22 0,-11.54 4.42,-20.5 13.26,-26.86 8.84,-6.37 22.48,-9.55 40.91,-9.55l24.28 0c-0.75,-12.89 -9.37,-19.33 -25.85,-19.33 -5.84,0 -11.77,0.94 -17.76,2.81 -5.99,1.87 -11.09,4.46 -15.29,7.75l-14.39 -29c6.74,-4.5 14.95,-7.98 24.61,-10.45 9.67,-2.47 19.37,-3.71 29.11,-3.71zm-1.57 98.91c4.95,0 9.29,-1.2 13.04,-3.6 3.75,-2.4 6.45,-5.92 8.09,-10.57l0 -10.57 -18.43 0c-12.44,0 -18.66,4.12 -18.66,12.36 0,3.75 1.42,6.74 4.27,8.99 2.85,2.25 6.74,3.37 11.69,3.37z"/>
  <g id="_1380377693216">
   <path class="fil2" d="M668.88 836.66c-9.5,12.45 -55.16,56.46 -41.4,83.41 15.09,29.54 70.57,19.58 101.94,10.57 34.36,-9.87 60.19,-27.52 98.27,-32.53 35.01,-4.6 86.45,2.72 122.87,5.63 80.12,6.4 161.42,12.99 242.63,19.65 34.59,2.84 88.75,13.48 111.03,-8.03 13.93,-13.45 43.12,-59.22 42.91,-87.72 -5.17,2.42 -7.33,5.95 -13.66,9.07 -18.84,9.29 -42.65,7.73 -62.75,3.9 -25.86,-4.93 -52.31,-10.36 -78.06,-15.76 -26.08,-5.47 -51.79,-10.98 -77.88,-15.95 -24.92,-4.75 -50.74,-11.52 -77.11,-17 -25.65,-5.34 -51.17,-11.52 -76.65,-17.35 -9.5,-2.17 -30.25,-6.1 -36.61,-9.62 -9.97,-5.52 -11.93,-15.8 -27.61,-20.12 -23.12,-6.37 -92.71,29.7 -119.87,42.25 -11.36,5.25 -11.04,8.13 -16.94,4.9 1.68,-4.95 2.18,-4.16 6.45,-7.62 11.34,-9.17 52.83,-40.68 56.94,-46.64 -51.07,-29.75 -118.09,-72.5 -171.31,-105.7 -14.3,-8.92 -11.01,-6.67 -15.03,-24.67 -7.74,0.66 -44.92,23.86 -53.5,40.33 -11.45,21.96 5.64,40.29 19.73,67.03l65.6 121.96z"/>
   <path class="fil2" d="M726.09 1021.33c1.6,1.77 0.44,0.87 2.75,2.28l53.99 19.98c9.08,3.25 52.77,20.49 58.4,20.45l4.79 -30.09c-9.95,-6.2 -49.32,-18.71 -63.45,-24.01 -8.33,-3.12 -23.82,-12.05 -31.03,-7.97 -5.65,3.2 -19.74,15.13 -25.45,19.36z"/>
   <path class="fil2" d="M929.3 1023.09l10.89 24.48c7.96,-0.75 55.94,-20.44 65.94,-24.82 -4.23,-5.04 -10.59,-9.01 -15.49,-12.84 -8.05,-6.3 -8.28,-8.78 -19.7,-4.19 -10.87,4.37 -34.19,11.7 -41.65,17.37z"/>
   <path class="fil2" d="M864.98 720.13c10.73,-2.18 27.67,-14.56 52.01,-1.73 15.2,8.01 20.61,18.45 27.07,37.58l18.96 3.93c3.7,-34.49 -32.34,-65.91 -70.09,-57.17 -11.63,2.69 -24.64,9.28 -27.95,17.39z"/>
   <path class="fil2" d="M780.59 979.95c1.31,1.58 0.05,0.62 2.37,2.06l66.62 24.28c2.7,-4.52 3.86,-13.84 3.98,-20.18 -9.79,-5.22 -27.73,-10.43 -38.66,-14.55 -15.83,-5.97 -14.45,-9.32 -34.31,8.39z"/>
   <path class="fil2" d="M908.09 978.41l7.59 17.4c6.36,-0.81 32.68,-10.92 37.03,-14.32 -2.99,-3.57 -14.73,-13.86 -19.72,-13.55 -3.09,0.19 -22.73,8.54 -24.91,10.47z"/>
  </g>
 </g>
</svg>
