<?xml version="1.0" encoding="UTF-8"?>
<!DOCTYPE svg PUBLIC "-//W3C//DTD SVG 1.1//EN" "http://www.w3.org/Graphics/SVG/1.1/DTD/svg11.dtd">
<!-- Creator: CorelDRAW 2018 (64 Bit Versión de evaluación) -->
<svg xmlns="http://www.w3.org/2000/svg" xml:space="preserve" width="234.132mm" height="107.071mm" version="1.1" style="shape-rendering:geometricPrecision; text-rendering:geometricPrecision; image-rendering:optimizeQuality; fill-rule:evenodd; clip-rule:evenodd"
viewBox="0 0 3607.69 1649.84"
 xmlns:xlink="http://www.w3.org/1999/xlink">
 <defs>
  <style type="text/css">
   <![CDATA[
    .fil0 {fill:#EF8026}
    .fil2 {fill:white}
    .fil1 {fill:white;fill-rule:nonzero}
   ]]>
  </style>
 </defs>
 <g id="Capa_x0020_1">
  <metadata id="CorelCorpID_0Corel-Layer"/>
  <rect class="fil0" x="-0" width="3607.69" height="1649.84"/>
  <polygon class="fil1" points="1640.02,597.69 1685.38,597.69 1685.38,758.03 1640.02,758.03 "/>
  <path id="1" class="fil1" d="M1796.47 631.82c15.42,0 27.83,4.58 37.22,13.74 9.39,9.16 14.09,22.98 14.09,41.46l0 71.01 -43.52 0 0 -63.91c0,-16.95 -6.8,-25.43 -20.39,-25.43 -7.48,0 -13.48,2.44 -17.98,7.33 -4.5,4.89 -6.76,12.22 -6.76,21.99l0 60.01 -43.52 0 0 -124.15 41.46 0 0 13.51c4.89,-5.04 10.69,-8.9 17.41,-11.57 6.72,-2.67 14.05,-4.01 21.99,-4.01z"/>
  <path id="2" class="fil1" d="M2010.41 633.88l0 101.47c0,23.06 -6.26,40.35 -18.78,51.88 -12.52,11.53 -30.54,17.29 -54.06,17.29 -12.22,0 -23.67,-1.37 -34.36,-4.12 -10.69,-2.75 -19.78,-6.8 -27.26,-12.14l15.8 -30.46c5.04,4.12 11.41,7.37 19.13,9.74 7.71,2.37 15.31,3.55 22.79,3.55 11.45,0 19.85,-2.52 25.2,-7.56 5.35,-5.04 8.02,-12.52 8.02,-22.45l0 -4.12c-8.4,9.77 -20.69,14.66 -36.88,14.66 -11,0 -21.15,-2.48 -30.46,-7.45 -9.32,-4.96 -16.72,-11.99 -22.22,-21.07 -5.5,-9.09 -8.25,-19.58 -8.25,-31.5 0,-11.76 2.75,-22.18 8.25,-31.27 5.5,-9.09 12.9,-16.11 22.22,-21.07 9.31,-4.96 19.47,-7.44 30.46,-7.44 17.71,0 30.69,5.73 38.94,17.18l0 -15.12 41.46 0zm-70.09 83.15c7.79,0 14.24,-2.37 19.36,-7.1 5.12,-4.74 7.67,-10.84 7.67,-18.33 0,-7.48 -2.52,-13.55 -7.56,-18.21 -5.04,-4.66 -11.53,-6.99 -19.47,-6.99 -7.94,0 -14.47,2.33 -19.58,6.99 -5.12,4.66 -7.67,10.73 -7.67,18.21 0,7.48 2.6,13.59 7.79,18.33 5.19,4.73 11.68,7.1 19.47,7.1z"/>
  <path id="3" class="fil1" d="M2165.25 696.19c0,0.31 -0.23,3.9 -0.69,10.77l-90.25 0c1.83,6.41 5.38,11.34 10.65,14.77 5.27,3.44 11.87,5.15 19.81,5.15 5.96,0 11.11,-0.84 15.46,-2.52 4.35,-1.68 8.74,-4.43 13.17,-8.25l22.91 23.82c-12.06,13.44 -29.7,20.16 -52.91,20.16 -14.51,0 -27.26,-2.75 -38.25,-8.25 -10.99,-5.5 -19.51,-13.13 -25.54,-22.91 -6.03,-9.77 -9.05,-20.85 -9.05,-33.21 0,-12.22 2.94,-23.17 8.82,-32.87 5.88,-9.7 14.01,-17.29 24.39,-22.79 10.38,-5.5 22.07,-8.25 35.05,-8.25 12.37,0 23.59,2.56 33.67,7.67 10.08,5.11 18.06,12.52 23.94,22.22 5.88,9.7 8.82,21.19 8.82,34.47zm-66.2 -33.44c-6.72,0 -12.33,1.91 -16.84,5.73 -4.5,3.82 -7.37,9.01 -8.59,15.58l50.85 0c-1.22,-6.57 -4.08,-11.76 -8.59,-15.58 -4.5,-3.82 -10.12,-5.73 -16.84,-5.73z"/>
  <path id="4" class="fil1" d="M2266.27 631.82c15.42,0 27.83,4.58 37.22,13.74 9.39,9.16 14.09,22.98 14.09,41.46l0 71.01 -43.52 0 0 -63.91c0,-16.95 -6.8,-25.43 -20.39,-25.43 -7.48,0 -13.48,2.44 -17.98,7.33 -4.5,4.89 -6.76,12.22 -6.76,21.99l0 60.01 -43.52 0 0 -124.15 41.46 0 0 13.51c4.89,-5.04 10.69,-8.9 17.41,-11.57 6.72,-2.67 14.05,-4.01 21.99,-4.01z"/>
  <path id="5" class="fil1" d="M2344.84 633.88l43.52 0 0 124.15 -43.52 0 0 -124.15zm21.76 -13.74c-7.94,0 -14.35,-2.21 -19.24,-6.64 -4.89,-4.43 -7.33,-9.92 -7.33,-16.49 0,-6.57 2.44,-12.06 7.33,-16.49 4.89,-4.43 11.3,-6.64 19.24,-6.64 7.94,0 14.35,2.1 19.24,6.3 4.89,4.2 7.33,9.58 7.33,16.15 0,6.87 -2.44,12.56 -7.33,17.07 -4.89,4.51 -11.3,6.76 -19.24,6.76z"/>
  <path id="6" class="fil1" d="M2543.43 696.19c0,0.31 -0.23,3.9 -0.69,10.77l-90.25 0c1.83,6.41 5.38,11.34 10.65,14.77 5.27,3.44 11.87,5.15 19.81,5.15 5.96,0 11.11,-0.84 15.46,-2.52 4.35,-1.68 8.74,-4.43 13.17,-8.25l22.91 23.82c-12.06,13.44 -29.7,20.16 -52.91,20.16 -14.51,0 -27.26,-2.75 -38.25,-8.25 -10.99,-5.5 -19.51,-13.13 -25.54,-22.91 -6.03,-9.77 -9.05,-20.85 -9.05,-33.21 0,-12.22 2.94,-23.17 8.82,-32.87 5.88,-9.7 14.01,-17.29 24.39,-22.79 10.38,-5.5 22.07,-8.25 35.05,-8.25 12.37,0 23.59,2.56 33.67,7.67 10.08,5.11 18.06,12.52 23.94,22.22 5.88,9.7 8.82,21.19 8.82,34.47zm-66.2 -33.44c-6.72,0 -12.33,1.91 -16.84,5.73 -4.5,3.82 -7.37,9.01 -8.59,15.58l50.85 0c-1.22,-6.57 -4.08,-11.76 -8.59,-15.58 -4.5,-3.82 -10.12,-5.73 -16.84,-5.73z"/>
  <path id="7" class="fil1" d="M2605.05 648.77c4.43,-5.65 10.19,-9.89 17.29,-12.71 7.1,-2.83 15.23,-4.24 24.39,-4.24l0 39.17c-3.97,-0.46 -7.25,-0.69 -9.85,-0.69 -9.31,0 -16.61,2.52 -21.87,7.56 -5.27,5.04 -7.9,12.75 -7.9,23.13l0 57.04 -43.52 0 0 -124.15 41.46 0 0 14.89z"/>
  <path id="8" class="fil1" d="M2664.6 633.88l43.52 0 0 124.15 -43.52 0 0 -124.15zm30.01 -49.71l43.52 0 -43.06 34.82 -31.15 0 30.69 -34.82z"/>
  <path id="9" class="fil1" d="M2789.21 631.82c20.62,0 36.34,4.7 47.19,14.09 10.84,9.39 16.26,23.78 16.26,43.18l0 68.95 -40.54 0 0 -16.03c-6.26,12.06 -18.48,18.1 -36.65,18.1 -9.62,0 -17.94,-1.68 -24.97,-5.04 -7.02,-3.36 -12.33,-7.9 -15.92,-13.63 -3.59,-5.73 -5.38,-12.25 -5.38,-19.58 0,-11.76 4.5,-20.88 13.51,-27.37 9.01,-6.49 22.91,-9.74 41.69,-9.74l24.74 0c-0.76,-13.13 -9.54,-19.7 -26.34,-19.7 -5.96,0 -11.99,0.96 -18.1,2.86 -6.11,1.91 -11.3,4.54 -15.58,7.9l-14.66 -29.55c6.87,-4.58 15.23,-8.13 25.08,-10.65 9.85,-2.52 19.74,-3.78 29.66,-3.78zm-1.6 100.78c5.04,0 9.47,-1.22 13.29,-3.66 3.82,-2.44 6.57,-6.03 8.25,-10.77l0 -10.77 -18.78 0c-12.67,0 -19.01,4.2 -19.01,12.6 0,3.82 1.45,6.87 4.35,9.16 2.9,2.29 6.87,3.43 11.91,3.43z"/>
  <polygon id="10" class="fil1" points="1640.02,913.56 1685.38,913.56 1685.38,1073.9 1640.02,1073.9 "/>
  <path id="11" class="fil1" d="M1796.47 947.69c15.42,0 27.83,4.58 37.22,13.74 9.39,9.16 14.09,22.98 14.09,41.46l0 71.01 -43.52 0 0 -63.91c0,-16.95 -6.8,-25.43 -20.39,-25.43 -7.48,0 -13.48,2.44 -17.98,7.33 -4.5,4.89 -6.76,12.22 -6.76,21.99l0 60.01 -43.52 0 0 -124.15 41.46 0 0 13.51c4.89,-5.04 10.69,-8.9 17.41,-11.57 6.72,-2.67 14.05,-4.01 21.99,-4.01z"/>
  <path id="12" class="fil1" d="M1922.45 954.34l29.55 0 0 32.52 -28.4 0 0 87.04 -43.52 0 0 -87.04 -18.09 0 0 -32.52 18.09 0 0 -3.21c0,-15.12 4.54,-27.1 13.63,-35.96 9.09,-8.86 21.8,-13.29 38.14,-13.29 5.5,0 10.84,0.53 16.03,1.6 5.19,1.07 9.47,2.67 12.83,4.81l-10.76 30.69c-4.28,-2.44 -8.63,-3.67 -13.06,-3.67 -4.58,0 -8.13,1.37 -10.65,4.12 -2.52,2.75 -3.78,6.8 -3.78,12.14l0 2.75z"/>
  <path id="13" class="fil1" d="M2028.97 1075.97c-13.29,0 -25.27,-2.75 -35.96,-8.25 -10.69,-5.5 -19.05,-13.13 -25.08,-22.91 -6.03,-9.77 -9.05,-20.85 -9.05,-33.21 0,-12.22 3.02,-23.21 9.05,-32.98 6.03,-9.77 14.35,-17.37 24.97,-22.79 10.61,-5.42 22.64,-8.13 36.08,-8.13 13.44,0 25.5,2.71 36.19,8.13 10.69,5.42 19.01,12.98 24.97,22.68 5.96,9.7 8.93,20.73 8.93,33.1 0,12.37 -2.98,23.44 -8.93,33.21 -5.96,9.77 -14.28,17.41 -24.97,22.91 -10.69,5.5 -22.75,8.25 -36.19,8.25zm0 -34.59c7.64,0 13.9,-2.63 18.78,-7.9 4.89,-5.27 7.33,-12.56 7.33,-21.88 0,-9.16 -2.44,-16.34 -7.33,-21.53 -4.89,-5.19 -11.15,-7.79 -18.78,-7.79 -7.64,0 -13.9,2.6 -18.78,7.79 -4.89,5.19 -7.33,12.37 -7.33,21.53 0,9.31 2.44,16.61 7.33,21.88 4.89,5.27 11.15,7.9 18.78,7.9z"/>
  <path id="14" class="fil1" d="M2160.67 964.64c4.43,-5.65 10.19,-9.89 17.29,-12.71 7.1,-2.83 15.23,-4.24 24.39,-4.24l0 39.17c-3.97,-0.46 -7.25,-0.69 -9.85,-0.69 -9.31,0 -16.61,2.52 -21.87,7.56 -5.27,5.04 -7.9,12.75 -7.9,23.13l0 57.04 -43.52 0 0 -124.15 41.46 0 0 14.89z"/>
  <path id="15" class="fil1" d="M2381.95 947.69c15.27,0 27.45,4.58 36.53,13.74 9.09,9.16 13.63,22.98 13.63,41.46l0 71.01 -43.52 0 0 -63.91c0,-8.7 -1.64,-15.12 -4.92,-19.24 -3.28,-4.12 -7.9,-6.19 -13.86,-6.19 -6.57,0 -11.83,2.29 -15.8,6.87 -3.97,4.58 -5.96,11.53 -5.96,20.84l0 61.62 -43.52 0 0 -63.91c0,-16.95 -6.26,-25.43 -18.78,-25.43 -6.72,0 -12.06,2.29 -16.03,6.87 -3.97,4.58 -5.96,11.53 -5.96,20.84l0 61.62 -43.52 0 0 -124.15 41.46 0 0 13.06c4.58,-5.04 10.04,-8.82 16.38,-11.34 6.34,-2.52 13.25,-3.78 20.73,-3.78 8.7,0 16.49,1.6 23.36,4.81 6.87,3.21 12.45,8.09 16.72,14.66 4.89,-6.26 11.07,-11.07 18.55,-14.43 7.48,-3.36 15.65,-5.04 24.51,-5.04z"/>
  <path id="16" class="fil1" d="M2512.51 947.69c20.62,0 36.34,4.7 47.19,14.09 10.84,9.39 16.26,23.78 16.26,43.18l0 68.95 -40.54 0 0 -16.03c-6.26,12.06 -18.48,18.1 -36.65,18.1 -9.62,0 -17.94,-1.68 -24.97,-5.04 -7.02,-3.36 -12.33,-7.9 -15.92,-13.63 -3.59,-5.73 -5.38,-12.25 -5.38,-19.58 0,-11.76 4.5,-20.88 13.51,-27.37 9.01,-6.49 22.91,-9.74 41.69,-9.74l24.74 0c-0.76,-13.13 -9.54,-19.7 -26.34,-19.7 -5.96,0 -11.99,0.96 -18.1,2.86 -6.11,1.91 -11.3,4.54 -15.58,7.9l-14.66 -29.55c6.87,-4.58 15.23,-8.13 25.08,-10.65 9.85,-2.52 19.74,-3.78 29.66,-3.78zm-1.6 100.78c5.04,0 9.47,-1.22 13.29,-3.66 3.82,-2.44 6.57,-6.03 8.25,-10.77l0 -10.77 -18.78 0c-12.67,0 -19.01,4.2 -19.01,12.6 0,3.82 1.45,6.87 4.35,9.16 2.9,2.29 6.87,3.43 11.91,3.43zm14.66 -148.43l43.52 0 -43.06 34.82 -31.15 0 30.69 -34.82z"/>
  <path id="17" class="fil1" d="M2689.11 1068.87c-3.66,2.29 -8.13,4.05 -13.4,5.27 -5.27,1.22 -10.88,1.83 -16.84,1.83 -16.19,0 -28.63,-3.97 -37.34,-11.91 -8.7,-7.94 -13.06,-19.78 -13.06,-35.5l0 -41.69 -18.09 0 0 -32.52 18.09 0 0 -32.3 43.52 0 0 32.3 28.4 0 0 32.52 -28.4 0 0 41.23c0,4.43 1.18,7.9 3.55,10.42 2.37,2.52 5.53,3.78 9.51,3.78 5.04,0 9.47,-1.3 13.29,-3.89l10.76 30.46z"/>
  <path id="18" class="fil1" d="M2705.83 949.76l43.52 0 0 124.15 -43.52 0 0 -124.15zm21.76 -13.74c-7.94,0 -14.35,-2.21 -19.24,-6.64 -4.89,-4.43 -7.33,-9.92 -7.33,-16.49 0,-6.57 2.44,-12.06 7.33,-16.49 4.89,-4.43 11.3,-6.64 19.24,-6.64 7.94,0 14.35,2.1 19.24,6.3 4.89,4.2 7.33,9.58 7.33,16.15 0,6.87 -2.44,12.56 -7.33,17.07 -4.89,4.51 -11.3,6.76 -19.24,6.76z"/>
  <path id="19" class="fil1" d="M2840.98 1075.97c-13.74,0 -26.04,-2.75 -36.88,-8.25 -10.84,-5.5 -19.28,-13.13 -25.31,-22.91 -6.03,-9.77 -9.05,-20.85 -9.05,-33.21 0,-12.37 3.02,-23.4 9.05,-33.1 6.03,-9.7 14.47,-17.26 25.31,-22.68 10.84,-5.42 23.13,-8.13 36.88,-8.13 14.05,0 26.19,3.02 36.42,9.05 10.23,6.03 17.48,14.39 21.76,25.08l-33.67 17.18c-5.65,-11.15 -13.9,-16.72 -24.74,-16.72 -7.79,0 -14.24,2.6 -19.36,7.79 -5.12,5.19 -7.67,12.37 -7.67,21.53 0,9.31 2.56,16.61 7.67,21.88 5.12,5.27 11.57,7.9 19.36,7.9 10.84,0 19.09,-5.57 24.74,-16.72l33.67 17.18c-4.28,10.69 -11.53,19.05 -21.76,25.08 -10.23,6.03 -22.37,9.05 -36.42,9.05z"/>
  <path id="20" class="fil1" d="M2968.56 947.69c20.62,0 36.34,4.7 47.19,14.09 10.84,9.39 16.26,23.78 16.26,43.18l0 68.95 -40.54 0 0 -16.03c-6.26,12.06 -18.48,18.1 -36.65,18.1 -9.62,0 -17.94,-1.68 -24.97,-5.04 -7.02,-3.36 -12.33,-7.9 -15.92,-13.63 -3.59,-5.73 -5.38,-12.25 -5.38,-19.58 0,-11.76 4.5,-20.88 13.51,-27.37 9.01,-6.49 22.91,-9.74 41.69,-9.74l24.74 0c-0.76,-13.13 -9.54,-19.7 -26.34,-19.7 -5.96,0 -11.99,0.96 -18.1,2.86 -6.11,1.91 -11.3,4.54 -15.58,7.9l-14.66 -29.55c6.87,-4.58 15.23,-8.13 25.08,-10.65 9.85,-2.52 19.74,-3.78 29.66,-3.78zm-1.6 100.78c5.04,0 9.47,-1.22 13.29,-3.66 3.82,-2.44 6.57,-6.03 8.25,-10.77l0 -10.77 -18.78 0c-12.67,0 -19.01,4.2 -19.01,12.6 0,3.82 1.45,6.87 4.35,9.16 2.9,2.29 6.87,3.43 11.91,3.43z"/>
  <g id="_1380381940736">
   <path class="fil2" d="M788.25 942.46c-9.31,0.17 -18.74,0.03 -28.06,0.03 -11.08,-0 -16.86,-0.98 -22.79,5.82 -11.27,12.93 -11.71,50.91 8.6,61.56 7.13,3.74 17.35,2.46 26.07,2.46 21.58,0 279.61,0.76 287.18,-0.22l0.63 -16.12c-88.05,0.62 -176.75,-0.28 -264.9,0.01 -7.6,0.02 -39.02,1.54 -42.93,-1.52 -6.87,-5.39 -8.75,-27.74 -2.06,-35.42l332.37 -0.16c-2.11,-4.52 -6.08,-6.27 -2.46,-16.31l-249.53 -0.05c-1.27,-65.88 0.01,-137.72 -0.05,-204.76 -0.01,-13.22 -1.72,-58.89 0.56,-68.47l401.06 -0.4c1.67,6.49 0.63,106.11 0.63,121.48 -0.01,20.36 0,40.73 0,61.09 0,18.78 -1.24,42.31 0.14,60.5 8.37,0.09 6.34,-0.68 12.74,2.89 1.64,-17.15 0.21,-42.02 0.21,-60l0 -122.18c0,-20.04 0.67,-41.24 -0,-61.13 -0.71,-21.07 -23.09,-15.83 -44.1,-15.83l-365.87 -0.02c-23.91,-0.06 -18.48,21.34 -18.48,42.18 0,81.23 1.24,163.4 -0.04,244.51l-15.78 0.1c-0.92,-45.28 -0.05,-91.48 -0.05,-136.86 0,-45.82 -0.06,-91.64 0,-137.45 0.02,-11.78 -1.03,-21.46 7.93,-26.46 6.43,-3.59 23.82,-2.15 32.4,-2.1 114.02,0.61 229.57,0 343.77,0 85.94,0 76.01,-11.09 76.01,61.65l0 206.18c-0.02,24.59 -1.73,17.57 5.52,27.94 2.26,3.23 5.61,5.74 6.61,10.45 1.77,8.27 -1,7.99 -3.61,12.85l44.35 0.27c3.9,7.76 3.56,18.31 0.35,26.78 -4.51,11.91 -8.56,10.06 -22.09,10.28l0.71 16.37c17.53,-0.49 23.19,0.29 31.39,-10.72 12.45,-16.71 13.83,-53.48 -7.55,-58.63 -6.2,-1.49 -34.65,-0.68 -42.82,-0.54 -0.94,-92.81 1.09,-186.38 0.25,-279.4 -0.2,-22.72 -7.55,-36.65 -33.11,-36.51 -115.5,0.66 -233.14,-0.03 -348.86,-0.03 -23.2,0 -46.4,0.06 -69.6,-0 -25.15,-0.06 -34.75,11 -34.71,35.69 0.07,46.66 0.01,93.34 0,140 -0.01,46.59 0.68,93.67 -0.03,140.2z"/>
   <path class="fil2" d="M1159.17 906.71l-0.28 17.48c-14.39,3.46 -18.94,6.93 -30.32,12.46 -5.31,-3.63 -7.44,-8.77 -12.73,-11.58 -7.29,4.24 -20.11,16.59 -23.9,23.97 2.48,4.84 8.6,8.23 11.69,12.73 -12.14,22.62 -6.29,15.33 -12.54,30.26l-16.84 0.08c-2.28,5.25 -3.23,33.04 0.85,34.47l16.01 -0.04c1.68,3.4 3.36,11.38 5.22,15.83 2.36,5.63 4.87,9.56 7.45,14.42l-11.91 12.46c3.16,6.14 18.07,20.7 23.98,24.14 4.65,-2.47 7.95,-8.47 12.73,-11.65 3.79,1.41 8.75,4.97 13.82,7.06 5,2.06 11.98,3.31 16.37,5.32l0.31 17.47c10.89,1.36 23.89,2.27 34.31,-0.22l0.28 -17.26c13.06,-5.41 12.3,-2.1 29.98,-12.38l12.47 11.95c6.99,-3.72 20.54,-17.32 24.18,-24.17 -2.46,-5.04 -7.88,-7.73 -11.53,-12.73 2.28,-4.95 4.94,-8.56 7.26,-14.28 2.17,-5.35 3.21,-10.15 5.25,-15.93l16.68 -0.1c3.84,-7.28 1.69,-25.46 0.78,-34.18l-17.45 -0.29c-7.35,-21.85 -1.55,-8.88 -12.42,-30.25 2.64,-4.57 8.33,-7.67 11.2,-12.73 -2.99,-5.73 -17.44,-21.15 -23.7,-23.98l-11.82 11.51c-3.35,-0.8 -10.54,-5.51 -15.05,-7.34l-12.14 -3.95c-4.91,-1.48 -3.78,0.76 -3.82,-18.23 -10.03,-2.93 -24.2,-1.65 -34.38,-0.33zm11.58 59.65c-22.13,3.26 -40.8,22.54 -37.18,48.85 2.98,21.62 23.48,40.19 48.64,36.63 21.41,-3.03 39.92,-22.69 36.78,-48.16 -2.66,-21.64 -23.3,-40.98 -48.25,-37.31z"/>
   <path class="fil2" d="M940.24 811.57c2.98,-3.37 26.93,-16.15 32.86,-19.62 4.36,-2.55 13.74,-7.3 16.6,-9.7 6.49,-5.45 0.76,-15.75 -7.84,-12.12l-50.06 28.89c-3.92,2.32 -15.01,6.99 -15.35,11.78 -0.38,5.47 9.93,9.42 14.23,11.93 15.08,8.83 35.53,21.36 49.99,28.95 9.32,4.89 14.9,-5.25 9.93,-10.79l-50.36 -29.33z"/>
   <path class="fil2" d="M1122.45 810.76c-3.25,4.21 -43.38,24.56 -49.41,29.31 -6.57,5.18 -1.37,15.47 7.21,12.3l50.72 -29.05c4.31,-2.45 14.96,-6.7 15.23,-11.8 0.3,-5.67 -10.3,-9.42 -14.24,-11.79 -5.48,-3.3 -10.83,-6.37 -16.69,-9.64 -8.03,-4.48 -27.59,-16.69 -33.99,-19.52 -8.85,-3.91 -14.09,4.77 -9.59,10.49 1.83,2.32 13.59,8.45 16.85,10.3l33.91 19.4z"/>
   <polygon class="fil2" points="836.77,988.57 976.32,988.77 976.43,973.32 837.1,973.22 "/>
   <path class="fil2" d="M1047.33 752.25c-1.67,0.98 -1.79,-0.75 -4.32,6.06 -1.02,2.76 -2,5.33 -2.99,8.08l-35.1 95.59c-1.52,7.4 4.87,11.66 10.33,8.63 4.39,-2.43 21.5,-53.28 24.69,-61.92l17.61 -47.75c1.86,-7.05 -3.8,-12.47 -10.22,-8.7z"/>
  </g>
 </g>
</svg>
