<?xml version="1.0" encoding="UTF-8"?>
<!DOCTYPE svg PUBLIC "-//W3C//DTD SVG 1.1//EN" "http://www.w3.org/Graphics/SVG/1.1/DTD/svg11.dtd">
<!-- Creator: CorelDRAW 2018 (64 Bit Versión de evaluación) -->
<svg xmlns="http://www.w3.org/2000/svg" xml:space="preserve" width="234.132mm" height="107.071mm" version="1.1" style="shape-rendering:geometricPrecision; text-rendering:geometricPrecision; image-rendering:optimizeQuality; fill-rule:evenodd; clip-rule:evenodd"
viewBox="0 0 3586.04 1639.94"
 xmlns:xlink="http://www.w3.org/1999/xlink">
 <defs>
  <style type="text/css">
   <![CDATA[
    .fil0 {fill:white}
    .fil3 {fill:#5293CD;fill-rule:nonzero}
    .fil4 {fill:#78B441;fill-rule:nonzero}
    .fil1 {fill:gray;fill-rule:nonzero}
    .fil5 {fill:#EF8026;fill-rule:nonzero}
    .fil2 {fill:#FCB72E;fill-rule:nonzero}
   ]]>
  </style>
 </defs>
 <g id="Capa_x0020_1">
  <metadata id="CorelCorpID_0Corel-Layer"/>
  <rect class="fil0" x="-0" width="3586.04" height="1639.94"/>
  <polygon class="fil1" points="918.97,690.23 992.37,690.23 992.37,949.7 918.97,949.7 "/>
  <polygon id="1" class="fil1" points="1291.5,690.23 1291.5,949.7 1231.08,949.7 1116.54,811.44 1116.54,949.7 1044.63,949.7 1044.63,690.23 1105.05,690.23 1219.59,828.49 1219.59,690.23 "/>
  <path id="2" class="fil1" d="M1517.24 814.41l64.87 0 0 107.49c-14.83,10.63 -31.88,18.78 -51.15,24.46 -19.27,5.68 -38.55,8.53 -57.82,8.53 -27.18,0 -51.65,-5.75 -73.39,-17.24 -21.75,-11.49 -38.8,-27.49 -51.15,-48 -12.36,-20.51 -18.53,-43.74 -18.53,-69.69 0,-25.95 6.18,-49.18 18.53,-69.69 12.36,-20.51 29.53,-36.51 51.52,-48 21.99,-11.49 46.83,-17.24 74.51,-17.24 24.22,0 45.96,4.08 65.24,12.23 19.27,8.15 35.34,19.89 48.19,35.21l-46.7 42.26c-17.55,-19.28 -38.55,-28.91 -63.01,-28.91 -22.24,0 -40.16,6.73 -53.75,20.2 -13.59,13.47 -20.39,31.44 -20.39,53.93 0,14.33 3.09,27.12 9.27,38.36 6.18,11.24 14.83,20.02 25.95,26.32 11.12,6.3 23.85,9.45 38.18,9.45 14.08,0 27.31,-2.84 39.66,-8.53l0 -71.17z"/>
  <path id="3" class="fil2" d="M1742.24 880.76l-40.03 0 0 68.94 -73.39 0 0 -259.47 118.61 0c23.48,0 43.86,3.89 61.16,11.68 17.3,7.78 30.64,18.9 40.03,33.36 9.39,14.46 14.09,31.44 14.09,50.97 0,18.78 -4.39,35.15 -13.16,49.11 -8.77,13.96 -21.31,24.9 -37.62,32.8l55.97 81.55 -78.58 0 -47.08 -68.94zm46.33 -94.52c0,-12.11 -3.83,-21.5 -11.49,-28.17 -7.66,-6.67 -19.03,-10.01 -34.1,-10.01l-40.77 0 0 75.99 40.77 0c15.07,0 26.44,-3.27 34.1,-9.82 7.66,-6.55 11.49,-15.88 11.49,-27.99z"/>
  <polygon id="4" class="fil3" points="2111.43,892.99 2111.43,949.7 1903.11,949.7 1903.11,690.23 2106.61,690.23 2106.61,746.95 1975.76,746.95 1975.76,790.69 2091.04,790.69 2091.04,845.55 1975.76,845.55 1975.76,892.99 "/>
  <path id="5" class="fil4" d="M2243.38 954.89c-21,0 -41.39,-2.59 -61.16,-7.78 -19.77,-5.19 -35.83,-12.11 -48.19,-20.76l24.09 -54.12c11.61,7.66 25.08,13.84 40.4,18.53 15.32,4.7 30.4,7.04 45.22,7.04 28.17,0 42.26,-7.04 42.26,-21.13 0,-7.41 -4.02,-12.91 -12.05,-16.5 -8.03,-3.58 -20.94,-7.35 -38.74,-11.3 -19.52,-4.2 -35.83,-8.71 -48.93,-13.53 -13.1,-4.82 -24.34,-12.54 -33.73,-23.17 -9.39,-10.63 -14.09,-24.96 -14.09,-43 0,-15.82 4.33,-30.09 12.97,-42.81 8.65,-12.73 21.56,-22.8 38.74,-30.21 17.17,-7.41 38.24,-11.12 63.2,-11.12 17.05,0 33.85,1.92 50.41,5.75 16.56,3.83 31.14,9.45 43.74,16.87l-22.61 54.49c-24.71,-13.34 -48.68,-20.02 -71.91,-20.02 -14.58,0 -25.21,2.16 -31.88,6.49 -6.67,4.32 -10.01,9.95 -10.01,16.87 0,6.92 3.95,12.11 11.86,15.57 7.91,3.46 20.63,7.04 38.18,10.75 19.77,4.2 36.14,8.71 49.11,13.53 12.97,4.82 24.22,12.48 33.73,22.98 9.51,10.5 14.27,24.77 14.27,42.81 0,15.57 -4.33,29.65 -12.97,42.26 -8.65,12.6 -21.62,22.67 -38.92,30.21 -17.3,7.54 -38.3,11.3 -63.01,11.3z"/>
  <path id="6" class="fil5" d="M2522.87 954.89c-27.43,0 -52.08,-5.81 -73.95,-17.42 -21.87,-11.61 -39.04,-27.68 -51.52,-48.19 -12.48,-20.51 -18.72,-43.61 -18.72,-69.32 0,-25.7 6.24,-48.81 18.72,-69.32 12.48,-20.51 29.65,-36.57 51.52,-48.19 21.87,-11.61 46.52,-17.42 73.95,-17.42 27.43,0 52.08,5.81 73.95,17.42 21.87,11.61 39.04,27.68 51.52,48.19 12.48,20.51 18.72,43.62 18.72,69.32 0,25.7 -6.24,48.81 -18.72,69.32 -12.48,20.51 -29.65,36.57 -51.52,48.19 -21.87,11.61 -46.52,17.42 -73.95,17.42zm0 -60.79c13.1,0 24.96,-3.09 35.58,-9.27 10.62,-6.18 19.03,-14.89 25.2,-26.13 6.18,-11.24 9.27,-24.16 9.27,-38.74 0,-14.58 -3.09,-27.49 -9.27,-38.74 -6.18,-11.24 -14.58,-19.95 -25.2,-26.13 -10.63,-6.18 -22.49,-9.27 -35.58,-9.27 -13.1,0 -24.96,3.09 -35.58,9.27 -10.63,6.18 -19.03,14.89 -25.21,26.13 -6.18,11.24 -9.27,24.16 -9.27,38.74 0,14.58 3.09,27.49 9.27,38.74 6.18,11.24 14.58,19.96 25.21,26.13 10.62,6.18 22.49,9.27 35.58,9.27z"/>
 </g>
</svg>
