<?xml version="1.0" encoding="UTF-8"?>
<!DOCTYPE svg PUBLIC "-//W3C//DTD SVG 1.1//EN" "http://www.w3.org/Graphics/SVG/1.1/DTD/svg11.dtd">
<!-- Creator: CorelDRAW 2018 (64 Bit Versión de evaluación) -->
<svg xmlns="http://www.w3.org/2000/svg" xml:space="preserve" width="234.132mm" height="107.071mm" version="1.1" style="shape-rendering:geometricPrecision; text-rendering:geometricPrecision; image-rendering:optimizeQuality; fill-rule:evenodd; clip-rule:evenodd"
viewBox="0 0 3562.66 1629.24"
 xmlns:xlink="http://www.w3.org/1999/xlink">
 <defs>
  <style type="text/css">
   <![CDATA[
    .fil0 {fill:#5293CD}
    .fil2 {fill:white}
    .fil1 {fill:white;fill-rule:nonzero}
   ]]>
  </style>
 </defs>
 <g id="Capa_x0020_1">
  <metadata id="CorelCorpID_0Corel-Layer"/>
  <rect class="fil0" x="-0" width="3562.66" height="1629.24"/>
  <polygon class="fil1" points="1485.86,638.26 1521.06,638.26 1521.06,762.71 1485.86,762.71 "/>
  <path id="1" class="fil1" d="M1607.29 664.75c11.97,0 21.6,3.55 28.89,10.67 7.29,7.11 10.93,17.84 10.93,32.18l0 55.11 -33.78 0 0 -49.6c0,-13.16 -5.27,-19.73 -15.82,-19.73 -5.81,0 -10.46,1.9 -13.96,5.69 -3.5,3.79 -5.24,9.48 -5.24,17.07l0 46.58 -33.78 0 0 -96.36 32.18 0 0 10.49c3.79,-3.91 8.3,-6.9 13.51,-8.98 5.21,-2.07 10.9,-3.11 17.07,-3.11z"/>
  <path id="2" class="fil1" d="M1773.34 666.35l0 78.76c0,17.9 -4.86,31.32 -14.58,40.27 -9.72,8.95 -23.71,13.42 -41.96,13.42 -9.48,0 -18.37,-1.07 -26.67,-3.2 -8.3,-2.13 -15.35,-5.27 -21.16,-9.42l12.27 -23.65c3.91,3.2 8.86,5.72 14.85,7.56 5.98,1.84 11.88,2.76 17.69,2.76 8.89,0 15.41,-1.96 19.56,-5.87 4.15,-3.91 6.22,-9.72 6.22,-17.42l0 -3.2c-6.52,7.59 -16.06,11.38 -28.62,11.38 -8.53,0 -16.42,-1.93 -23.65,-5.78 -7.23,-3.85 -12.98,-9.3 -17.24,-16.36 -4.27,-7.05 -6.4,-15.2 -6.4,-24.45 0,-9.13 2.13,-17.22 6.4,-24.27 4.27,-7.05 10.02,-12.5 17.24,-16.36 7.23,-3.85 15.11,-5.78 23.65,-5.78 13.75,0 23.82,4.44 30.22,13.33l0 -11.73 32.18 0zm-54.4 64.54c6.04,0 11.05,-1.84 15.02,-5.51 3.97,-3.67 5.96,-8.42 5.96,-14.22 0,-5.81 -1.96,-10.52 -5.87,-14.13 -3.91,-3.62 -8.95,-5.42 -15.11,-5.42 -6.16,0 -11.23,1.81 -15.2,5.42 -3.97,3.62 -5.96,8.33 -5.96,14.13 0,5.81 2.01,10.55 6.04,14.22 4.03,3.67 9.07,5.51 15.11,5.51z"/>
  <path id="3" class="fil1" d="M1893.53 714.7c0,0.24 -0.18,3.02 -0.53,8.36l-70.05 0c1.42,4.98 4.18,8.8 8.27,11.47 4.09,2.67 9.22,4 15.38,4 4.62,0 8.62,-0.65 12,-1.96 3.38,-1.3 6.79,-3.44 10.22,-6.4l17.78 18.49c-9.36,10.43 -23.05,15.65 -41.07,15.65 -11.26,0 -21.16,-2.13 -29.69,-6.4 -8.53,-4.27 -15.14,-10.19 -19.82,-17.78 -4.68,-7.59 -7.02,-16.18 -7.02,-25.78 0,-9.48 2.28,-17.99 6.84,-25.51 4.56,-7.53 10.88,-13.42 18.93,-17.69 8.06,-4.27 17.13,-6.4 27.2,-6.4 9.6,0 18.31,1.98 26.13,5.96 7.82,3.97 14.02,9.72 18.58,17.24 4.56,7.53 6.84,16.45 6.84,26.76zm-51.38 -25.96c-5.22,0 -9.57,1.48 -13.07,4.44 -3.5,2.96 -5.72,6.99 -6.67,12.09l39.47 0c-0.95,-5.1 -3.17,-9.13 -6.67,-12.09 -3.5,-2.96 -7.85,-4.44 -13.07,-4.44z"/>
  <path id="4" class="fil1" d="M1971.93 664.75c11.97,0 21.6,3.55 28.89,10.67 7.29,7.11 10.93,17.84 10.93,32.18l0 55.11 -33.78 0 0 -49.6c0,-13.16 -5.27,-19.73 -15.82,-19.73 -5.81,0 -10.46,1.9 -13.96,5.69 -3.5,3.79 -5.24,9.48 -5.24,17.07l0 46.58 -33.78 0 0 -96.36 32.18 0 0 10.49c3.79,-3.91 8.3,-6.9 13.51,-8.98 5.21,-2.07 10.9,-3.11 17.07,-3.11z"/>
  <path id="5" class="fil1" d="M2032.91 666.35l33.78 0 0 96.36 -33.78 0 0 -96.36zm16.89 -10.67c-6.16,0 -11.14,-1.72 -14.93,-5.16 -3.79,-3.44 -5.69,-7.7 -5.69,-12.8 0,-5.1 1.9,-9.36 5.69,-12.8 3.79,-3.44 8.77,-5.16 14.93,-5.16 6.16,0 11.14,1.63 14.93,4.89 3.79,3.26 5.69,7.44 5.69,12.53 0,5.33 -1.9,9.75 -5.69,13.24 -3.79,3.5 -8.77,5.25 -14.93,5.25z"/>
  <path id="6" class="fil1" d="M2187.06 714.7c0,0.24 -0.18,3.02 -0.53,8.36l-70.05 0c1.42,4.98 4.18,8.8 8.27,11.47 4.09,2.67 9.22,4 15.38,4 4.62,0 8.62,-0.65 12,-1.96 3.38,-1.3 6.79,-3.44 10.22,-6.4l17.78 18.49c-9.36,10.43 -23.05,15.65 -41.07,15.65 -11.26,0 -21.16,-2.13 -29.69,-6.4 -8.53,-4.27 -15.14,-10.19 -19.82,-17.78 -4.68,-7.59 -7.02,-16.18 -7.02,-25.78 0,-9.48 2.28,-17.99 6.84,-25.51 4.56,-7.53 10.88,-13.42 18.93,-17.69 8.06,-4.27 17.13,-6.4 27.2,-6.4 9.6,0 18.31,1.98 26.13,5.96 7.82,3.97 14.02,9.72 18.58,17.24 4.56,7.53 6.84,16.45 6.84,26.76zm-51.38 -25.96c-5.22,0 -9.57,1.48 -13.07,4.44 -3.5,2.96 -5.72,6.99 -6.67,12.09l39.47 0c-0.95,-5.1 -3.17,-9.13 -6.67,-12.09 -3.5,-2.96 -7.85,-4.44 -13.07,-4.44z"/>
  <path id="7" class="fil1" d="M2234.88 677.9c3.44,-4.39 7.91,-7.68 13.42,-9.87 5.51,-2.19 11.82,-3.29 18.94,-3.29l0 30.4c-3.08,-0.35 -5.63,-0.53 -7.64,-0.53 -7.23,0 -12.89,1.96 -16.98,5.87 -4.09,3.91 -6.13,9.9 -6.13,17.96l0 44.27 -33.78 0 0 -96.36 32.18 0 0 11.56z"/>
  <path id="8" class="fil1" d="M2281.11 666.35l33.78 0 0 96.36 -33.78 0 0 -96.36zm23.29 -38.58l33.78 0 -33.42 27.02 -24.18 0 23.82 -27.02z"/>
  <path id="9" class="fil1" d="M2377.82 664.75c16,0 28.21,3.64 36.62,10.93 8.41,7.29 12.62,18.46 12.62,33.51l0 53.51 -31.47 0 0 -12.45c-4.86,9.36 -14.34,14.05 -28.45,14.05 -7.47,0 -13.93,-1.3 -19.38,-3.91 -5.45,-2.61 -9.57,-6.13 -12.36,-10.58 -2.79,-4.44 -4.18,-9.51 -4.18,-15.2 0,-9.13 3.5,-16.21 10.49,-21.25 6.99,-5.04 17.78,-7.55 32.36,-7.55l19.2 0c-0.59,-10.19 -7.41,-15.29 -20.45,-15.29 -4.62,0 -9.3,0.74 -14.04,2.22 -4.74,1.48 -8.77,3.53 -12.09,6.13l-11.38 -22.93c5.33,-3.56 11.82,-6.31 19.47,-8.27 7.64,-1.96 15.32,-2.93 23.02,-2.93zm-1.24 78.23c3.91,0 7.35,-0.95 10.31,-2.85 2.96,-1.9 5.1,-4.68 6.4,-8.36l0 -8.36 -14.58 0c-9.84,0 -14.76,3.26 -14.76,9.78 0,2.96 1.13,5.33 3.38,7.11 2.25,1.78 5.33,2.67 9.25,2.67z"/>
  <path id="10" class="fil1" d="M2598.64 714.7c0,0.24 -0.18,3.02 -0.53,8.36l-70.05 0c1.42,4.98 4.18,8.8 8.27,11.47 4.09,2.67 9.22,4 15.38,4 4.62,0 8.62,-0.65 12,-1.96 3.38,-1.3 6.79,-3.44 10.22,-6.4l17.78 18.49c-9.36,10.43 -23.05,15.65 -41.07,15.65 -11.26,0 -21.16,-2.13 -29.69,-6.4 -8.53,-4.27 -15.14,-10.19 -19.82,-17.78 -4.68,-7.59 -7.02,-16.18 -7.02,-25.78 0,-9.48 2.28,-17.99 6.84,-25.51 4.56,-7.53 10.88,-13.42 18.93,-17.69 8.06,-4.27 17.13,-6.4 27.2,-6.4 9.6,0 18.31,1.98 26.13,5.96 7.82,3.97 14.02,9.72 18.58,17.24 4.56,7.53 6.84,16.45 6.84,26.76zm-51.38 -25.96c-5.22,0 -9.57,1.48 -13.07,4.44 -3.5,2.96 -5.72,6.99 -6.67,12.09l39.47 0c-0.95,-5.1 -3.17,-9.13 -6.67,-12.09 -3.5,-2.96 -7.85,-4.44 -13.07,-4.44z"/>
  <path id="11" class="fil1" d="M2677.04 664.75c11.97,0 21.6,3.55 28.89,10.67 7.29,7.11 10.93,17.84 10.93,32.18l0 55.11 -33.78 0 0 -49.6c0,-13.16 -5.27,-19.73 -15.82,-19.73 -5.81,0 -10.46,1.9 -13.96,5.69 -3.5,3.79 -5.24,9.48 -5.24,17.07l0 46.58 -33.78 0 0 -96.36 32.18 0 0 10.49c3.79,-3.91 8.3,-6.9 13.51,-8.98 5.21,-2.07 10.9,-3.11 17.07,-3.11z"/>
  <path id="12" class="fil1" d="M1540.26 974.81l-19.2 0 0 33.07 -35.2 0 0 -124.45 56.89 0c11.26,0 21.04,1.87 29.34,5.6 8.3,3.73 14.7,9.07 19.2,16 4.5,6.93 6.76,15.08 6.76,24.45 0,9.01 -2.1,16.86 -6.31,23.56 -4.21,6.7 -10.22,11.94 -18.05,15.73l26.85 39.11 -37.69 0 -22.58 -33.07zm22.22 -45.34c0,-5.81 -1.84,-10.31 -5.51,-13.51 -3.67,-3.2 -9.13,-4.8 -16.36,-4.8l-19.56 0 0 36.45 19.56 0c7.23,0 12.68,-1.57 16.36,-4.71 3.67,-3.14 5.51,-7.61 5.51,-13.42z"/>
  <path id="13" class="fil1" d="M1714.32 959.87c0,0.24 -0.18,3.02 -0.53,8.36l-70.05 0c1.42,4.98 4.18,8.8 8.27,11.47 4.09,2.67 9.22,4 15.38,4 4.62,0 8.62,-0.65 12,-1.96 3.38,-1.3 6.79,-3.44 10.22,-6.4l17.78 18.49c-9.36,10.43 -23.05,15.65 -41.07,15.65 -11.26,0 -21.16,-2.13 -29.69,-6.4 -8.53,-4.27 -15.14,-10.19 -19.82,-17.78 -4.68,-7.59 -7.02,-16.18 -7.02,-25.78 0,-9.48 2.28,-17.99 6.84,-25.51 4.56,-7.53 10.88,-13.42 18.93,-17.69 8.06,-4.27 17.13,-6.4 27.2,-6.4 9.6,0 18.31,1.98 26.13,5.96 7.82,3.97 14.02,9.72 18.58,17.24 4.56,7.53 6.84,16.45 6.84,26.76zm-51.38 -25.96c-5.22,0 -9.57,1.48 -13.07,4.44 -3.5,2.96 -5.72,6.99 -6.67,12.09l39.47 0c-0.95,-5.1 -3.17,-9.13 -6.67,-12.09 -3.5,-2.96 -7.85,-4.44 -13.07,-4.44z"/>
  <path id="14" class="fil1" d="M1779.21 1009.48c-10.67,0 -20.21,-2.13 -28.62,-6.4 -8.42,-4.27 -14.96,-10.19 -19.65,-17.78 -4.68,-7.59 -7.02,-16.18 -7.02,-25.78 0,-9.6 2.34,-18.16 7.02,-25.69 4.68,-7.53 11.23,-13.39 19.65,-17.6 8.41,-4.21 17.96,-6.31 28.62,-6.31 10.9,0 20.33,2.34 28.27,7.02 7.94,4.68 13.57,11.17 16.89,19.47l-26.14 13.33c-4.39,-8.65 -10.79,-12.98 -19.2,-12.98 -6.05,0 -11.05,2.02 -15.02,6.05 -3.97,4.03 -5.96,9.6 -5.96,16.71 0,7.23 1.98,12.89 5.96,16.98 3.97,4.09 8.98,6.13 15.02,6.13 8.41,0 14.81,-4.33 19.2,-12.98l26.14 13.33c-3.32,8.3 -8.95,14.79 -16.89,19.47 -7.94,4.68 -17.36,7.02 -28.27,7.02z"/>
  <path id="15" class="fil1" d="M1938.51 911.52l0 96.36 -32.18 0 0 -10.31c-3.56,3.91 -7.82,6.87 -12.8,8.89 -4.98,2.01 -10.25,3.02 -15.82,3.02 -12.44,0 -22.37,-3.67 -29.78,-11.02 -7.41,-7.35 -11.11,-18.37 -11.11,-33.07l0 -53.87 33.78 0 0 48.36c0,7.23 1.36,12.5 4.09,15.82 2.73,3.32 6.7,4.98 11.91,4.98 5.33,0 9.69,-1.87 13.07,-5.6 3.38,-3.73 5.07,-9.45 5.07,-17.16l0 -46.4 33.78 0z"/>
  <path id="16" class="fil1" d="M1992.38 923.07c3.44,-4.39 7.91,-7.68 13.42,-9.87 5.51,-2.19 11.82,-3.29 18.94,-3.29l0 30.4c-3.08,-0.35 -5.63,-0.53 -7.64,-0.53 -7.23,0 -12.89,1.96 -16.98,5.87 -4.09,3.91 -6.13,9.9 -6.13,17.96l0 44.27 -33.78 0 0 -96.36 32.18 0 0 11.56z"/>
  <path id="17" class="fil1" d="M2073.81 1009.48c-8.06,0 -16,-0.92 -23.82,-2.76 -7.82,-1.84 -14.1,-4.24 -18.85,-7.2l10.13 -23.11c4.39,2.73 9.6,4.89 15.65,6.49 6.04,1.6 12.03,2.4 17.96,2.4 5.45,0 9.34,-0.56 11.65,-1.69 2.31,-1.13 3.47,-2.76 3.47,-4.89 0,-2.13 -1.39,-3.64 -4.18,-4.53 -2.78,-0.89 -7.2,-1.75 -13.24,-2.58 -7.7,-0.95 -14.25,-2.19 -19.65,-3.73 -5.39,-1.54 -10.05,-4.39 -13.96,-8.53 -3.91,-4.15 -5.87,-9.96 -5.87,-17.42 0,-6.16 1.84,-11.65 5.51,-16.45 3.67,-4.8 9.04,-8.59 16.09,-11.38 7.05,-2.78 15.5,-4.18 25.34,-4.18 6.99,0 13.93,0.71 20.8,2.13 6.87,1.42 12.62,3.44 17.24,6.04l-10.13 22.94c-8.53,-4.74 -17.78,-7.11 -27.74,-7.11 -5.33,0 -9.25,0.62 -11.73,1.87 -2.49,1.24 -3.73,2.87 -3.73,4.89 0,2.25 1.36,3.82 4.09,4.71 2.73,0.89 7.23,1.81 13.51,2.76 7.94,1.19 14.52,2.55 19.73,4.09 5.21,1.54 9.75,4.36 13.6,8.45 3.85,4.09 5.78,9.81 5.78,17.16 0,6.05 -1.84,11.47 -5.51,16.27 -3.67,4.8 -9.1,8.56 -16.27,11.29 -7.17,2.73 -15.79,4.09 -25.87,4.09z"/>
  <path id="18" class="fil1" d="M2184.39 1009.48c-10.31,0 -19.62,-2.13 -27.91,-6.4 -8.3,-4.27 -14.79,-10.19 -19.47,-17.78 -4.68,-7.59 -7.02,-16.18 -7.02,-25.78 0,-9.48 2.34,-18.02 7.02,-25.6 4.68,-7.59 11.14,-13.48 19.38,-17.69 8.24,-4.21 17.57,-6.31 28,-6.31 10.43,0 19.79,2.1 28.09,6.31 8.3,4.21 14.76,10.07 19.38,17.6 4.62,7.53 6.93,16.09 6.93,25.69 0,9.6 -2.31,18.19 -6.93,25.78 -4.62,7.59 -11.08,13.51 -19.38,17.78 -8.3,4.27 -17.66,6.4 -28.09,6.4zm0 -26.85c5.93,0 10.79,-2.05 14.58,-6.13 3.79,-4.09 5.69,-9.75 5.69,-16.98 0,-7.11 -1.9,-12.68 -5.69,-16.71 -3.79,-4.03 -8.65,-6.05 -14.58,-6.05 -5.93,0 -10.79,2.02 -14.58,6.05 -3.79,4.03 -5.69,9.6 -5.69,16.71 0,7.23 1.9,12.89 5.69,16.98 3.79,4.09 8.65,6.13 14.58,6.13z"/>
  <path id="19" class="fil1" d="M2289.46 1009.48c-8.06,0 -16,-0.92 -23.82,-2.76 -7.82,-1.84 -14.1,-4.24 -18.85,-7.2l10.13 -23.11c4.39,2.73 9.6,4.89 15.65,6.49 6.04,1.6 12.03,2.4 17.96,2.4 5.45,0 9.34,-0.56 11.65,-1.69 2.31,-1.13 3.47,-2.76 3.47,-4.89 0,-2.13 -1.39,-3.64 -4.18,-4.53 -2.78,-0.89 -7.2,-1.75 -13.24,-2.58 -7.7,-0.95 -14.25,-2.19 -19.65,-3.73 -5.39,-1.54 -10.05,-4.39 -13.96,-8.53 -3.91,-4.15 -5.87,-9.96 -5.87,-17.42 0,-6.16 1.84,-11.65 5.51,-16.45 3.67,-4.8 9.04,-8.59 16.09,-11.38 7.05,-2.78 15.5,-4.18 25.34,-4.18 6.99,0 13.93,0.71 20.8,2.13 6.87,1.42 12.62,3.44 17.24,6.04l-10.13 22.94c-8.53,-4.74 -17.78,-7.11 -27.74,-7.11 -5.33,0 -9.25,0.62 -11.73,1.87 -2.49,1.24 -3.73,2.87 -3.73,4.89 0,2.25 1.36,3.82 4.09,4.71 2.73,0.89 7.23,1.81 13.51,2.76 7.94,1.19 14.52,2.55 19.73,4.09 5.21,1.54 9.75,4.36 13.6,8.45 3.85,4.09 5.78,9.81 5.78,17.16 0,6.05 -1.84,11.47 -5.51,16.27 -3.67,4.8 -9.1,8.56 -16.27,11.29 -7.17,2.73 -15.79,4.09 -25.87,4.09z"/>
  <polygon id="20" class="fil1" points="2523.43,883.43 2523.43,1007.88 2488.23,1007.88 2488.23,959.34 2440.23,959.34 2440.23,1007.88 2405.03,1007.88 2405.03,883.43 2440.23,883.43 2440.23,930.18 2488.23,930.18 2488.23,883.43 "/>
  <path id="21" class="fil1" d="M2546.72 911.52l33.78 0 0 96.36 -33.78 0 0 -96.36zm23.29 -38.58l33.78 0 -33.42 27.02 -24.18 0 23.82 -27.02z"/>
  <path id="22" class="fil1" d="M2704.78 875.96l0 131.92 -32.18 0 0 -9.6c-6.28,7.47 -15.7,11.2 -28.27,11.2 -8.77,0 -16.77,-2.05 -24,-6.13 -7.23,-4.09 -12.95,-9.93 -17.16,-17.51 -4.21,-7.59 -6.31,-16.36 -6.31,-26.31 0,-9.96 2.1,-18.7 6.31,-26.22 4.21,-7.53 9.93,-13.3 17.16,-17.33 7.23,-4.03 15.23,-6.04 24,-6.04 11.5,0 20.39,3.32 26.67,9.96l0 -43.91 33.78 0zm-53.34 106.67c5.81,0 10.61,-2.05 14.4,-6.13 3.79,-4.09 5.69,-9.75 5.69,-16.98 0,-7.11 -1.87,-12.68 -5.6,-16.71 -3.73,-4.03 -8.56,-6.05 -14.49,-6.05 -5.93,0 -10.79,2.02 -14.58,6.05 -3.79,4.03 -5.69,9.6 -5.69,16.71 0,7.23 1.9,12.89 5.69,16.98 3.79,4.09 8.65,6.13 14.58,6.13z"/>
  <path id="23" class="fil1" d="M2758.65 923.07c3.44,-4.39 7.91,-7.68 13.42,-9.87 5.51,-2.19 11.82,-3.29 18.94,-3.29l0 30.4c-3.08,-0.35 -5.63,-0.53 -7.64,-0.53 -7.23,0 -12.89,1.96 -16.98,5.87 -4.09,3.91 -6.13,9.9 -6.13,17.96l0 44.27 -33.78 0 0 -96.36 32.18 0 0 11.56z"/>
  <path id="24" class="fil1" d="M2804.87 911.52l33.78 0 0 96.36 -33.78 0 0 -96.36zm16.89 -10.67c-6.16,0 -11.14,-1.72 -14.93,-5.16 -3.79,-3.44 -5.69,-7.7 -5.69,-12.8 0,-5.1 1.9,-9.36 5.69,-12.8 3.79,-3.44 8.77,-5.16 14.93,-5.16 6.16,0 11.14,1.63 14.93,4.89 3.79,3.26 5.69,7.44 5.69,12.53 0,5.33 -1.9,9.75 -5.69,13.24 -3.79,3.5 -8.77,5.25 -14.93,5.25z"/>
  <path id="25" class="fil1" d="M2909.77 1009.48c-10.67,0 -20.21,-2.13 -28.62,-6.4 -8.42,-4.27 -14.96,-10.19 -19.65,-17.78 -4.68,-7.59 -7.02,-16.18 -7.02,-25.78 0,-9.6 2.34,-18.16 7.02,-25.69 4.68,-7.53 11.23,-13.39 19.65,-17.6 8.41,-4.21 17.96,-6.31 28.62,-6.31 10.9,0 20.33,2.34 28.27,7.02 7.94,4.68 13.57,11.17 16.89,19.47l-26.14 13.33c-4.39,-8.65 -10.79,-12.98 -19.2,-12.98 -6.05,0 -11.05,2.02 -15.02,6.05 -3.97,4.03 -5.96,9.6 -5.96,16.71 0,7.23 1.98,12.89 5.96,16.98 3.97,4.09 8.98,6.13 15.02,6.13 8.41,0 14.81,-4.33 19.2,-12.98l26.14 13.33c-3.32,8.3 -8.95,14.79 -16.89,19.47 -7.94,4.68 -17.36,7.02 -28.27,7.02z"/>
  <path id="26" class="fil1" d="M3015.02 1009.48c-10.31,0 -19.62,-2.13 -27.91,-6.4 -8.3,-4.27 -14.79,-10.19 -19.47,-17.78 -4.68,-7.59 -7.02,-16.18 -7.02,-25.78 0,-9.48 2.34,-18.02 7.02,-25.6 4.68,-7.59 11.14,-13.48 19.38,-17.69 8.24,-4.21 17.57,-6.31 28,-6.31 10.43,0 19.79,2.1 28.09,6.31 8.3,4.21 14.76,10.07 19.38,17.6 4.62,7.53 6.93,16.09 6.93,25.69 0,9.6 -2.31,18.19 -6.93,25.78 -4.62,7.59 -11.08,13.51 -19.38,17.78 -8.3,4.27 -17.66,6.4 -28.09,6.4zm0 -26.85c5.93,0 10.79,-2.05 14.58,-6.13 3.79,-4.09 5.69,-9.75 5.69,-16.98 0,-7.11 -1.9,-12.68 -5.69,-16.71 -3.79,-4.03 -8.65,-6.05 -14.58,-6.05 -5.93,0 -10.79,2.02 -14.58,6.05 -3.79,4.03 -5.69,9.6 -5.69,16.71 0,7.23 1.9,12.89 5.69,16.98 3.79,4.09 8.65,6.13 14.58,6.13z"/>
  <path id="27" class="fil1" d="M3120.09 1009.48c-8.06,0 -16,-0.92 -23.82,-2.76 -7.82,-1.84 -14.1,-4.24 -18.85,-7.2l10.13 -23.11c4.39,2.73 9.6,4.89 15.65,6.49 6.04,1.6 12.03,2.4 17.96,2.4 5.45,0 9.34,-0.56 11.65,-1.69 2.31,-1.13 3.47,-2.76 3.47,-4.89 0,-2.13 -1.39,-3.64 -4.18,-4.53 -2.78,-0.89 -7.2,-1.75 -13.24,-2.58 -7.7,-0.95 -14.25,-2.19 -19.65,-3.73 -5.39,-1.54 -10.05,-4.39 -13.96,-8.53 -3.91,-4.15 -5.87,-9.96 -5.87,-17.42 0,-6.16 1.84,-11.65 5.51,-16.45 3.67,-4.8 9.04,-8.59 16.09,-11.38 7.05,-2.78 15.5,-4.18 25.34,-4.18 6.99,0 13.93,0.71 20.8,2.13 6.87,1.42 12.62,3.44 17.24,6.04l-10.13 22.94c-8.53,-4.74 -17.78,-7.11 -27.74,-7.11 -5.33,0 -9.25,0.62 -11.73,1.87 -2.49,1.24 -3.73,2.87 -3.73,4.89 0,2.25 1.36,3.82 4.09,4.71 2.73,0.89 7.23,1.81 13.51,2.76 7.94,1.19 14.52,2.55 19.73,4.09 5.21,1.54 9.75,4.36 13.6,8.45 3.85,4.09 5.78,9.81 5.78,17.16 0,6.05 -1.84,11.47 -5.51,16.27 -3.67,4.8 -9.1,8.56 -16.27,11.29 -7.17,2.73 -15.79,4.09 -25.87,4.09z"/>
  <g id="_1380380578448">
   <path class="fil2" d="M757.22 921.66c3.86,0.84 1.07,-0.57 1.62,-1.85 0.02,-0.05 0.6,-3.11 0.62,-3.24 0.68,-4.71 -0.08,-3.59 -0.92,-7.21 -0.75,-3.21 -0.7,-8.21 3.5,-9l-1.93 -0.79c-3.26,-2.37 1.1,3.3 -1.05,-1.21 -9.35,-0.67 -21.11,-3.73 -26.25,-9.19 1.01,-2.12 25.62,-26.43 30.39,-30.94 2.14,-2.02 8.52,-8.26 9.76,-10.11 -1.99,-4.06 -5.07,-8.04 -7.41,-12.44 -5.52,-10.38 -8.49,-16.93 -11.93,-28.45 -1.02,-3.43 -2.77,-12.73 -4.31,-15.06 -1.18,-0.69 -16.56,-2.87 -21.37,-4.74 -17.17,-6.66 -34.81,-24.34 -36,-42.27l57.5 -0.02c1.6,-5.26 2.61,-10.52 4.12,-16 6.4,-23.19 16.68,-34.11 19.11,-40.72 -5.57,-9.73 -13.47,-13.37 -16.67,-33.42 -1.68,-10.5 -0.07,-22.91 4.26,-32.5l4.76 -7.43 20.46 20.06c6.82,6.92 13.59,13.16 20.07,20.13 4.72,-2.34 7.77,-4.85 12.32,-7.27 14.06,-7.47 27.68,-13.21 44.42,-15.99 1.78,-17.66 4.62,-26.97 13.86,-38.41 5.01,-6.19 19.61,-18.88 32.77,-19.43l0.02 57.62c35.33,6.51 50.35,21.06 56.82,23.06 9.11,-5.53 14.55,-13.9 33.27,-16.68 21.68,-3.22 29.34,4.51 40.17,8.2 -2.41,5.22 -28.37,27.73 -30.06,31.28 2.63,4.51 13.69,12.45 14.78,16.23 2.05,7.07 -8.87,11.64 -11.55,17.59 0.24,2.82 4.15,12.15 5.33,16.03l3.47 12.97c0.16,0.67 0.43,1.66 0.72,2.33 2.23,5.19 19.77,-0.47 38.74,15.69 5.96,5.09 19.05,19.82 19.21,32.69l-57.35 0.26c-3.84,8.41 -2.46,18.93 -16.24,44.19 -1.8,3.3 -6.37,9.58 -7.05,12.51 2.27,3.63 5.51,5.8 10.57,14.93 10.58,19.06 7.49,48.76 -2.96,58.21 -7.4,-5.73 -36.22,-37.79 -41.24,-40.26 -6.05,4.74 -17.96,10.88 -25.84,14.17 -15.86,6.63 -14.42,4.85 -26.78,8.31 -7.39,2.07 -2.74,9.33 -7.76,22.84 -6.22,16.75 -23.96,34.06 -42.29,35.83l0 -56.57c-1.36,-2.19 -5.17,-2.34 -7.67,-2.9 -2.91,-0.65 -5.54,-1.3 -8.28,-2.12 -11.4,-3.4 -18.17,-6.64 -28.27,-12.05 -4.36,-2.33 -8.54,-5.45 -12.46,-7.24 -1.38,0.91 -3.19,2.25 -3.87,3.54 0.66,3.3 0.1,1.48 1.87,3.88l8.6 8.49c1.64,1.56 4.25,4.05 4.4,6.46 0.31,4.84 -2.68,5.69 -3.68,7.91 2.31,2.92 17.87,7.9 23.03,9.72 3.1,1.09 2.09,0.17 3.35,2.22l0.02 62.92c47.99,5.04 81.23,-26.31 90.22,-63.49 11.11,-3.35 31.95,-12.73 32.89,-12.93l33.23 33.73c4.31,4.05 6.93,7.38 11.28,10.98 5.78,-2.52 18.11,-18.26 22.54,-26.6 5.88,-11.07 9.58,-25.34 9.3,-40.43 -0.28,-14.75 -4.93,-28.1 -11.23,-38.57 -2.39,-3.97 -0.7,-4.32 1.34,-8.14 5.22,-9.75 8.26,-21.76 11,-26.86l63.89 -0.06c-0.16,-28.84 -2.85,-41.33 -16.72,-60.21 -5.12,-6.98 -12.08,-13.26 -19.73,-18.35 -4.08,-2.71 -7.55,-4.7 -12.56,-6.82 -19.93,-8.48 -10.87,2.63 -20.48,-21.29 -1.88,-4.69 -6.29,-12.62 -7.1,-15.95 2.04,-2.4 3.63,-3.52 5.58,-5.5l27.97 -28c3.52,-3.44 7.37,-8.18 11.23,-11.02 -3.5,-7.03 -18.76,-18.43 -26.8,-22.82 -24.33,-13.27 -54.5,-12.42 -78.61,1.64 -4.87,2.84 -5.69,-0.09 -16.57,-4.95 -5.56,-2.48 -13.33,-4.42 -18.4,-6.96l-0.34 -63.89c-22.48,-3.62 -46.7,6.19 -60.1,16.17 -25.72,19.16 -27.88,44.62 -30.62,47.11 -4.11,2.17 -11.36,3.93 -16.25,5.98 -4.98,2.09 -11.54,5.91 -15.91,7.23l-22.27 -22.36c-3.65,-3.92 -7.3,-7.4 -11.14,-11.24 -3.61,-3.62 -7.52,-7.92 -11.31,-11.18 -6.49,3.46 -18.42,19.06 -22.59,26.76 -13.38,24.77 -12.03,54.48 1.76,78.53 2.26,3.95 1.04,4.32 -0.96,8.07 -3.89,7.29 -8.55,19.35 -10.86,27.07l-64.07 0.05c-2.53,34.03 10.83,61.65 36.4,78.86 9.06,6.1 15.85,7.74 27.22,11.52 2.89,11.9 8.35,21.89 12.92,31.89 -1.38,2.56 -29.14,29.55 -33.7,34.18 -2.77,2.81 -10.07,9.17 -11.15,12.35 5.61,4.03 11.08,12.56 24.01,19.86 12.22,6.9 18.82,7.77 33.96,10.87z"/>
   <path class="fil2" d="M703.83 1042.31c-2.51,1.66 -11.87,14.5 -13.62,17.76 5.46,6.99 31.18,22.88 44.08,25.5 37.33,7.6 53.5,-33.09 76.65,-22.18 7.97,3.76 14.8,9.08 22.32,12.75 39.84,19.45 56.21,-19.57 76.11,-15.68 20.78,4.07 34.09,35.38 75.4,11.92 17.39,-9.87 27.4,-19.88 51.19,-9.41 17.69,7.78 38.33,25.17 43.21,27.25 2.5,-2.33 4.49,-5.36 6.68,-8.57 1.66,-2.43 5.37,-6.86 6.29,-9.66 -5.18,-5.44 -35.72,-24.59 -41.95,-27.75 -17.59,-8.89 -36.2,-12.79 -55.95,-3.46 -8.1,3.82 -14.39,7.94 -22.05,12.28 -10.57,5.99 -14.09,7.46 -25.37,1.28 -14.32,-7.84 -30.08,-21.99 -51.92,-15.15 -19.31,6.05 -32.37,24.12 -47.45,18.25 -15.11,-5.88 -29.11,-22.43 -50.91,-18.87 -31.79,5.18 -37.72,38 -72.27,18.2 -3.37,-1.93 -6.89,-4.72 -10.22,-6.97 -3.76,-2.54 -6.72,-5.06 -10.24,-7.52z"/>
   <path class="fil2" d="M702.79 998.57c-2.29,5.25 -9.04,11.96 -12.52,17.47 1.71,3.57 15.27,12.43 19.44,15.01 58.38,36.1 72.21,-23.95 100.91,-11.33 25.08,11.03 35.55,31.65 74.51,6.76 5.18,-3.31 16.34,-11.21 24.52,-9.55 17.98,3.64 37.18,35.56 75.43,11.75 16.61,-10.34 27.81,-19.43 51,-9.08 20.11,8.97 29.15,19.37 43.09,27.17l13.1 -18.03c-4.89,-6.05 -33.25,-22.99 -41.48,-27.6 -16.67,-9.34 -36.01,-12.73 -55.28,-4.57 -24.17,10.24 -29.08,24.34 -48.53,14.38 -14.29,-7.32 -29.33,-22.23 -51.19,-15.62 -20.22,6.11 -33.08,24.53 -48.07,18.61 -15.1,-5.96 -29.13,-22.08 -50.16,-19.1 -18.58,2.63 -30.85,17.43 -46.52,23.68 -10.02,3.99 -19.8,-1.43 -26.97,-5.56 -3.88,-2.24 -6.82,-4.48 -10.28,-6.89 -3.01,-2.09 -7.39,-6.39 -11.01,-7.48z"/>
   <path class="fil2" d="M874.74 757.71c-3.5,6.25 -17.28,13.87 -17.47,22.51 -0.35,15.27 18.68,12 28.88,11.85 -1.75,3.15 -30.69,31.29 -35.69,36.29 -13.14,13.14 4.22,30.05 17.19,15.7 3.19,-3.53 6.11,-5.8 9.34,-9.32 11.84,-12.89 33.26,-32.12 44.82,-44.72 2.61,-2.85 5.53,-7.08 3.83,-12.93 -3.11,-10.69 -16.52,-7.99 -28.56,-8.08 0.9,-2.11 7.52,-8.45 9.64,-10.51 2.94,-2.86 7.97,-5.89 7.89,-12.59 -0.18,-15.02 -17.01,-10 -29.23,-11.48 2.68,-3.51 5.63,-5.47 8.68,-8.74l17.91 -17.91c6.72,-7.07 15.41,-12.47 13.96,-21.29 -0.78,-4.73 -4.59,-8.32 -8.8,-9.15 -8.79,-1.73 -14.06,6.89 -21.76,14.58 -11.47,11.45 -24.01,24.59 -36.22,36.17 -8.2,7.77 -15.38,13.08 -12.82,21.58 3.31,10.98 16.64,7.39 28.42,8.05z"/>
   <path class="fil2" d="M759.05 898.37c2.15,4.5 -2.21,-1.16 1.05,1.21l1.93 0.79c-4.2,0.79 -4.25,5.79 -3.5,9.01 0.84,3.61 1.61,2.49 0.92,7.2 -0.02,0.12 -0.6,3.19 -0.62,3.24 -0.55,1.29 2.24,2.69 -1.62,1.85 10.13,-1.89 18.99,3.29 43.33,-8.95 7.89,-3.97 4.58,-4.58 12.97,-1.15 1,-2.22 4,-3.07 3.68,-7.9 -0.16,-2.41 -2.76,-4.91 -4.4,-6.46l-8.6 -8.49c-1.77,-2.4 -1.2,-0.58 -1.87,-3.88 -11.87,7.62 -23.5,15.63 -43.28,13.54z"/>
   <path class="fil2" d="M779.01 897.9c-11.81,4.97 -5.64,24.28 7.99,19.37 12.03,-4.33 6.14,-25.31 -7.99,-19.37z"/>
   <path class="fil2" d="M1007.34 702.12l10.18 -0.4c1.6,-1.89 3.51,-2.65 3.82,-6.57l-14.74 -14.69c-1.77,0.7 -2.05,1.51 -3.79,3.23 -1.49,1.48 -2.74,2.64 -4.11,3.92 0.5,1.62 7.78,13.77 8.64,14.5z"/>
   <path class="fil2" d="M1006.6 680.46l14.74 14.69c-0.31,3.91 -2.23,4.68 -3.82,6.57l-10.18 0.4c0.86,2.07 1.27,2.96 2.31,5.13 0.37,0.78 0.45,1.07 0.99,1.98 1.27,2.1 0.4,1 1.72,2.25 2.68,-5.95 13.59,-10.52 11.55,-17.59 -1.09,-3.77 -12.15,-11.71 -14.78,-16.23 -1.04,0.71 -0.68,0.18 -1.51,1.16 -0.83,0.98 -0.34,0.43 -1.02,1.65z"/>
   <path class="fil2" d="M987.4 924.25c2.09,-1.04 2.52,-2.18 4.36,-3.84 2.14,-1.94 3.38,-1.96 2.98,-5.01 -4.87,-0.59 -3.31,3.08 -6.35,3.85 -3.76,0.96 -0.69,-4.54 -0.13,-6.16 3.71,-10.75 -12.4,-5.65 -11.69,-0.71 0.86,6 5.8,-6.26 8.15,-1.99 2.14,3.88 -7.16,6.75 2.67,13.85z"/>
  </g>
 </g>
</svg>
